G04 #@! TF.GenerationSoftware,KiCad,Pcbnew,5.0.0*
G04 #@! TF.CreationDate,2018-12-05T22:45:07-02:00*
G04 #@! TF.ProjectId,Soil Moisture Sensor,536F696C204D6F697374757265205365,rev?*
G04 #@! TF.SameCoordinates,PX802e2cfPY72af761*
G04 #@! TF.FileFunction,Copper,L2,Bot,Signal*
G04 #@! TF.FilePolarity,Positive*
%FSLAX46Y46*%
G04 Gerber Fmt 4.6, Leading zero omitted, Abs format (unit mm)*
G04 Created by KiCad (PCBNEW 5.0.0) date Wed Dec  5 22:45:07 2018*
%MOMM*%
%LPD*%
G01*
G04 APERTURE LIST*
G04 #@! TA.AperFunction,ComponentPad*
%ADD10R,2.400000X1.600000*%
G04 #@! TD*
G04 #@! TA.AperFunction,ComponentPad*
%ADD11O,2.400000X1.600000*%
G04 #@! TD*
G04 #@! TA.AperFunction,ComponentPad*
%ADD12O,1.524000X2.197100*%
G04 #@! TD*
G04 #@! TA.AperFunction,ComponentPad*
%ADD13R,1.524000X2.197100*%
G04 #@! TD*
G04 #@! TA.AperFunction,ComponentPad*
%ADD14C,1.600000*%
G04 #@! TD*
G04 #@! TA.AperFunction,ComponentPad*
%ADD15O,1.400000X1.400000*%
G04 #@! TD*
G04 #@! TA.AperFunction,ComponentPad*
%ADD16C,1.400000*%
G04 #@! TD*
G04 #@! TA.AperFunction,ViaPad*
%ADD17C,1.000000*%
G04 #@! TD*
G04 #@! TA.AperFunction,Conductor*
%ADD18C,1.000000*%
G04 #@! TD*
G04 #@! TA.AperFunction,Conductor*
%ADD19C,0.254000*%
G04 #@! TD*
G04 APERTURE END LIST*
D10*
G04 #@! TO.P,U1,1*
G04 #@! TO.N,GND*
X7310000Y24400000D03*
D11*
G04 #@! TO.P,U1,5*
G04 #@! TO.N,Net-(C1-Pad2)*
X14930000Y16780000D03*
G04 #@! TO.P,U1,2*
G04 #@! TO.N,SENS1*
X7310000Y21860000D03*
G04 #@! TO.P,U1,6*
X14930000Y19320000D03*
G04 #@! TO.P,U1,3*
G04 #@! TO.N,SGN*
X7310000Y19320000D03*
G04 #@! TO.P,U1,7*
G04 #@! TO.N,Net-(R1-Pad1)*
X14930000Y21860000D03*
G04 #@! TO.P,U1,4*
G04 #@! TO.N,+5V*
X7310000Y16780000D03*
G04 #@! TO.P,U1,8*
X14930000Y24400000D03*
G04 #@! TD*
D12*
G04 #@! TO.P,P1,3*
G04 #@! TO.N,GND*
X14290000Y5826200D03*
D13*
G04 #@! TO.P,P1,1*
G04 #@! TO.N,+5V*
X9210000Y5826200D03*
D12*
G04 #@! TO.P,P1,2*
G04 #@! TO.N,SGN*
X11750000Y5826200D03*
G04 #@! TD*
D14*
G04 #@! TO.P,C1,1*
G04 #@! TO.N,GND*
X17750000Y11750000D03*
G04 #@! TO.P,C1,2*
G04 #@! TO.N,Net-(C1-Pad2)*
X17750000Y16750000D03*
G04 #@! TD*
D15*
G04 #@! TO.P,R1,2*
G04 #@! TO.N,SENS1*
X14370000Y12250000D03*
D16*
G04 #@! TO.P,R1,1*
G04 #@! TO.N,Net-(R1-Pad1)*
X6750000Y12250000D03*
G04 #@! TD*
G04 #@! TO.P,R2,1*
G04 #@! TO.N,+5V*
X4250000Y16750000D03*
D15*
G04 #@! TO.P,R2,2*
G04 #@! TO.N,Net-(R1-Pad1)*
X4250000Y9130000D03*
G04 #@! TD*
D17*
G04 #@! TO.N,SENS1*
X10190000Y21860000D03*
X13250000Y19250000D03*
G04 #@! TD*
D18*
G04 #@! TO.N,GND*
X13790000Y7790000D02*
X17750000Y11750000D01*
X13790000Y5826200D02*
X13790000Y7790000D01*
X12250000Y10750000D02*
X13790000Y9210000D01*
X9912755Y24400000D02*
X11790010Y22522745D01*
X13790000Y9210000D02*
X13790000Y7790000D01*
X11790010Y22522745D02*
X11790010Y21197255D01*
X12250000Y16372981D02*
X12250000Y10750000D01*
X11350010Y17272971D02*
X12250000Y16372981D01*
X7310000Y24400000D02*
X9912755Y24400000D01*
X11350010Y20117213D02*
X11350010Y17272971D01*
X11790010Y21197255D02*
X11029989Y20437234D01*
X11029989Y20437234D02*
X11350010Y20117213D01*
G04 #@! TO.N,Net-(C1-Pad2)*
X14960000Y16750000D02*
X14930000Y16780000D01*
X17750000Y16750000D02*
X14960000Y16750000D01*
G04 #@! TO.N,+5V*
X4780000Y16780000D02*
X4750000Y16750000D01*
X5280000Y16780000D02*
X5250000Y16750000D01*
X7310000Y16780000D02*
X5280000Y16780000D01*
X8710000Y15380000D02*
X7310000Y16780000D01*
X8710000Y5826200D02*
X8710000Y15380000D01*
X4250000Y25320002D02*
X4250000Y17739949D01*
X5229999Y26300001D02*
X4250000Y25320002D01*
X4250000Y17739949D02*
X4250000Y16750000D01*
X12629999Y26300001D02*
X5229999Y26300001D01*
X14530000Y24400000D02*
X12629999Y26300001D01*
X14930000Y24400000D02*
X14530000Y24400000D01*
G04 #@! TO.N,SGN*
X11250000Y7924750D02*
X10310010Y8864740D01*
X11250000Y5826200D02*
X11250000Y7924750D01*
X7310000Y19320000D02*
X8180000Y19320000D01*
X8180000Y19320000D02*
X9750000Y17750000D01*
X10310010Y16042745D02*
X10310010Y8864740D01*
X9750000Y16602755D02*
X10310010Y16042745D01*
X9750000Y17750000D02*
X9750000Y16602755D01*
G04 #@! TO.N,SENS1*
X10190000Y21860000D02*
X9510000Y21860000D01*
X9510000Y21860000D02*
X7310000Y21860000D01*
X14860000Y19250000D02*
X14930000Y19320000D01*
X13250000Y19250000D02*
X14860000Y19250000D01*
X14370000Y13239949D02*
X15880051Y14750000D01*
X14370000Y12250000D02*
X14370000Y13239949D01*
X15880051Y14750000D02*
X19250000Y14750000D01*
X19250000Y14750000D02*
X19750000Y15250000D01*
X17992002Y19320000D02*
X14930000Y19320000D01*
X19824990Y19315010D02*
X19820000Y19320000D01*
X19820000Y19320000D02*
X17992002Y19320000D01*
G04 #@! TO.N,Net-(R1-Pad1)*
X4250000Y9130000D02*
X5630000Y9130000D01*
X6750000Y10250000D02*
X6750000Y12250000D01*
X5630000Y9130000D02*
X6750000Y10250000D01*
X4750000Y12250000D02*
X6750000Y12250000D01*
X2649990Y25982747D02*
X2649990Y18750000D01*
X2649990Y18750000D02*
X2250000Y18350010D01*
X17130000Y21860000D02*
X18250000Y22980000D01*
X2250000Y18350010D02*
X2250000Y14750000D01*
X14930000Y21860000D02*
X17130000Y21860000D01*
X2250000Y14750000D02*
X4750000Y12250000D01*
X18250000Y22980000D02*
X18250000Y24167019D01*
X18250000Y24167019D02*
X14517008Y27900011D01*
X4567254Y27900011D02*
X2649990Y25982747D01*
X14517008Y27900011D02*
X4567254Y27900011D01*
G04 #@! TD*
D19*
G04 #@! TO.N,SENS1*
G36*
X20623000Y65447394D02*
X20623000Y14877000D01*
X19627000Y14877000D01*
X19627000Y25000000D01*
X19617333Y25048601D01*
X19589803Y25089803D01*
X14377000Y30302606D01*
X14377000Y65447394D01*
X17500000Y68570394D01*
X20623000Y65447394D01*
X20623000Y65447394D01*
G37*
X20623000Y65447394D02*
X20623000Y14877000D01*
X19627000Y14877000D01*
X19627000Y25000000D01*
X19617333Y25048601D01*
X19589803Y25089803D01*
X14377000Y30302606D01*
X14377000Y65447394D01*
X17500000Y68570394D01*
X20623000Y65447394D01*
G04 #@! TO.N,GND*
G36*
X6872040Y65448354D02*
X6211652Y29127011D01*
X4688097Y29127011D01*
X4567254Y29151048D01*
X4446411Y29127011D01*
X4446407Y29127011D01*
X4088502Y29055819D01*
X3682637Y28784628D01*
X3614184Y28682181D01*
X1867823Y26935819D01*
X1765373Y26867364D01*
X1494182Y26461498D01*
X1422990Y26103593D01*
X1422990Y26103590D01*
X1398953Y25982747D01*
X1422990Y25861904D01*
X1422991Y19273119D01*
X1365383Y19234627D01*
X1094192Y18828761D01*
X1023000Y18470856D01*
X1023000Y18470853D01*
X998963Y18350010D01*
X1023000Y18229167D01*
X1023001Y14870847D01*
X998963Y14750000D01*
X1094192Y14271250D01*
X1296929Y13967832D01*
X1296930Y13967831D01*
X1365384Y13865383D01*
X1467831Y13796930D01*
X3796930Y11467830D01*
X3865383Y11365383D01*
X4271248Y11094192D01*
X4629153Y11023000D01*
X4629157Y11023000D01*
X4750000Y10998963D01*
X4870843Y11023000D01*
X5523000Y11023000D01*
X5523000Y10758240D01*
X5121761Y10357000D01*
X4982196Y10357000D01*
X4806788Y10474204D01*
X4390544Y10557000D01*
X4109456Y10557000D01*
X3693212Y10474204D01*
X3221191Y10158809D01*
X2905796Y9686788D01*
X2795044Y9130000D01*
X2905796Y8573212D01*
X3221191Y8101191D01*
X3693212Y7785796D01*
X4109456Y7703000D01*
X4390544Y7703000D01*
X4806788Y7785796D01*
X4982196Y7903000D01*
X5509157Y7903000D01*
X5630000Y7878963D01*
X5750843Y7903000D01*
X5750847Y7903000D01*
X6108752Y7974192D01*
X6514617Y8245383D01*
X6583072Y8347833D01*
X7483000Y9247761D01*
X7483000Y5705354D01*
X7554192Y5347449D01*
X7706758Y5119118D01*
X7706758Y4727650D01*
X7763182Y4443989D01*
X7923863Y4203513D01*
X8164339Y4042832D01*
X8448000Y3986408D01*
X9972000Y3986408D01*
X10255661Y4042832D01*
X10496137Y4203513D01*
X10656818Y4443989D01*
X10657062Y4445218D01*
X10676491Y4416141D01*
X11169022Y4087043D01*
X11750000Y3971479D01*
X12330979Y4087043D01*
X12823509Y4416141D01*
X13152607Y4908671D01*
X13239000Y5342999D01*
X13239000Y6309402D01*
X13152607Y6743729D01*
X12823509Y7236259D01*
X12477000Y7467788D01*
X12477000Y7803907D01*
X12501037Y7924750D01*
X12477000Y8045593D01*
X12477000Y8045597D01*
X12405808Y8403502D01*
X12335698Y8508429D01*
X12203072Y8706919D01*
X12203068Y8706923D01*
X12134617Y8809367D01*
X12032172Y8877819D01*
X11537010Y9372980D01*
X11537010Y13873000D01*
X13317292Y13873000D01*
X13214192Y13718701D01*
X13143000Y13360796D01*
X13143000Y13360792D01*
X13118963Y13239949D01*
X13143000Y13119106D01*
X13143000Y12982196D01*
X13025796Y12806788D01*
X12915044Y12250000D01*
X13025796Y11693212D01*
X13341191Y11221191D01*
X13813212Y10905796D01*
X14229456Y10823000D01*
X14510544Y10823000D01*
X14926788Y10905796D01*
X15398809Y11221191D01*
X15714204Y11693212D01*
X15824956Y12250000D01*
X15714204Y12806788D01*
X15697331Y12832040D01*
X16388291Y13523000D01*
X19129157Y13523000D01*
X19250000Y13498963D01*
X19370843Y13523000D01*
X19370847Y13523000D01*
X19728752Y13594192D01*
X20134617Y13865383D01*
X20139707Y13873000D01*
X20873000Y13873000D01*
X20873000Y127000D01*
X127000Y127000D01*
X127000Y65447394D01*
X3500000Y68820394D01*
X6872040Y65448354D01*
X6872040Y65448354D01*
G37*
X6872040Y65448354D02*
X6211652Y29127011D01*
X4688097Y29127011D01*
X4567254Y29151048D01*
X4446411Y29127011D01*
X4446407Y29127011D01*
X4088502Y29055819D01*
X3682637Y28784628D01*
X3614184Y28682181D01*
X1867823Y26935819D01*
X1765373Y26867364D01*
X1494182Y26461498D01*
X1422990Y26103593D01*
X1422990Y26103590D01*
X1398953Y25982747D01*
X1422990Y25861904D01*
X1422991Y19273119D01*
X1365383Y19234627D01*
X1094192Y18828761D01*
X1023000Y18470856D01*
X1023000Y18470853D01*
X998963Y18350010D01*
X1023000Y18229167D01*
X1023001Y14870847D01*
X998963Y14750000D01*
X1094192Y14271250D01*
X1296929Y13967832D01*
X1296930Y13967831D01*
X1365384Y13865383D01*
X1467831Y13796930D01*
X3796930Y11467830D01*
X3865383Y11365383D01*
X4271248Y11094192D01*
X4629153Y11023000D01*
X4629157Y11023000D01*
X4750000Y10998963D01*
X4870843Y11023000D01*
X5523000Y11023000D01*
X5523000Y10758240D01*
X5121761Y10357000D01*
X4982196Y10357000D01*
X4806788Y10474204D01*
X4390544Y10557000D01*
X4109456Y10557000D01*
X3693212Y10474204D01*
X3221191Y10158809D01*
X2905796Y9686788D01*
X2795044Y9130000D01*
X2905796Y8573212D01*
X3221191Y8101191D01*
X3693212Y7785796D01*
X4109456Y7703000D01*
X4390544Y7703000D01*
X4806788Y7785796D01*
X4982196Y7903000D01*
X5509157Y7903000D01*
X5630000Y7878963D01*
X5750843Y7903000D01*
X5750847Y7903000D01*
X6108752Y7974192D01*
X6514617Y8245383D01*
X6583072Y8347833D01*
X7483000Y9247761D01*
X7483000Y5705354D01*
X7554192Y5347449D01*
X7706758Y5119118D01*
X7706758Y4727650D01*
X7763182Y4443989D01*
X7923863Y4203513D01*
X8164339Y4042832D01*
X8448000Y3986408D01*
X9972000Y3986408D01*
X10255661Y4042832D01*
X10496137Y4203513D01*
X10656818Y4443989D01*
X10657062Y4445218D01*
X10676491Y4416141D01*
X11169022Y4087043D01*
X11750000Y3971479D01*
X12330979Y4087043D01*
X12823509Y4416141D01*
X13152607Y4908671D01*
X13239000Y5342999D01*
X13239000Y6309402D01*
X13152607Y6743729D01*
X12823509Y7236259D01*
X12477000Y7467788D01*
X12477000Y7803907D01*
X12501037Y7924750D01*
X12477000Y8045593D01*
X12477000Y8045597D01*
X12405808Y8403502D01*
X12335698Y8508429D01*
X12203072Y8706919D01*
X12203068Y8706923D01*
X12134617Y8809367D01*
X12032172Y8877819D01*
X11537010Y9372980D01*
X11537010Y13873000D01*
X13317292Y13873000D01*
X13214192Y13718701D01*
X13143000Y13360796D01*
X13143000Y13360792D01*
X13118963Y13239949D01*
X13143000Y13119106D01*
X13143000Y12982196D01*
X13025796Y12806788D01*
X12915044Y12250000D01*
X13025796Y11693212D01*
X13341191Y11221191D01*
X13813212Y10905796D01*
X14229456Y10823000D01*
X14510544Y10823000D01*
X14926788Y10905796D01*
X15398809Y11221191D01*
X15714204Y11693212D01*
X15824956Y12250000D01*
X15714204Y12806788D01*
X15697331Y12832040D01*
X16388291Y13523000D01*
X19129157Y13523000D01*
X19250000Y13498963D01*
X19370843Y13523000D01*
X19370847Y13523000D01*
X19728752Y13594192D01*
X20134617Y13865383D01*
X20139707Y13873000D01*
X20873000Y13873000D01*
X20873000Y127000D01*
X127000Y127000D01*
X127000Y65447394D01*
X3500000Y68820394D01*
X6872040Y65448354D01*
G04 #@! TD*
M02*
