G75*
G70*
%OFA0B0*%
%FSLAX24Y24*%
%IPPOS*%
%LPD*%
%AMOC8*
5,1,8,0,0,1.08239X$1,22.5*
%
%ADD10C,0.0000*%
%ADD11C,0.0118*%
%ADD12C,0.0112*%
%ADD13C,0.0201*%
%ADD14C,0.0660*%
%ADD15C,0.0079*%
%ADD16R,0.0594X0.0594*%
%ADD17C,0.0700*%
%ADD18C,0.0094*%
%ADD19C,0.0083*%
%ADD20C,0.0081*%
%ADD21C,0.0180*%
%ADD22C,0.0600*%
%ADD23C,0.0080*%
%ADD24C,0.0594*%
%ADD25OC8,0.0520*%
%ADD26C,0.0594*%
%ADD27C,0.0144*%
%ADD28C,0.0260*%
%ADD29C,0.0669*%
%ADD30C,0.0240*%
%ADD31C,0.0278*%
%ADD32C,0.0320*%
%ADD33C,0.0160*%
%ADD34C,0.0640*%
D10*
X001590Y002576D02*
X026264Y002576D01*
X026543Y002691D02*
X027099Y003248D01*
X027215Y003526D02*
X027215Y015995D01*
X027099Y016274D02*
X026543Y016830D01*
X026264Y016946D02*
X001590Y016946D01*
X001312Y016830D02*
X000755Y016274D01*
X000640Y015995D02*
X000640Y003526D01*
X000755Y003248D02*
X001312Y002691D01*
X001311Y002690D02*
X001340Y002664D01*
X001371Y002641D01*
X001404Y002622D01*
X001439Y002605D01*
X001476Y002592D01*
X001513Y002583D01*
X001551Y002577D01*
X001590Y002575D01*
X000755Y003247D02*
X000729Y003276D01*
X000706Y003307D01*
X000687Y003340D01*
X000670Y003375D01*
X000657Y003412D01*
X000648Y003449D01*
X000642Y003487D01*
X000640Y003526D01*
X001388Y003954D02*
X001390Y004004D01*
X001396Y004054D01*
X001406Y004103D01*
X001420Y004151D01*
X001437Y004198D01*
X001458Y004243D01*
X001483Y004287D01*
X001511Y004328D01*
X001543Y004367D01*
X001577Y004404D01*
X001614Y004438D01*
X001654Y004468D01*
X001696Y004495D01*
X001740Y004519D01*
X001786Y004540D01*
X001833Y004556D01*
X001881Y004569D01*
X001931Y004578D01*
X001980Y004583D01*
X002031Y004584D01*
X002081Y004581D01*
X002130Y004574D01*
X002179Y004563D01*
X002227Y004548D01*
X002273Y004530D01*
X002318Y004508D01*
X002361Y004482D01*
X002402Y004453D01*
X002441Y004421D01*
X002477Y004386D01*
X002509Y004348D01*
X002539Y004308D01*
X002566Y004265D01*
X002589Y004221D01*
X002608Y004175D01*
X002624Y004127D01*
X002636Y004078D01*
X002644Y004029D01*
X002648Y003979D01*
X002648Y003929D01*
X002644Y003879D01*
X002636Y003830D01*
X002624Y003781D01*
X002608Y003733D01*
X002589Y003687D01*
X002566Y003643D01*
X002539Y003600D01*
X002509Y003560D01*
X002477Y003522D01*
X002441Y003487D01*
X002402Y003455D01*
X002361Y003426D01*
X002318Y003400D01*
X002273Y003378D01*
X002227Y003360D01*
X002179Y003345D01*
X002130Y003334D01*
X002081Y003327D01*
X002031Y003324D01*
X001980Y003325D01*
X001931Y003330D01*
X001881Y003339D01*
X001833Y003352D01*
X001786Y003368D01*
X001740Y003389D01*
X001696Y003413D01*
X001654Y003440D01*
X001614Y003470D01*
X001577Y003504D01*
X001543Y003541D01*
X001511Y003580D01*
X001483Y003621D01*
X001458Y003665D01*
X001437Y003710D01*
X001420Y003757D01*
X001406Y003805D01*
X001396Y003854D01*
X001390Y003904D01*
X001388Y003954D01*
X001388Y015568D02*
X001390Y015618D01*
X001396Y015668D01*
X001406Y015717D01*
X001420Y015765D01*
X001437Y015812D01*
X001458Y015857D01*
X001483Y015901D01*
X001511Y015942D01*
X001543Y015981D01*
X001577Y016018D01*
X001614Y016052D01*
X001654Y016082D01*
X001696Y016109D01*
X001740Y016133D01*
X001786Y016154D01*
X001833Y016170D01*
X001881Y016183D01*
X001931Y016192D01*
X001980Y016197D01*
X002031Y016198D01*
X002081Y016195D01*
X002130Y016188D01*
X002179Y016177D01*
X002227Y016162D01*
X002273Y016144D01*
X002318Y016122D01*
X002361Y016096D01*
X002402Y016067D01*
X002441Y016035D01*
X002477Y016000D01*
X002509Y015962D01*
X002539Y015922D01*
X002566Y015879D01*
X002589Y015835D01*
X002608Y015789D01*
X002624Y015741D01*
X002636Y015692D01*
X002644Y015643D01*
X002648Y015593D01*
X002648Y015543D01*
X002644Y015493D01*
X002636Y015444D01*
X002624Y015395D01*
X002608Y015347D01*
X002589Y015301D01*
X002566Y015257D01*
X002539Y015214D01*
X002509Y015174D01*
X002477Y015136D01*
X002441Y015101D01*
X002402Y015069D01*
X002361Y015040D01*
X002318Y015014D01*
X002273Y014992D01*
X002227Y014974D01*
X002179Y014959D01*
X002130Y014948D01*
X002081Y014941D01*
X002031Y014938D01*
X001980Y014939D01*
X001931Y014944D01*
X001881Y014953D01*
X001833Y014966D01*
X001786Y014982D01*
X001740Y015003D01*
X001696Y015027D01*
X001654Y015054D01*
X001614Y015084D01*
X001577Y015118D01*
X001543Y015155D01*
X001511Y015194D01*
X001483Y015235D01*
X001458Y015279D01*
X001437Y015324D01*
X001420Y015371D01*
X001406Y015419D01*
X001396Y015468D01*
X001390Y015518D01*
X001388Y015568D01*
X000640Y015995D02*
X000642Y016034D01*
X000648Y016072D01*
X000657Y016109D01*
X000670Y016146D01*
X000687Y016181D01*
X000706Y016214D01*
X000729Y016245D01*
X000755Y016274D01*
X001311Y016831D02*
X001340Y016857D01*
X001371Y016880D01*
X001404Y016899D01*
X001439Y016916D01*
X001476Y016929D01*
X001513Y016938D01*
X001551Y016944D01*
X001590Y016946D01*
X022904Y006326D02*
X022906Y006356D01*
X022912Y006386D01*
X022921Y006415D01*
X022934Y006442D01*
X022951Y006467D01*
X022970Y006490D01*
X022993Y006511D01*
X023018Y006528D01*
X023044Y006542D01*
X023073Y006552D01*
X023102Y006559D01*
X023132Y006562D01*
X023163Y006561D01*
X023193Y006556D01*
X023222Y006547D01*
X023249Y006535D01*
X023275Y006520D01*
X023299Y006501D01*
X023320Y006479D01*
X023338Y006455D01*
X023353Y006428D01*
X023364Y006400D01*
X023372Y006371D01*
X023376Y006341D01*
X023376Y006311D01*
X023372Y006281D01*
X023364Y006252D01*
X023353Y006224D01*
X023338Y006197D01*
X023320Y006173D01*
X023299Y006151D01*
X023275Y006132D01*
X023249Y006117D01*
X023222Y006105D01*
X023193Y006096D01*
X023163Y006091D01*
X023132Y006090D01*
X023102Y006093D01*
X023073Y006100D01*
X023044Y006110D01*
X023018Y006124D01*
X022993Y006141D01*
X022970Y006162D01*
X022951Y006185D01*
X022934Y006210D01*
X022921Y006237D01*
X022912Y006266D01*
X022906Y006296D01*
X022904Y006326D01*
X025207Y003954D02*
X025209Y004004D01*
X025215Y004054D01*
X025225Y004103D01*
X025239Y004151D01*
X025256Y004198D01*
X025277Y004243D01*
X025302Y004287D01*
X025330Y004328D01*
X025362Y004367D01*
X025396Y004404D01*
X025433Y004438D01*
X025473Y004468D01*
X025515Y004495D01*
X025559Y004519D01*
X025605Y004540D01*
X025652Y004556D01*
X025700Y004569D01*
X025750Y004578D01*
X025799Y004583D01*
X025850Y004584D01*
X025900Y004581D01*
X025949Y004574D01*
X025998Y004563D01*
X026046Y004548D01*
X026092Y004530D01*
X026137Y004508D01*
X026180Y004482D01*
X026221Y004453D01*
X026260Y004421D01*
X026296Y004386D01*
X026328Y004348D01*
X026358Y004308D01*
X026385Y004265D01*
X026408Y004221D01*
X026427Y004175D01*
X026443Y004127D01*
X026455Y004078D01*
X026463Y004029D01*
X026467Y003979D01*
X026467Y003929D01*
X026463Y003879D01*
X026455Y003830D01*
X026443Y003781D01*
X026427Y003733D01*
X026408Y003687D01*
X026385Y003643D01*
X026358Y003600D01*
X026328Y003560D01*
X026296Y003522D01*
X026260Y003487D01*
X026221Y003455D01*
X026180Y003426D01*
X026137Y003400D01*
X026092Y003378D01*
X026046Y003360D01*
X025998Y003345D01*
X025949Y003334D01*
X025900Y003327D01*
X025850Y003324D01*
X025799Y003325D01*
X025750Y003330D01*
X025700Y003339D01*
X025652Y003352D01*
X025605Y003368D01*
X025559Y003389D01*
X025515Y003413D01*
X025473Y003440D01*
X025433Y003470D01*
X025396Y003504D01*
X025362Y003541D01*
X025330Y003580D01*
X025302Y003621D01*
X025277Y003665D01*
X025256Y003710D01*
X025239Y003757D01*
X025225Y003805D01*
X025215Y003854D01*
X025209Y003904D01*
X025207Y003954D01*
X026264Y002575D02*
X026303Y002577D01*
X026341Y002583D01*
X026378Y002592D01*
X026415Y002605D01*
X026450Y002622D01*
X026483Y002641D01*
X026514Y002664D01*
X026543Y002690D01*
X027100Y003247D02*
X027126Y003276D01*
X027149Y003307D01*
X027168Y003340D01*
X027185Y003375D01*
X027198Y003412D01*
X027207Y003449D01*
X027213Y003487D01*
X027215Y003526D01*
X022904Y003326D02*
X022906Y003356D01*
X022912Y003386D01*
X022921Y003415D01*
X022934Y003442D01*
X022951Y003467D01*
X022970Y003490D01*
X022993Y003511D01*
X023018Y003528D01*
X023044Y003542D01*
X023073Y003552D01*
X023102Y003559D01*
X023132Y003562D01*
X023163Y003561D01*
X023193Y003556D01*
X023222Y003547D01*
X023249Y003535D01*
X023275Y003520D01*
X023299Y003501D01*
X023320Y003479D01*
X023338Y003455D01*
X023353Y003428D01*
X023364Y003400D01*
X023372Y003371D01*
X023376Y003341D01*
X023376Y003311D01*
X023372Y003281D01*
X023364Y003252D01*
X023353Y003224D01*
X023338Y003197D01*
X023320Y003173D01*
X023299Y003151D01*
X023275Y003132D01*
X023249Y003117D01*
X023222Y003105D01*
X023193Y003096D01*
X023163Y003091D01*
X023132Y003090D01*
X023102Y003093D01*
X023073Y003100D01*
X023044Y003110D01*
X023018Y003124D01*
X022993Y003141D01*
X022970Y003162D01*
X022951Y003185D01*
X022934Y003210D01*
X022921Y003237D01*
X022912Y003266D01*
X022906Y003296D01*
X022904Y003326D01*
X025207Y015568D02*
X025209Y015618D01*
X025215Y015668D01*
X025225Y015717D01*
X025239Y015765D01*
X025256Y015812D01*
X025277Y015857D01*
X025302Y015901D01*
X025330Y015942D01*
X025362Y015981D01*
X025396Y016018D01*
X025433Y016052D01*
X025473Y016082D01*
X025515Y016109D01*
X025559Y016133D01*
X025605Y016154D01*
X025652Y016170D01*
X025700Y016183D01*
X025750Y016192D01*
X025799Y016197D01*
X025850Y016198D01*
X025900Y016195D01*
X025949Y016188D01*
X025998Y016177D01*
X026046Y016162D01*
X026092Y016144D01*
X026137Y016122D01*
X026180Y016096D01*
X026221Y016067D01*
X026260Y016035D01*
X026296Y016000D01*
X026328Y015962D01*
X026358Y015922D01*
X026385Y015879D01*
X026408Y015835D01*
X026427Y015789D01*
X026443Y015741D01*
X026455Y015692D01*
X026463Y015643D01*
X026467Y015593D01*
X026467Y015543D01*
X026463Y015493D01*
X026455Y015444D01*
X026443Y015395D01*
X026427Y015347D01*
X026408Y015301D01*
X026385Y015257D01*
X026358Y015214D01*
X026328Y015174D01*
X026296Y015136D01*
X026260Y015101D01*
X026221Y015069D01*
X026180Y015040D01*
X026137Y015014D01*
X026092Y014992D01*
X026046Y014974D01*
X025998Y014959D01*
X025949Y014948D01*
X025900Y014941D01*
X025850Y014938D01*
X025799Y014939D01*
X025750Y014944D01*
X025700Y014953D01*
X025652Y014966D01*
X025605Y014982D01*
X025559Y015003D01*
X025515Y015027D01*
X025473Y015054D01*
X025433Y015084D01*
X025396Y015118D01*
X025362Y015155D01*
X025330Y015194D01*
X025302Y015235D01*
X025277Y015279D01*
X025256Y015324D01*
X025239Y015371D01*
X025225Y015419D01*
X025215Y015468D01*
X025209Y015518D01*
X025207Y015568D01*
X026264Y016946D02*
X026303Y016944D01*
X026341Y016938D01*
X026378Y016929D01*
X026415Y016916D01*
X026450Y016899D01*
X026483Y016880D01*
X026514Y016857D01*
X026543Y016831D01*
X027100Y016274D02*
X027126Y016245D01*
X027149Y016214D01*
X027168Y016181D01*
X027185Y016146D01*
X027198Y016109D01*
X027207Y016072D01*
X027213Y016034D01*
X027215Y015995D01*
D11*
X014857Y013589D02*
X014857Y013313D01*
X014857Y013589D02*
X015289Y013589D01*
X015289Y013313D01*
X014857Y013313D01*
X014857Y013430D02*
X015289Y013430D01*
X015289Y013547D02*
X014857Y013547D01*
X013991Y013687D02*
X013991Y013963D01*
X014423Y013963D01*
X014423Y013687D01*
X013991Y013687D01*
X013991Y013804D02*
X014423Y013804D01*
X014423Y013921D02*
X013991Y013921D01*
X013991Y013215D02*
X013991Y012939D01*
X013991Y013215D02*
X014423Y013215D01*
X014423Y012939D01*
X013991Y012939D01*
X013991Y013056D02*
X014423Y013056D01*
X014423Y013173D02*
X013991Y013173D01*
X011857Y013313D02*
X011857Y013589D01*
X012289Y013589D01*
X012289Y013313D01*
X011857Y013313D01*
X011857Y013430D02*
X012289Y013430D01*
X012289Y013547D02*
X011857Y013547D01*
X010991Y013687D02*
X010991Y013963D01*
X011423Y013963D01*
X011423Y013687D01*
X010991Y013687D01*
X010991Y013804D02*
X011423Y013804D01*
X011423Y013921D02*
X010991Y013921D01*
X010991Y013215D02*
X010991Y012939D01*
X010991Y013215D02*
X011423Y013215D01*
X011423Y012939D01*
X010991Y012939D01*
X010991Y013056D02*
X011423Y013056D01*
X011423Y013173D02*
X010991Y013173D01*
X008857Y013313D02*
X008857Y013589D01*
X009289Y013589D01*
X009289Y013313D01*
X008857Y013313D01*
X008857Y013430D02*
X009289Y013430D01*
X009289Y013547D02*
X008857Y013547D01*
X007991Y013687D02*
X007991Y013963D01*
X008423Y013963D01*
X008423Y013687D01*
X007991Y013687D01*
X007991Y013804D02*
X008423Y013804D01*
X008423Y013921D02*
X007991Y013921D01*
X007991Y013215D02*
X007991Y012939D01*
X007991Y013215D02*
X008423Y013215D01*
X008423Y012939D01*
X007991Y012939D01*
X007991Y013056D02*
X008423Y013056D01*
X008423Y013173D02*
X007991Y013173D01*
X005369Y013143D02*
X005093Y013143D01*
X005093Y014009D01*
X005369Y014009D01*
X005369Y013143D01*
X005369Y013260D02*
X005093Y013260D01*
X005093Y013377D02*
X005369Y013377D01*
X005369Y013494D02*
X005093Y013494D01*
X005093Y013611D02*
X005369Y013611D01*
X005369Y013728D02*
X005093Y013728D01*
X005093Y013845D02*
X005369Y013845D01*
X005369Y013962D02*
X005093Y013962D01*
X004187Y013143D02*
X003911Y013143D01*
X003911Y014009D01*
X004187Y014009D01*
X004187Y013143D01*
X004187Y013260D02*
X003911Y013260D01*
X003911Y013377D02*
X004187Y013377D01*
X004187Y013494D02*
X003911Y013494D01*
X003911Y013611D02*
X004187Y013611D01*
X004187Y013728D02*
X003911Y013728D01*
X003911Y013845D02*
X004187Y013845D01*
X004187Y013962D02*
X003911Y013962D01*
X012832Y010179D02*
X012832Y009903D01*
X012832Y010179D02*
X013698Y010179D01*
X013698Y009903D01*
X012832Y009903D01*
X012832Y010020D02*
X013698Y010020D01*
X013698Y010137D02*
X012832Y010137D01*
X012832Y008998D02*
X012832Y008722D01*
X012832Y008998D02*
X013698Y008998D01*
X013698Y008722D01*
X012832Y008722D01*
X012832Y008839D02*
X013698Y008839D01*
X013698Y008956D02*
X012832Y008956D01*
D12*
X012694Y012457D02*
X012956Y012457D01*
X012956Y012195D01*
X012694Y012195D01*
X012694Y012457D01*
X012694Y012306D02*
X012956Y012306D01*
X012956Y012417D02*
X012694Y012417D01*
X013324Y012457D02*
X013586Y012457D01*
X013586Y012195D01*
X013324Y012195D01*
X013324Y012457D01*
X013324Y012306D02*
X013586Y012306D01*
X013586Y012417D02*
X013324Y012417D01*
X013324Y013207D02*
X013586Y013207D01*
X013586Y012945D01*
X013324Y012945D01*
X013324Y013207D01*
X013324Y013056D02*
X013586Y013056D01*
X013586Y013167D02*
X013324Y013167D01*
X012956Y013207D02*
X012694Y013207D01*
X012956Y013207D02*
X012956Y012945D01*
X012694Y012945D01*
X012694Y013207D01*
X012694Y013056D02*
X012956Y013056D01*
X012956Y013167D02*
X012694Y013167D01*
X012694Y013695D02*
X012956Y013695D01*
X012694Y013695D02*
X012694Y013957D01*
X012956Y013957D01*
X012956Y013695D01*
X012956Y013806D02*
X012694Y013806D01*
X012694Y013917D02*
X012956Y013917D01*
X013324Y013695D02*
X013586Y013695D01*
X013324Y013695D02*
X013324Y013957D01*
X013586Y013957D01*
X013586Y013695D01*
X013586Y013806D02*
X013324Y013806D01*
X013324Y013917D02*
X013586Y013917D01*
X010586Y013695D02*
X010324Y013695D01*
X010324Y013957D01*
X010586Y013957D01*
X010586Y013695D01*
X010586Y013806D02*
X010324Y013806D01*
X010324Y013917D02*
X010586Y013917D01*
X009956Y013695D02*
X009694Y013695D01*
X009694Y013957D01*
X009956Y013957D01*
X009956Y013695D01*
X009956Y013806D02*
X009694Y013806D01*
X009694Y013917D02*
X009956Y013917D01*
X009956Y013207D02*
X009694Y013207D01*
X009956Y013207D02*
X009956Y012945D01*
X009694Y012945D01*
X009694Y013207D01*
X009694Y013056D02*
X009956Y013056D01*
X009956Y013167D02*
X009694Y013167D01*
X010324Y013207D02*
X010586Y013207D01*
X010586Y012945D01*
X010324Y012945D01*
X010324Y013207D01*
X010324Y013056D02*
X010586Y013056D01*
X010586Y013167D02*
X010324Y013167D01*
X010324Y012457D02*
X010586Y012457D01*
X010586Y012195D01*
X010324Y012195D01*
X010324Y012457D01*
X010324Y012306D02*
X010586Y012306D01*
X010586Y012417D02*
X010324Y012417D01*
X009956Y012457D02*
X009694Y012457D01*
X009956Y012457D02*
X009956Y012195D01*
X009694Y012195D01*
X009694Y012457D01*
X009694Y012306D02*
X009956Y012306D01*
X009956Y012417D02*
X009694Y012417D01*
X007586Y012457D02*
X007324Y012457D01*
X007586Y012457D02*
X007586Y012195D01*
X007324Y012195D01*
X007324Y012457D01*
X007324Y012306D02*
X007586Y012306D01*
X007586Y012417D02*
X007324Y012417D01*
X006956Y012457D02*
X006694Y012457D01*
X006956Y012457D02*
X006956Y012195D01*
X006694Y012195D01*
X006694Y012457D01*
X006694Y012306D02*
X006956Y012306D01*
X006956Y012417D02*
X006694Y012417D01*
X006694Y013207D02*
X006956Y013207D01*
X006956Y012945D01*
X006694Y012945D01*
X006694Y013207D01*
X006694Y013056D02*
X006956Y013056D01*
X006956Y013167D02*
X006694Y013167D01*
X006694Y013695D02*
X006956Y013695D01*
X006694Y013695D02*
X006694Y013957D01*
X006956Y013957D01*
X006956Y013695D01*
X006956Y013806D02*
X006694Y013806D01*
X006694Y013917D02*
X006956Y013917D01*
X007324Y013695D02*
X007586Y013695D01*
X007324Y013695D02*
X007324Y013957D01*
X007586Y013957D01*
X007586Y013695D01*
X007586Y013806D02*
X007324Y013806D01*
X007324Y013917D02*
X007586Y013917D01*
X007586Y013207D02*
X007324Y013207D01*
X007586Y013207D02*
X007586Y012945D01*
X007324Y012945D01*
X007324Y013207D01*
X007324Y013056D02*
X007586Y013056D01*
X007586Y013167D02*
X007324Y013167D01*
X002009Y013147D02*
X002009Y012885D01*
X002009Y013147D02*
X002271Y013147D01*
X002271Y012885D01*
X002009Y012885D01*
X002009Y012996D02*
X002271Y012996D01*
X002271Y013107D02*
X002009Y013107D01*
X002009Y012517D02*
X002009Y012255D01*
X002009Y012517D02*
X002271Y012517D01*
X002271Y012255D01*
X002009Y012255D01*
X002009Y012366D02*
X002271Y012366D01*
X002271Y012477D02*
X002009Y012477D01*
X016694Y013757D02*
X016956Y013757D01*
X016694Y013757D02*
X016694Y014019D01*
X016956Y014019D01*
X016956Y013757D01*
X016956Y013868D02*
X016694Y013868D01*
X016694Y013979D02*
X016956Y013979D01*
X017324Y013757D02*
X017586Y013757D01*
X017324Y013757D02*
X017324Y014019D01*
X017586Y014019D01*
X017586Y013757D01*
X017586Y013868D02*
X017324Y013868D01*
X017324Y013979D02*
X017586Y013979D01*
X017586Y014707D02*
X017324Y014707D01*
X017586Y014707D02*
X017586Y014445D01*
X017324Y014445D01*
X017324Y014707D01*
X017324Y014556D02*
X017586Y014556D01*
X017586Y014667D02*
X017324Y014667D01*
X016956Y014707D02*
X016694Y014707D01*
X016956Y014707D02*
X016956Y014445D01*
X016694Y014445D01*
X016694Y014707D01*
X016694Y014556D02*
X016956Y014556D01*
X016956Y014667D02*
X016694Y014667D01*
X018694Y014707D02*
X018956Y014707D01*
X018956Y014445D01*
X018694Y014445D01*
X018694Y014707D01*
X018694Y014556D02*
X018956Y014556D01*
X018956Y014667D02*
X018694Y014667D01*
X019324Y014707D02*
X019586Y014707D01*
X019586Y014445D01*
X019324Y014445D01*
X019324Y014707D01*
X019324Y014556D02*
X019586Y014556D01*
X019586Y014667D02*
X019324Y014667D01*
X024521Y013647D02*
X024521Y013385D01*
X024259Y013385D01*
X024259Y013647D01*
X024521Y013647D01*
X024521Y013496D02*
X024259Y013496D01*
X024259Y013607D02*
X024521Y013607D01*
X025146Y013647D02*
X025146Y013385D01*
X024884Y013385D01*
X024884Y013647D01*
X025146Y013647D01*
X025146Y013496D02*
X024884Y013496D01*
X024884Y013607D02*
X025146Y013607D01*
X025509Y013647D02*
X025509Y013385D01*
X025509Y013647D02*
X025771Y013647D01*
X025771Y013385D01*
X025509Y013385D01*
X025509Y013496D02*
X025771Y013496D01*
X025771Y013607D02*
X025509Y013607D01*
X025509Y013017D02*
X025509Y012755D01*
X025509Y013017D02*
X025771Y013017D01*
X025771Y012755D01*
X025509Y012755D01*
X025509Y012866D02*
X025771Y012866D01*
X025771Y012977D02*
X025509Y012977D01*
X025146Y013017D02*
X025146Y012755D01*
X024884Y012755D01*
X024884Y013017D01*
X025146Y013017D01*
X025146Y012866D02*
X024884Y012866D01*
X024884Y012977D02*
X025146Y012977D01*
X024521Y013017D02*
X024521Y012755D01*
X024259Y012755D01*
X024259Y013017D01*
X024521Y013017D01*
X024521Y012866D02*
X024259Y012866D01*
X024259Y012977D02*
X024521Y012977D01*
X024336Y009070D02*
X024074Y009070D01*
X024074Y009332D01*
X024336Y009332D01*
X024336Y009070D01*
X024336Y009181D02*
X024074Y009181D01*
X024074Y009292D02*
X024336Y009292D01*
X023706Y009070D02*
X023444Y009070D01*
X023444Y009332D01*
X023706Y009332D01*
X023706Y009070D01*
X023706Y009181D02*
X023444Y009181D01*
X023444Y009292D02*
X023706Y009292D01*
X021086Y006320D02*
X020824Y006320D01*
X020824Y006582D01*
X021086Y006582D01*
X021086Y006320D01*
X021086Y006431D02*
X020824Y006431D01*
X020824Y006542D02*
X021086Y006542D01*
X020456Y006320D02*
X020194Y006320D01*
X020194Y006582D01*
X020456Y006582D01*
X020456Y006320D01*
X020456Y006431D02*
X020194Y006431D01*
X020194Y006542D02*
X020456Y006542D01*
D13*
X015201Y014342D02*
X014693Y014342D01*
X014693Y014810D01*
X015201Y014810D01*
X015201Y014342D01*
X015201Y014542D02*
X014693Y014542D01*
X014693Y014742D02*
X015201Y014742D01*
X013587Y014342D02*
X013079Y014342D01*
X013079Y014810D01*
X013587Y014810D01*
X013587Y014342D01*
X013587Y014542D02*
X013079Y014542D01*
X013079Y014742D02*
X013587Y014742D01*
X012201Y014342D02*
X011693Y014342D01*
X011693Y014810D01*
X012201Y014810D01*
X012201Y014342D01*
X012201Y014542D02*
X011693Y014542D01*
X011693Y014742D02*
X012201Y014742D01*
X010587Y014342D02*
X010079Y014342D01*
X010079Y014810D01*
X010587Y014810D01*
X010587Y014342D01*
X010587Y014542D02*
X010079Y014542D01*
X010079Y014742D02*
X010587Y014742D01*
X009201Y014342D02*
X008693Y014342D01*
X008693Y014810D01*
X009201Y014810D01*
X009201Y014342D01*
X009201Y014542D02*
X008693Y014542D01*
X008693Y014742D02*
X009201Y014742D01*
X007587Y014342D02*
X007079Y014342D01*
X007079Y014810D01*
X007587Y014810D01*
X007587Y014342D01*
X007587Y014542D02*
X007079Y014542D01*
X007079Y014742D02*
X007587Y014742D01*
D14*
X014640Y009076D03*
X015640Y009076D03*
X016640Y009076D03*
X017640Y009076D03*
X017640Y006076D03*
X016640Y006076D03*
X015640Y006076D03*
X014640Y006076D03*
X014640Y004076D03*
X013640Y004076D03*
D15*
X019467Y007675D02*
X019467Y008097D01*
X019609Y008097D01*
X019609Y007675D01*
X019467Y007675D01*
X019467Y007753D02*
X019609Y007753D01*
X019609Y007831D02*
X019467Y007831D01*
X019467Y007909D02*
X019609Y007909D01*
X019609Y007987D02*
X019467Y007987D01*
X019467Y008065D02*
X019609Y008065D01*
X019782Y008097D02*
X019782Y007675D01*
X019782Y008097D02*
X019924Y008097D01*
X019924Y007675D01*
X019782Y007675D01*
X019782Y007753D02*
X019924Y007753D01*
X019924Y007831D02*
X019782Y007831D01*
X019782Y007909D02*
X019924Y007909D01*
X019924Y007987D02*
X019782Y007987D01*
X019782Y008065D02*
X019924Y008065D01*
X020097Y008097D02*
X020097Y007675D01*
X020097Y008097D02*
X020239Y008097D01*
X020239Y007675D01*
X020097Y007675D01*
X020097Y007753D02*
X020239Y007753D01*
X020239Y007831D02*
X020097Y007831D01*
X020097Y007909D02*
X020239Y007909D01*
X020239Y007987D02*
X020097Y007987D01*
X020097Y008065D02*
X020239Y008065D01*
X020412Y008097D02*
X020412Y007675D01*
X020412Y008097D02*
X020554Y008097D01*
X020554Y007675D01*
X020412Y007675D01*
X020412Y007753D02*
X020554Y007753D01*
X020554Y007831D02*
X020412Y007831D01*
X020412Y007909D02*
X020554Y007909D01*
X020554Y007987D02*
X020412Y007987D01*
X020412Y008065D02*
X020554Y008065D01*
X020726Y008097D02*
X020726Y007675D01*
X020726Y008097D02*
X020868Y008097D01*
X020868Y007675D01*
X020726Y007675D01*
X020726Y007753D02*
X020868Y007753D01*
X020868Y007831D02*
X020726Y007831D01*
X020726Y007909D02*
X020868Y007909D01*
X020868Y007987D02*
X020726Y007987D01*
X020726Y008065D02*
X020868Y008065D01*
X021041Y008097D02*
X021041Y007675D01*
X021041Y008097D02*
X021183Y008097D01*
X021183Y007675D01*
X021041Y007675D01*
X021041Y007753D02*
X021183Y007753D01*
X021183Y007831D02*
X021041Y007831D01*
X021041Y007909D02*
X021183Y007909D01*
X021183Y007987D02*
X021041Y007987D01*
X021041Y008065D02*
X021183Y008065D01*
X021356Y008097D02*
X021356Y007675D01*
X021356Y008097D02*
X021498Y008097D01*
X021498Y007675D01*
X021356Y007675D01*
X021356Y007753D02*
X021498Y007753D01*
X021498Y007831D02*
X021356Y007831D01*
X021356Y007909D02*
X021498Y007909D01*
X021498Y007987D02*
X021356Y007987D01*
X021356Y008065D02*
X021498Y008065D01*
X021671Y008097D02*
X021671Y007675D01*
X021671Y008097D02*
X021813Y008097D01*
X021813Y007675D01*
X021671Y007675D01*
X021671Y007753D02*
X021813Y007753D01*
X021813Y007831D02*
X021671Y007831D01*
X021671Y007909D02*
X021813Y007909D01*
X021813Y007987D02*
X021671Y007987D01*
X021671Y008065D02*
X021813Y008065D01*
X022119Y008402D02*
X022119Y008544D01*
X022541Y008544D01*
X022541Y008402D01*
X022119Y008402D01*
X022119Y008480D02*
X022541Y008480D01*
X022119Y008717D02*
X022119Y008859D01*
X022541Y008859D01*
X022541Y008717D01*
X022119Y008717D01*
X022119Y008795D02*
X022541Y008795D01*
X022119Y009032D02*
X022119Y009174D01*
X022541Y009174D01*
X022541Y009032D01*
X022119Y009032D01*
X022119Y009110D02*
X022541Y009110D01*
X022119Y009347D02*
X022119Y009489D01*
X022541Y009489D01*
X022541Y009347D01*
X022119Y009347D01*
X022119Y009425D02*
X022541Y009425D01*
X022119Y009662D02*
X022119Y009804D01*
X022541Y009804D01*
X022541Y009662D01*
X022119Y009662D01*
X022119Y009740D02*
X022541Y009740D01*
X022119Y009977D02*
X022119Y010119D01*
X022541Y010119D01*
X022541Y009977D01*
X022119Y009977D01*
X022119Y010055D02*
X022541Y010055D01*
X022119Y010292D02*
X022119Y010434D01*
X022541Y010434D01*
X022541Y010292D01*
X022119Y010292D01*
X022119Y010370D02*
X022541Y010370D01*
X022119Y010607D02*
X022119Y010749D01*
X022541Y010749D01*
X022541Y010607D01*
X022119Y010607D01*
X022119Y010685D02*
X022541Y010685D01*
X021671Y011055D02*
X021671Y011477D01*
X021813Y011477D01*
X021813Y011055D01*
X021671Y011055D01*
X021671Y011133D02*
X021813Y011133D01*
X021813Y011211D02*
X021671Y011211D01*
X021671Y011289D02*
X021813Y011289D01*
X021813Y011367D02*
X021671Y011367D01*
X021671Y011445D02*
X021813Y011445D01*
X021356Y011477D02*
X021356Y011055D01*
X021356Y011477D02*
X021498Y011477D01*
X021498Y011055D01*
X021356Y011055D01*
X021356Y011133D02*
X021498Y011133D01*
X021498Y011211D02*
X021356Y011211D01*
X021356Y011289D02*
X021498Y011289D01*
X021498Y011367D02*
X021356Y011367D01*
X021356Y011445D02*
X021498Y011445D01*
X021041Y011477D02*
X021041Y011055D01*
X021041Y011477D02*
X021183Y011477D01*
X021183Y011055D01*
X021041Y011055D01*
X021041Y011133D02*
X021183Y011133D01*
X021183Y011211D02*
X021041Y011211D01*
X021041Y011289D02*
X021183Y011289D01*
X021183Y011367D02*
X021041Y011367D01*
X021041Y011445D02*
X021183Y011445D01*
X020726Y011477D02*
X020726Y011055D01*
X020726Y011477D02*
X020868Y011477D01*
X020868Y011055D01*
X020726Y011055D01*
X020726Y011133D02*
X020868Y011133D01*
X020868Y011211D02*
X020726Y011211D01*
X020726Y011289D02*
X020868Y011289D01*
X020868Y011367D02*
X020726Y011367D01*
X020726Y011445D02*
X020868Y011445D01*
X020412Y011477D02*
X020412Y011055D01*
X020412Y011477D02*
X020554Y011477D01*
X020554Y011055D01*
X020412Y011055D01*
X020412Y011133D02*
X020554Y011133D01*
X020554Y011211D02*
X020412Y011211D01*
X020412Y011289D02*
X020554Y011289D01*
X020554Y011367D02*
X020412Y011367D01*
X020412Y011445D02*
X020554Y011445D01*
X020097Y011477D02*
X020097Y011055D01*
X020097Y011477D02*
X020239Y011477D01*
X020239Y011055D01*
X020097Y011055D01*
X020097Y011133D02*
X020239Y011133D01*
X020239Y011211D02*
X020097Y011211D01*
X020097Y011289D02*
X020239Y011289D01*
X020239Y011367D02*
X020097Y011367D01*
X020097Y011445D02*
X020239Y011445D01*
X019782Y011477D02*
X019782Y011055D01*
X019782Y011477D02*
X019924Y011477D01*
X019924Y011055D01*
X019782Y011055D01*
X019782Y011133D02*
X019924Y011133D01*
X019924Y011211D02*
X019782Y011211D01*
X019782Y011289D02*
X019924Y011289D01*
X019924Y011367D02*
X019782Y011367D01*
X019782Y011445D02*
X019924Y011445D01*
X019467Y011477D02*
X019467Y011055D01*
X019467Y011477D02*
X019609Y011477D01*
X019609Y011055D01*
X019467Y011055D01*
X019467Y011133D02*
X019609Y011133D01*
X019609Y011211D02*
X019467Y011211D01*
X019467Y011289D02*
X019609Y011289D01*
X019609Y011367D02*
X019467Y011367D01*
X019467Y011445D02*
X019609Y011445D01*
X018739Y010749D02*
X018739Y010607D01*
X018739Y010749D02*
X019161Y010749D01*
X019161Y010607D01*
X018739Y010607D01*
X018739Y010685D02*
X019161Y010685D01*
X018739Y010434D02*
X018739Y010292D01*
X018739Y010434D02*
X019161Y010434D01*
X019161Y010292D01*
X018739Y010292D01*
X018739Y010370D02*
X019161Y010370D01*
X018739Y010119D02*
X018739Y009977D01*
X018739Y010119D02*
X019161Y010119D01*
X019161Y009977D01*
X018739Y009977D01*
X018739Y010055D02*
X019161Y010055D01*
X018739Y009804D02*
X018739Y009662D01*
X018739Y009804D02*
X019161Y009804D01*
X019161Y009662D01*
X018739Y009662D01*
X018739Y009740D02*
X019161Y009740D01*
X018739Y009489D02*
X018739Y009347D01*
X018739Y009489D02*
X019161Y009489D01*
X019161Y009347D01*
X018739Y009347D01*
X018739Y009425D02*
X019161Y009425D01*
X018739Y009174D02*
X018739Y009032D01*
X018739Y009174D02*
X019161Y009174D01*
X019161Y009032D01*
X018739Y009032D01*
X018739Y009110D02*
X019161Y009110D01*
X018739Y008859D02*
X018739Y008717D01*
X018739Y008859D02*
X019161Y008859D01*
X019161Y008717D01*
X018739Y008717D01*
X018739Y008795D02*
X019161Y008795D01*
X018739Y008544D02*
X018739Y008402D01*
X018739Y008544D02*
X019161Y008544D01*
X019161Y008402D01*
X018739Y008402D01*
X018739Y008480D02*
X019161Y008480D01*
D16*
X026515Y012576D03*
D17*
X026515Y011576D03*
X026515Y010576D03*
X026515Y009576D03*
X026515Y008576D03*
X026515Y007576D03*
D18*
X024295Y009936D02*
X024075Y009936D01*
X024295Y009936D02*
X024295Y009716D01*
X024075Y009716D01*
X024075Y009936D01*
X024075Y009809D02*
X024295Y009809D01*
X024295Y009902D02*
X024075Y009902D01*
X023705Y009936D02*
X023485Y009936D01*
X023705Y009936D02*
X023705Y009716D01*
X023485Y009716D01*
X023485Y009936D01*
X023485Y009809D02*
X023705Y009809D01*
X023705Y009902D02*
X023485Y009902D01*
X021045Y011966D02*
X020825Y011966D01*
X020825Y012186D01*
X021045Y012186D01*
X021045Y011966D01*
X021045Y012059D02*
X020825Y012059D01*
X020825Y012152D02*
X021045Y012152D01*
X020455Y011966D02*
X020235Y011966D01*
X020235Y012186D01*
X020455Y012186D01*
X020455Y011966D01*
X020455Y012059D02*
X020235Y012059D01*
X020235Y012152D02*
X020455Y012152D01*
X017325Y013153D02*
X017325Y013373D01*
X017545Y013373D01*
X017545Y013153D01*
X017325Y013153D01*
X017325Y013246D02*
X017545Y013246D01*
X017545Y013339D02*
X017325Y013339D01*
X016735Y013373D02*
X016735Y013153D01*
X016735Y013373D02*
X016955Y013373D01*
X016955Y013153D01*
X016735Y013153D01*
X016735Y013246D02*
X016955Y013246D01*
X016955Y013339D02*
X016735Y013339D01*
X014575Y012436D02*
X014575Y012216D01*
X014575Y012436D02*
X014795Y012436D01*
X014795Y012216D01*
X014575Y012216D01*
X014575Y012309D02*
X014795Y012309D01*
X014795Y012402D02*
X014575Y012402D01*
X013985Y012436D02*
X013985Y012216D01*
X013985Y012436D02*
X014205Y012436D01*
X014205Y012216D01*
X013985Y012216D01*
X013985Y012309D02*
X014205Y012309D01*
X014205Y012402D02*
X013985Y012402D01*
X011575Y012436D02*
X011575Y012216D01*
X011575Y012436D02*
X011795Y012436D01*
X011795Y012216D01*
X011575Y012216D01*
X011575Y012309D02*
X011795Y012309D01*
X011795Y012402D02*
X011575Y012402D01*
X010985Y012436D02*
X010985Y012216D01*
X010985Y012436D02*
X011205Y012436D01*
X011205Y012216D01*
X010985Y012216D01*
X010985Y012309D02*
X011205Y012309D01*
X011205Y012402D02*
X010985Y012402D01*
X008575Y012436D02*
X008575Y012216D01*
X008575Y012436D02*
X008795Y012436D01*
X008795Y012216D01*
X008575Y012216D01*
X008575Y012309D02*
X008795Y012309D01*
X008795Y012402D02*
X008575Y012402D01*
X007985Y012436D02*
X007985Y012216D01*
X007985Y012436D02*
X008205Y012436D01*
X008205Y012216D01*
X007985Y012216D01*
X007985Y012309D02*
X008205Y012309D01*
X008205Y012402D02*
X007985Y012402D01*
X003170Y011466D02*
X002950Y011466D01*
X002950Y011686D01*
X003170Y011686D01*
X003170Y011466D01*
X003170Y011559D02*
X002950Y011559D01*
X002950Y011652D02*
X003170Y011652D01*
X002580Y011466D02*
X002360Y011466D01*
X002360Y011686D01*
X002580Y011686D01*
X002580Y011466D01*
X002580Y011559D02*
X002360Y011559D01*
X002360Y011652D02*
X002580Y011652D01*
X001625Y012515D02*
X001405Y012515D01*
X001625Y012515D02*
X001625Y012295D01*
X001405Y012295D01*
X001405Y012515D01*
X001405Y012388D02*
X001625Y012388D01*
X001625Y012481D02*
X001405Y012481D01*
X001405Y013106D02*
X001625Y013106D01*
X001625Y012886D01*
X001405Y012886D01*
X001405Y013106D01*
X001405Y012979D02*
X001625Y012979D01*
X001625Y013072D02*
X001405Y013072D01*
X020235Y006966D02*
X020455Y006966D01*
X020235Y006966D02*
X020235Y007186D01*
X020455Y007186D01*
X020455Y006966D01*
X020455Y007059D02*
X020235Y007059D01*
X020235Y007152D02*
X020455Y007152D01*
X020825Y006966D02*
X021045Y006966D01*
X020825Y006966D02*
X020825Y007186D01*
X021045Y007186D01*
X021045Y006966D01*
X021045Y007059D02*
X020825Y007059D01*
X020825Y007152D02*
X021045Y007152D01*
D19*
X018531Y011880D02*
X018668Y012017D01*
X019081Y011604D01*
X018944Y011467D01*
X018531Y011880D01*
X018862Y011549D02*
X019026Y011549D01*
X019054Y011631D02*
X018780Y011631D01*
X018698Y011713D02*
X018972Y011713D01*
X018890Y011795D02*
X018616Y011795D01*
X018534Y011877D02*
X018808Y011877D01*
X018726Y011959D02*
X018610Y011959D01*
X018865Y012214D02*
X019002Y012351D01*
X019415Y011938D01*
X019278Y011801D01*
X018865Y012214D01*
X019196Y011883D02*
X019360Y011883D01*
X019388Y011965D02*
X019114Y011965D01*
X019032Y012047D02*
X019306Y012047D01*
X019224Y012129D02*
X018950Y012129D01*
X018868Y012211D02*
X019142Y012211D01*
X019060Y012293D02*
X018944Y012293D01*
X019199Y012548D02*
X019336Y012685D01*
X019749Y012272D01*
X019612Y012135D01*
X019199Y012548D01*
X019530Y012217D02*
X019694Y012217D01*
X019722Y012299D02*
X019448Y012299D01*
X019366Y012381D02*
X019640Y012381D01*
X019558Y012463D02*
X019284Y012463D01*
X019202Y012545D02*
X019476Y012545D01*
X019394Y012627D02*
X019278Y012627D01*
D20*
X023482Y011356D02*
X023482Y011240D01*
X023306Y011240D01*
X023306Y011356D01*
X023482Y011356D01*
X023482Y011320D02*
X023306Y011320D01*
X023482Y011041D02*
X023482Y010925D01*
X023306Y010925D01*
X023306Y011041D01*
X023482Y011041D01*
X023482Y011005D02*
X023306Y011005D01*
X023482Y010726D02*
X023482Y010610D01*
X023306Y010610D01*
X023306Y010726D01*
X023482Y010726D01*
X023482Y010690D02*
X023306Y010690D01*
X023482Y010411D02*
X023482Y010295D01*
X023306Y010295D01*
X023306Y010411D01*
X023482Y010411D01*
X023482Y010375D02*
X023306Y010375D01*
X023974Y010411D02*
X023974Y010295D01*
X023798Y010295D01*
X023798Y010411D01*
X023974Y010411D01*
X023974Y010375D02*
X023798Y010375D01*
X023974Y010610D02*
X023974Y010726D01*
X023974Y010610D02*
X023798Y010610D01*
X023798Y010726D01*
X023974Y010726D01*
X023974Y010690D02*
X023798Y010690D01*
X023974Y010925D02*
X023974Y011041D01*
X023974Y010925D02*
X023798Y010925D01*
X023798Y011041D01*
X023974Y011041D01*
X023974Y011005D02*
X023798Y011005D01*
X023974Y011240D02*
X023974Y011356D01*
X023974Y011240D02*
X023798Y011240D01*
X023798Y011356D01*
X023974Y011356D01*
X023974Y011320D02*
X023798Y011320D01*
X023798Y008606D02*
X023798Y008490D01*
X023798Y008606D02*
X023974Y008606D01*
X023974Y008490D01*
X023798Y008490D01*
X023798Y008570D02*
X023974Y008570D01*
X023798Y008291D02*
X023798Y008175D01*
X023798Y008291D02*
X023974Y008291D01*
X023974Y008175D01*
X023798Y008175D01*
X023798Y008255D02*
X023974Y008255D01*
X023798Y007976D02*
X023798Y007860D01*
X023798Y007976D02*
X023974Y007976D01*
X023974Y007860D01*
X023798Y007860D01*
X023798Y007940D02*
X023974Y007940D01*
X023798Y007661D02*
X023798Y007545D01*
X023798Y007661D02*
X023974Y007661D01*
X023974Y007545D01*
X023798Y007545D01*
X023798Y007625D02*
X023974Y007625D01*
X023306Y007661D02*
X023306Y007545D01*
X023306Y007661D02*
X023482Y007661D01*
X023482Y007545D01*
X023306Y007545D01*
X023306Y007625D02*
X023482Y007625D01*
X023306Y007860D02*
X023306Y007976D01*
X023482Y007976D01*
X023482Y007860D01*
X023306Y007860D01*
X023306Y007940D02*
X023482Y007940D01*
X023306Y008175D02*
X023306Y008291D01*
X023482Y008291D01*
X023482Y008175D01*
X023306Y008175D01*
X023306Y008255D02*
X023482Y008255D01*
X023306Y008490D02*
X023306Y008606D01*
X023482Y008606D01*
X023482Y008490D01*
X023306Y008490D01*
X023306Y008570D02*
X023482Y008570D01*
D21*
X021350Y004536D02*
X021350Y004116D01*
X020930Y004116D01*
X020930Y004536D01*
X021350Y004536D01*
X021350Y004295D02*
X020930Y004295D01*
X020930Y004474D02*
X021350Y004474D01*
D22*
X022140Y004326D03*
X023140Y004326D03*
X023140Y005326D03*
X022140Y005326D03*
X021140Y005326D03*
D23*
X021114Y005328D01*
X021088Y005333D01*
X021063Y005343D01*
X021040Y005355D01*
X021019Y005371D01*
X021000Y005390D01*
X020984Y005411D01*
X020972Y005434D01*
X020962Y005459D01*
X020957Y005485D01*
X020955Y005511D01*
X020955Y006451D01*
X021640Y007326D02*
X022765Y007326D01*
X022890Y007451D01*
X023640Y007326D02*
X024390Y006576D01*
X024390Y005326D01*
X023390Y004326D01*
X023140Y004326D01*
X022640Y004451D02*
X022640Y003951D01*
X022390Y003701D01*
X020765Y003701D01*
X020515Y003951D01*
X020515Y004201D01*
X018890Y005826D01*
X018890Y007951D01*
X018515Y008326D01*
X018515Y008576D01*
X018728Y008788D01*
X018950Y008788D01*
X018950Y008473D02*
X018950Y008266D01*
X019140Y008076D01*
X019140Y006076D01*
X020890Y004326D01*
X021140Y004326D01*
X020890Y004826D02*
X019538Y006178D01*
X019538Y007886D01*
X019515Y008576D02*
X020043Y009103D01*
X022330Y009103D01*
X022612Y009103D01*
X023140Y008576D01*
X023140Y008326D01*
X023233Y008233D01*
X023394Y008233D01*
X023394Y008548D02*
X023015Y008927D01*
X022640Y009326D01*
X022422Y009418D01*
X022330Y009418D01*
X019858Y009418D01*
X019515Y009076D01*
X018950Y009103D02*
X018668Y009103D01*
X017890Y008326D01*
X016390Y008326D01*
X015640Y009076D01*
X016640Y009076D02*
X017140Y008576D01*
X017765Y008576D01*
X018608Y009418D01*
X018950Y009418D01*
X018950Y009733D02*
X018297Y009733D01*
X017640Y009076D01*
X018390Y008076D02*
X018640Y007826D01*
X018640Y005451D01*
X018265Y005076D01*
X017640Y005076D01*
X017140Y004576D01*
X017140Y004076D01*
X016140Y004076D02*
X016140Y004326D01*
X017140Y005326D01*
X018140Y005326D01*
X018390Y005576D01*
X018390Y007576D01*
X016640Y006076D02*
X014640Y004076D01*
X013640Y004076D02*
X015640Y006076D01*
X013765Y008201D02*
X012765Y008201D01*
X012765Y009076D01*
X013765Y009076D01*
X013765Y008201D01*
X013765Y008228D02*
X012765Y008228D01*
X012765Y008306D02*
X013765Y008306D01*
X013765Y008385D02*
X012765Y008385D01*
X012765Y008463D02*
X013765Y008463D01*
X013765Y008542D02*
X012765Y008542D01*
X012765Y008620D02*
X013765Y008620D01*
X013765Y008699D02*
X012765Y008699D01*
X012765Y008777D02*
X013765Y008777D01*
X013765Y008856D02*
X012765Y008856D01*
X012765Y008934D02*
X013765Y008934D01*
X013765Y009013D02*
X012765Y009013D01*
X010265Y011326D02*
X009890Y011701D01*
X007265Y011701D01*
X006825Y012141D01*
X006825Y012326D01*
X006825Y013076D01*
X006825Y013826D01*
X006390Y013801D02*
X004765Y013801D01*
X004765Y013723D02*
X006390Y013723D01*
X006390Y013644D02*
X004765Y013644D01*
X004765Y013566D02*
X006390Y013566D01*
X006390Y013487D02*
X004765Y013487D01*
X004765Y013409D02*
X006390Y013409D01*
X006390Y013330D02*
X004765Y013330D01*
X004765Y013252D02*
X006390Y013252D01*
X006390Y013173D02*
X004765Y013173D01*
X004765Y013095D02*
X006390Y013095D01*
X006390Y013016D02*
X004765Y013016D01*
X004765Y012938D02*
X006390Y012938D01*
X006390Y012859D02*
X004765Y012859D01*
X004765Y012781D02*
X006390Y012781D01*
X006390Y012702D02*
X004765Y012702D01*
X004765Y012624D02*
X006390Y012624D01*
X006390Y012545D02*
X004765Y012545D01*
X004765Y012501D02*
X004765Y014646D01*
X006390Y014646D01*
X006390Y012451D01*
X005689Y012451D01*
X005685Y012455D01*
X005575Y012501D01*
X004765Y012501D01*
X004585Y012501D02*
X002830Y012501D01*
X002720Y012455D01*
X002215Y011950D01*
X002170Y011840D01*
X002170Y011721D01*
X002170Y011700D01*
X002085Y011615D01*
X002001Y011531D01*
X001955Y011421D01*
X001955Y011301D01*
X001965Y011277D01*
X001965Y010956D01*
X001885Y010876D01*
X001885Y009965D01*
X001965Y009885D01*
X001965Y008756D01*
X000880Y008756D01*
X000880Y014275D01*
X001148Y014061D01*
X001631Y013871D01*
X002148Y013833D01*
X002654Y013948D01*
X003103Y014207D01*
X003456Y014588D01*
X003681Y015055D01*
X003758Y015568D01*
X003681Y016081D01*
X003456Y016548D01*
X003309Y016706D01*
X006390Y016706D01*
X006390Y014881D01*
X004690Y014881D01*
X004585Y014775D01*
X004585Y012501D01*
X004585Y012545D02*
X001812Y012545D01*
X001812Y012593D02*
X001705Y012701D01*
X001812Y012808D01*
X001812Y012836D01*
X001813Y012836D01*
X001813Y012803D01*
X001928Y012689D01*
X002352Y012689D01*
X002467Y012803D01*
X002467Y013228D01*
X002352Y013343D01*
X001928Y013343D01*
X001813Y013228D01*
X001813Y013196D01*
X001801Y013196D01*
X001703Y013293D01*
X001327Y013293D01*
X001218Y013184D01*
X001218Y012808D01*
X001325Y012701D01*
X001218Y012593D01*
X001218Y012471D01*
X001215Y012465D01*
X001215Y012016D01*
X001261Y011906D01*
X001345Y011821D01*
X001455Y011776D01*
X001575Y011776D01*
X001685Y011821D01*
X001769Y011906D01*
X001815Y012016D01*
X001815Y012465D01*
X001812Y012471D01*
X001812Y012593D01*
X001782Y012624D02*
X004585Y012624D01*
X004585Y012702D02*
X002366Y012702D01*
X002444Y012781D02*
X004585Y012781D01*
X004585Y012859D02*
X002467Y012859D01*
X002467Y012938D02*
X004585Y012938D01*
X004585Y013016D02*
X002467Y013016D01*
X002467Y013095D02*
X004585Y013095D01*
X004585Y013173D02*
X002467Y013173D01*
X002443Y013252D02*
X004585Y013252D01*
X004585Y013330D02*
X002365Y013330D01*
X002140Y013016D02*
X001535Y013016D01*
X001515Y012996D01*
X001218Y013016D02*
X000880Y013016D01*
X000880Y012938D02*
X001218Y012938D01*
X001218Y012859D02*
X000880Y012859D01*
X000880Y012781D02*
X001245Y012781D01*
X001323Y012702D02*
X000880Y012702D01*
X000880Y012624D02*
X001248Y012624D01*
X001218Y012545D02*
X000880Y012545D01*
X000880Y012467D02*
X001216Y012467D01*
X001215Y012388D02*
X000880Y012388D01*
X000880Y012310D02*
X001215Y012310D01*
X001215Y012231D02*
X000880Y012231D01*
X000880Y012153D02*
X001215Y012153D01*
X001215Y012074D02*
X000880Y012074D01*
X000880Y011996D02*
X001223Y011996D01*
X001256Y011917D02*
X000880Y011917D01*
X000880Y011839D02*
X001328Y011839D01*
X000880Y011760D02*
X002170Y011760D01*
X002170Y011839D02*
X001702Y011839D01*
X001774Y011917D02*
X002202Y011917D01*
X002261Y011996D02*
X001807Y011996D01*
X001815Y012074D02*
X002339Y012074D01*
X002418Y012153D02*
X001815Y012153D01*
X001815Y012231D02*
X002496Y012231D01*
X002575Y012310D02*
X001815Y012310D01*
X001815Y012388D02*
X002653Y012388D01*
X002748Y012467D02*
X001814Y012467D01*
X001914Y012702D02*
X001707Y012702D01*
X001785Y012781D02*
X001836Y012781D01*
X001837Y013252D02*
X001745Y013252D01*
X001915Y013330D02*
X000880Y013330D01*
X000880Y013252D02*
X001285Y013252D01*
X001218Y013173D02*
X000880Y013173D01*
X000880Y013095D02*
X001218Y013095D01*
X000880Y013409D02*
X004585Y013409D01*
X004585Y013487D02*
X000880Y013487D01*
X000880Y013566D02*
X004585Y013566D01*
X004585Y013644D02*
X000880Y013644D01*
X000880Y013723D02*
X004585Y013723D01*
X004585Y013801D02*
X000880Y013801D01*
X000880Y013880D02*
X001610Y013880D01*
X001631Y013871D02*
X001631Y013871D01*
X001410Y013958D02*
X000880Y013958D01*
X000880Y014037D02*
X001210Y014037D01*
X001148Y014061D02*
X001148Y014061D01*
X001080Y014115D02*
X000880Y014115D01*
X000880Y014194D02*
X000981Y014194D01*
X000883Y014272D02*
X000880Y014272D01*
X002148Y013833D02*
X002148Y013833D01*
X002354Y013880D02*
X004585Y013880D01*
X004585Y013958D02*
X002671Y013958D01*
X002654Y013948D02*
X002654Y013948D01*
X002807Y014037D02*
X004585Y014037D01*
X004585Y014115D02*
X002943Y014115D01*
X003079Y014194D02*
X004585Y014194D01*
X004585Y014272D02*
X003163Y014272D01*
X003103Y014207D02*
X003103Y014207D01*
X003236Y014351D02*
X004585Y014351D01*
X004585Y014429D02*
X003309Y014429D01*
X003381Y014508D02*
X004585Y014508D01*
X004585Y014586D02*
X003454Y014586D01*
X003456Y014588D02*
X003456Y014588D01*
X003493Y014665D02*
X004585Y014665D01*
X004585Y014743D02*
X003531Y014743D01*
X003568Y014822D02*
X004631Y014822D01*
X004765Y014586D02*
X006390Y014586D01*
X006390Y014508D02*
X004765Y014508D01*
X004765Y014429D02*
X006390Y014429D01*
X006390Y014351D02*
X004765Y014351D01*
X004765Y014272D02*
X006390Y014272D01*
X006390Y014194D02*
X004765Y014194D01*
X004765Y014115D02*
X006390Y014115D01*
X006390Y014037D02*
X004765Y014037D01*
X004765Y013958D02*
X006390Y013958D01*
X006390Y013880D02*
X004765Y013880D01*
X003570Y014826D02*
X003681Y015055D01*
X003681Y015055D01*
X003758Y015568D01*
X003681Y016081D01*
X003681Y016081D01*
X003456Y016548D01*
X003456Y016548D01*
X003309Y016706D01*
X014015Y016706D01*
X014015Y014826D01*
X012441Y014826D01*
X012441Y014858D01*
X012405Y014946D01*
X012337Y015014D01*
X012289Y015034D01*
X012289Y015485D01*
X012304Y015521D01*
X012304Y015709D01*
X012231Y015884D01*
X012098Y016017D01*
X011923Y016090D01*
X011735Y016090D01*
X011560Y016017D01*
X011427Y015884D01*
X011354Y015709D01*
X011354Y015521D01*
X011369Y015485D01*
X011369Y014826D01*
X009441Y014826D01*
X009441Y014858D01*
X009405Y014946D01*
X009337Y015014D01*
X009289Y015034D01*
X009289Y015485D01*
X009304Y015521D01*
X009304Y015709D01*
X009231Y015884D01*
X009098Y016017D01*
X008923Y016090D01*
X008735Y016090D01*
X008560Y016017D01*
X008427Y015884D01*
X008354Y015709D01*
X008354Y015521D01*
X008369Y015485D01*
X008369Y014826D01*
X003570Y014826D01*
X003606Y014900D02*
X006390Y014900D01*
X006390Y014979D02*
X003644Y014979D01*
X008369Y014979D01*
X008369Y015057D02*
X003681Y015057D01*
X006390Y015057D01*
X006390Y015136D02*
X003693Y015136D01*
X008369Y015136D01*
X008369Y015214D02*
X006099Y015214D01*
X006390Y015214D01*
X006390Y015293D02*
X006178Y015293D01*
X008369Y015293D01*
X008369Y015371D02*
X006242Y015371D01*
X006390Y015371D01*
X006390Y015450D02*
X006274Y015450D01*
X008369Y015450D01*
X008354Y015528D02*
X006304Y015528D01*
X006390Y015528D01*
X006390Y015607D02*
X006304Y015607D01*
X008354Y015607D01*
X008354Y015685D02*
X006304Y015685D01*
X006390Y015685D01*
X006390Y015764D02*
X006281Y015764D01*
X008377Y015764D01*
X008409Y015842D02*
X006249Y015842D01*
X006390Y015842D01*
X006390Y015921D02*
X006195Y015921D01*
X008463Y015921D01*
X008542Y015999D02*
X006116Y015999D01*
X006390Y015999D01*
X006390Y016078D02*
X005952Y016078D01*
X008706Y016078D01*
X008952Y016078D02*
X011706Y016078D01*
X011542Y015999D02*
X009116Y015999D01*
X009195Y015921D02*
X011463Y015921D01*
X011409Y015842D02*
X009249Y015842D01*
X009281Y015764D02*
X011377Y015764D01*
X011354Y015685D02*
X009304Y015685D01*
X009304Y015607D02*
X011354Y015607D01*
X011354Y015528D02*
X009304Y015528D01*
X009289Y015450D02*
X011369Y015450D01*
X011369Y015371D02*
X009289Y015371D01*
X009289Y015293D02*
X011369Y015293D01*
X011369Y015214D02*
X009289Y015214D01*
X009289Y015136D02*
X011369Y015136D01*
X011369Y015057D02*
X009289Y015057D01*
X009372Y014979D02*
X011369Y014979D01*
X011369Y014900D02*
X009424Y014900D01*
X008369Y014900D02*
X003606Y014900D01*
X003681Y015055D02*
X003681Y015055D01*
X003705Y015214D02*
X005559Y015214D01*
X003705Y015214D01*
X003716Y015293D02*
X005480Y015293D01*
X003716Y015293D01*
X003728Y015371D02*
X005416Y015371D01*
X003728Y015371D01*
X003740Y015450D02*
X005384Y015450D01*
X003740Y015450D01*
X003752Y015528D02*
X005354Y015528D01*
X003752Y015528D01*
X003752Y015607D02*
X005354Y015607D01*
X003752Y015607D01*
X003740Y015685D02*
X005354Y015685D01*
X003740Y015685D01*
X003728Y015764D02*
X005377Y015764D01*
X003728Y015764D01*
X003717Y015842D02*
X005409Y015842D01*
X003717Y015842D01*
X003705Y015921D02*
X005463Y015921D01*
X003705Y015921D01*
X003693Y015999D02*
X005542Y015999D01*
X003693Y015999D01*
X003681Y016078D02*
X005706Y016078D01*
X003681Y016078D01*
X003681Y016081D02*
X003681Y016081D01*
X003644Y016156D02*
X006390Y016156D01*
X006390Y016235D02*
X003606Y016235D01*
X014015Y016235D01*
X014015Y016313D02*
X003569Y016313D01*
X006390Y016313D01*
X006390Y016392D02*
X003531Y016392D01*
X014015Y016392D01*
X014015Y016470D02*
X003493Y016470D01*
X006390Y016470D01*
X006390Y016549D02*
X003455Y016549D01*
X014015Y016549D01*
X014015Y016627D02*
X003382Y016627D01*
X006390Y016627D01*
X006390Y016706D02*
X003309Y016706D01*
X014015Y016706D01*
X014015Y016156D02*
X003644Y016156D01*
X003456Y016548D02*
X003456Y016548D01*
X005354Y015709D02*
X005354Y015521D01*
X005427Y015346D01*
X005560Y015213D01*
X005735Y015140D01*
X005923Y015140D01*
X006098Y015213D01*
X006231Y015346D01*
X006304Y015521D01*
X006304Y015709D01*
X006231Y015884D01*
X006098Y016017D01*
X005923Y016090D01*
X005735Y016090D01*
X005560Y016017D01*
X005427Y015884D01*
X005354Y015709D01*
X005354Y015521D01*
X005427Y015346D01*
X005560Y015213D01*
X005735Y015140D01*
X005923Y015140D01*
X006098Y015213D01*
X006231Y015346D01*
X006304Y015521D01*
X006304Y015709D01*
X006231Y015884D01*
X006098Y016017D01*
X005923Y016090D01*
X005735Y016090D01*
X005560Y016017D01*
X005427Y015884D01*
X005354Y015709D01*
X008207Y013077D02*
X008685Y012598D01*
X008685Y012326D01*
X008095Y012326D02*
X007455Y012326D01*
X006390Y012467D02*
X005657Y012467D01*
X005391Y011901D02*
X006765Y010526D01*
X006765Y008756D01*
X002565Y008756D01*
X002565Y009885D01*
X002645Y009965D01*
X002645Y010876D01*
X002565Y010956D01*
X002565Y011247D01*
X002597Y011278D01*
X002658Y011278D01*
X002767Y011388D01*
X002767Y011510D01*
X002770Y011516D01*
X002770Y011656D01*
X003014Y011901D01*
X005391Y011901D01*
X005453Y011839D02*
X002952Y011839D01*
X002874Y011760D02*
X005531Y011760D01*
X005610Y011682D02*
X002795Y011682D01*
X002770Y011603D02*
X005688Y011603D01*
X005767Y011525D02*
X002770Y011525D01*
X002767Y011446D02*
X005845Y011446D01*
X005924Y011368D02*
X002747Y011368D01*
X002669Y011289D02*
X006002Y011289D01*
X006081Y011211D02*
X002565Y011211D01*
X002565Y011132D02*
X006159Y011132D01*
X006238Y011054D02*
X002565Y011054D01*
X002565Y010975D02*
X006316Y010975D01*
X006395Y010897D02*
X002625Y010897D01*
X002645Y010818D02*
X006473Y010818D01*
X006552Y010740D02*
X002645Y010740D01*
X002645Y010661D02*
X006630Y010661D01*
X006709Y010583D02*
X002645Y010583D01*
X002645Y010504D02*
X006765Y010504D01*
X006765Y010426D02*
X002645Y010426D01*
X002645Y010347D02*
X006765Y010347D01*
X006765Y010269D02*
X002645Y010269D01*
X002645Y010190D02*
X006765Y010190D01*
X006765Y010112D02*
X002645Y010112D01*
X002645Y010033D02*
X006765Y010033D01*
X006765Y009955D02*
X002635Y009955D01*
X002565Y009876D02*
X006765Y009876D01*
X006765Y009798D02*
X002565Y009798D01*
X002565Y009719D02*
X006765Y009719D01*
X006765Y009641D02*
X002565Y009641D01*
X002565Y009562D02*
X006765Y009562D01*
X006765Y009484D02*
X002565Y009484D01*
X002565Y009405D02*
X006765Y009405D01*
X006765Y009327D02*
X002565Y009327D01*
X002565Y009248D02*
X006765Y009248D01*
X006765Y009170D02*
X002565Y009170D01*
X002565Y009091D02*
X006765Y009091D01*
X006765Y009013D02*
X002565Y009013D01*
X002565Y008934D02*
X006765Y008934D01*
X006765Y008856D02*
X002565Y008856D01*
X002565Y008777D02*
X006765Y008777D01*
X006765Y008576D02*
X000880Y008576D01*
X000880Y005247D01*
X001148Y005460D01*
X001148Y005460D01*
X001631Y005650D01*
X001631Y005650D01*
X002148Y005689D01*
X002148Y005689D01*
X002654Y005573D01*
X002654Y005573D01*
X003103Y005314D01*
X003103Y005314D01*
X003456Y004934D01*
X003456Y004934D01*
X003681Y004466D01*
X003681Y004466D01*
X003758Y003954D01*
X003758Y003954D01*
X003681Y003441D01*
X003456Y002973D01*
X003456Y002973D01*
X003309Y002816D01*
X006765Y002816D01*
X006765Y008576D01*
X006765Y008542D02*
X000880Y008542D01*
X000880Y008463D02*
X006765Y008463D01*
X006765Y008385D02*
X000880Y008385D01*
X000880Y008306D02*
X006765Y008306D01*
X006765Y008228D02*
X000880Y008228D01*
X000880Y008149D02*
X006765Y008149D01*
X006765Y008071D02*
X000880Y008071D01*
X000880Y007992D02*
X006765Y007992D01*
X006765Y007914D02*
X000880Y007914D01*
X000880Y007835D02*
X006765Y007835D01*
X006765Y007757D02*
X000880Y007757D01*
X000880Y007678D02*
X006765Y007678D01*
X006765Y007600D02*
X000880Y007600D01*
X000880Y007521D02*
X006765Y007521D01*
X006765Y007443D02*
X000880Y007443D01*
X000880Y007364D02*
X006765Y007364D01*
X006765Y007286D02*
X000880Y007286D01*
X000880Y007207D02*
X006765Y007207D01*
X006765Y007129D02*
X000880Y007129D01*
X000880Y007050D02*
X006765Y007050D01*
X006765Y006972D02*
X000880Y006972D01*
X000880Y006893D02*
X006765Y006893D01*
X006765Y006815D02*
X000880Y006815D01*
X000880Y006736D02*
X006765Y006736D01*
X006765Y006658D02*
X000880Y006658D01*
X000880Y006579D02*
X006765Y006579D01*
X006765Y006501D02*
X000880Y006501D01*
X000880Y006422D02*
X006765Y006422D01*
X006765Y006344D02*
X000880Y006344D01*
X000880Y006265D02*
X006765Y006265D01*
X006765Y006187D02*
X000880Y006187D01*
X000880Y006108D02*
X006765Y006108D01*
X006765Y006030D02*
X000880Y006030D01*
X000880Y005951D02*
X006765Y005951D01*
X006765Y005873D02*
X000880Y005873D01*
X000880Y005794D02*
X006765Y005794D01*
X006765Y005716D02*
X000880Y005716D01*
X000880Y005637D02*
X001598Y005637D01*
X001398Y005559D02*
X000880Y005559D01*
X000880Y005480D02*
X001198Y005480D01*
X001074Y005402D02*
X000880Y005402D01*
X000880Y005323D02*
X000976Y005323D01*
X002374Y005637D02*
X006765Y005637D01*
X006765Y005559D02*
X002679Y005559D01*
X002815Y005480D02*
X006765Y005480D01*
X006765Y005402D02*
X002951Y005402D01*
X003087Y005323D02*
X006765Y005323D01*
X006765Y005245D02*
X003167Y005245D01*
X003240Y005166D02*
X006765Y005166D01*
X006765Y005088D02*
X003313Y005088D01*
X003386Y005009D02*
X006765Y005009D01*
X006765Y004931D02*
X003457Y004931D01*
X003495Y004852D02*
X006765Y004852D01*
X006765Y004774D02*
X003533Y004774D01*
X003571Y004695D02*
X006765Y004695D01*
X006765Y004617D02*
X003608Y004617D01*
X003646Y004538D02*
X006765Y004538D01*
X006765Y004460D02*
X003682Y004460D01*
X003694Y004381D02*
X006765Y004381D01*
X006765Y004303D02*
X003705Y004303D01*
X003717Y004224D02*
X006765Y004224D01*
X006765Y004146D02*
X003729Y004146D01*
X003741Y004067D02*
X006765Y004067D01*
X006765Y003989D02*
X003753Y003989D01*
X003751Y003910D02*
X006765Y003910D01*
X006765Y003832D02*
X003740Y003832D01*
X003728Y003753D02*
X006765Y003753D01*
X006765Y003675D02*
X003716Y003675D01*
X003704Y003596D02*
X006765Y003596D01*
X006765Y003518D02*
X003692Y003518D01*
X003680Y003439D02*
X006765Y003439D01*
X006765Y003361D02*
X003642Y003361D01*
X003604Y003282D02*
X006765Y003282D01*
X006765Y003204D02*
X003566Y003204D01*
X003529Y003125D02*
X006765Y003125D01*
X006765Y003047D02*
X003491Y003047D01*
X003451Y002968D02*
X006765Y002968D01*
X006765Y002890D02*
X003378Y002890D01*
X001965Y008777D02*
X000880Y008777D01*
X000880Y008856D02*
X001965Y008856D01*
X001965Y008934D02*
X000880Y008934D01*
X000880Y009013D02*
X001965Y009013D01*
X001965Y009091D02*
X000880Y009091D01*
X000880Y009170D02*
X001965Y009170D01*
X001965Y009248D02*
X000880Y009248D01*
X000880Y009327D02*
X001965Y009327D01*
X001965Y009405D02*
X000880Y009405D01*
X000880Y009484D02*
X001965Y009484D01*
X001965Y009562D02*
X000880Y009562D01*
X000880Y009641D02*
X001965Y009641D01*
X001965Y009719D02*
X000880Y009719D01*
X000880Y009798D02*
X001965Y009798D01*
X001965Y009876D02*
X000880Y009876D01*
X000880Y009955D02*
X001895Y009955D01*
X001885Y010033D02*
X000880Y010033D01*
X000880Y010112D02*
X001885Y010112D01*
X001885Y010190D02*
X000880Y010190D01*
X000880Y010269D02*
X001885Y010269D01*
X001885Y010347D02*
X000880Y010347D01*
X000880Y010426D02*
X001885Y010426D01*
X001885Y010504D02*
X000880Y010504D01*
X000880Y010583D02*
X001885Y010583D01*
X001885Y010661D02*
X000880Y010661D01*
X000880Y010740D02*
X001885Y010740D01*
X001885Y010818D02*
X000880Y010818D01*
X000880Y010897D02*
X001905Y010897D01*
X001965Y010975D02*
X000880Y010975D01*
X000880Y011054D02*
X001965Y011054D01*
X001965Y011132D02*
X000880Y011132D01*
X000880Y011211D02*
X001965Y011211D01*
X001960Y011289D02*
X000880Y011289D01*
X000880Y011368D02*
X001955Y011368D01*
X001966Y011446D02*
X000880Y011446D01*
X000880Y011525D02*
X001998Y011525D01*
X002073Y011603D02*
X000880Y011603D01*
X000880Y011682D02*
X002151Y011682D01*
X009825Y012141D02*
X009825Y012326D01*
X009825Y013076D01*
X009825Y013826D01*
X011207Y013077D02*
X011685Y012598D01*
X011685Y012326D01*
X011095Y012326D02*
X010455Y012326D01*
X009825Y012141D02*
X010390Y011576D01*
X015390Y011576D01*
X016603Y010363D01*
X018950Y010363D01*
X018950Y010678D02*
X016663Y010678D01*
X015515Y011826D01*
X013015Y011826D01*
X012825Y012016D01*
X012825Y012326D01*
X012825Y013076D01*
X012825Y013826D01*
X014207Y013077D02*
X014685Y012598D01*
X014685Y012326D01*
X014095Y012326D02*
X013455Y012326D01*
X015265Y011326D02*
X010265Y011326D01*
X015265Y011326D02*
X016543Y010048D01*
X018950Y010048D01*
X021427Y007886D02*
X021427Y007538D01*
X021640Y007326D01*
X023640Y007326D02*
X023640Y008761D01*
X023575Y009201D01*
X023595Y009845D01*
X023595Y009826D01*
X023644Y009875D01*
X023595Y009826D02*
X023502Y009733D01*
X022330Y009733D01*
X022330Y010048D02*
X022612Y010048D01*
X023233Y010668D01*
X023394Y010668D01*
X023394Y010983D02*
X023172Y010983D01*
X022552Y010363D01*
X022330Y010363D01*
X022330Y010678D02*
X022492Y010678D01*
X023112Y011298D01*
X023394Y011298D01*
X023886Y011298D02*
X023886Y011705D01*
X023140Y012451D01*
X024140Y012201D02*
X024140Y012076D01*
X024140Y012201D02*
X024390Y012451D01*
X024390Y012886D01*
X024390Y013516D02*
X024330Y013576D01*
X023640Y013576D01*
X023390Y013826D01*
X021265Y013826D01*
X020640Y014451D01*
X020015Y014076D02*
X019015Y014076D01*
X018825Y014266D01*
X018825Y014576D01*
X019455Y014576D02*
X019455Y015552D01*
X019518Y015615D01*
X018140Y015615D02*
X018140Y014576D01*
X017455Y014576D02*
X017455Y014518D01*
X016825Y013888D01*
X016390Y013576D02*
X016703Y013263D01*
X016845Y013263D01*
X016845Y012871D01*
X017515Y012201D01*
X017435Y013263D02*
X017435Y013868D01*
X017455Y013888D01*
X016825Y014576D02*
X016765Y014576D01*
X016390Y014201D01*
X016390Y013576D01*
X016825Y014576D02*
X016825Y015552D01*
X016762Y015615D01*
X014015Y015607D02*
X012304Y015607D01*
X012304Y015685D02*
X014015Y015685D01*
X014015Y015764D02*
X012281Y015764D01*
X012249Y015842D02*
X014015Y015842D01*
X014015Y015921D02*
X012195Y015921D01*
X012116Y015999D02*
X014015Y015999D01*
X014015Y016078D02*
X011952Y016078D01*
X012304Y015528D02*
X014015Y015528D01*
X014015Y015450D02*
X012289Y015450D01*
X012289Y015371D02*
X014015Y015371D01*
X014015Y015293D02*
X012289Y015293D01*
X012289Y015214D02*
X014015Y015214D01*
X014015Y015136D02*
X012289Y015136D01*
X012289Y015057D02*
X014015Y015057D01*
X014015Y014979D02*
X012372Y014979D01*
X012424Y014900D02*
X014015Y014900D01*
X020015Y014076D02*
X020640Y013451D01*
X023140Y013451D01*
X023640Y014451D02*
X024265Y014451D01*
X025015Y013701D01*
X025015Y013516D01*
X025640Y012886D02*
X025640Y012201D01*
X025390Y011951D01*
X025390Y011701D01*
X025765Y011576D02*
X025765Y011826D01*
X026515Y012576D01*
X026515Y011576D02*
X025922Y010983D01*
X023886Y010983D01*
X023886Y010668D02*
X026422Y010668D01*
X026515Y010576D01*
X025765Y010076D02*
X025515Y010076D01*
X025302Y009863D01*
X025302Y009076D01*
X025387Y008866D02*
X025217Y008866D01*
X025217Y009286D01*
X025387Y009286D01*
X025387Y008866D01*
X025387Y008945D02*
X025217Y008945D01*
X025217Y009024D02*
X025387Y009024D01*
X025387Y009103D02*
X025217Y009103D01*
X025217Y009182D02*
X025387Y009182D01*
X025387Y009261D02*
X025217Y009261D01*
X025067Y009286D02*
X024897Y009286D01*
X025067Y009286D02*
X025067Y008866D01*
X024897Y008866D01*
X024897Y009286D01*
X024897Y008945D02*
X025067Y008945D01*
X025067Y009024D02*
X024897Y009024D01*
X024897Y009103D02*
X025067Y009103D01*
X025067Y009182D02*
X024897Y009182D01*
X024897Y009261D02*
X025067Y009261D01*
X024982Y009076D02*
X024640Y009201D01*
X024205Y009201D01*
X023886Y008882D01*
X023886Y008548D01*
X023886Y008233D01*
X024265Y007201D02*
X024765Y007201D01*
X025765Y008076D01*
X025765Y009576D01*
X025640Y009701D01*
X025765Y010076D02*
X026265Y009576D01*
X026515Y009576D01*
X025015Y010076D02*
X024765Y009826D01*
X024185Y009826D01*
X025015Y011326D02*
X025515Y011326D01*
X025765Y011576D01*
X022140Y005326D02*
X022140Y004951D01*
X022640Y004451D01*
X022140Y004326D02*
X021640Y004826D01*
X020890Y004826D01*
D24*
X011495Y003596D03*
X005649Y009442D03*
D25*
X020640Y014451D03*
X023640Y014451D03*
D26*
X019140Y004372D02*
X019140Y003779D01*
X018140Y003779D02*
X018140Y004372D01*
X017140Y004372D02*
X017140Y003779D01*
X016140Y003779D02*
X016140Y004372D01*
D27*
X003343Y010789D02*
X003007Y010789D01*
X003343Y010789D02*
X003343Y010053D01*
X003007Y010053D01*
X003007Y010789D01*
X003007Y010196D02*
X003343Y010196D01*
X003343Y010339D02*
X003007Y010339D01*
X003007Y010482D02*
X003343Y010482D01*
X003343Y010625D02*
X003007Y010625D01*
X003007Y010768D02*
X003343Y010768D01*
X002433Y010789D02*
X002097Y010789D01*
X002433Y010789D02*
X002433Y010053D01*
X002097Y010053D01*
X002097Y010789D01*
X002097Y010196D02*
X002433Y010196D01*
X002433Y010339D02*
X002097Y010339D01*
X002097Y010482D02*
X002433Y010482D01*
X002433Y010625D02*
X002097Y010625D01*
X002097Y010768D02*
X002433Y010768D01*
X001523Y010789D02*
X001187Y010789D01*
X001523Y010789D02*
X001523Y010053D01*
X001187Y010053D01*
X001187Y010789D01*
X001187Y010196D02*
X001523Y010196D01*
X001523Y010339D02*
X001187Y010339D01*
X001187Y010482D02*
X001523Y010482D01*
X001523Y010625D02*
X001187Y010625D01*
X001187Y010768D02*
X001523Y010768D01*
D28*
X001687Y008284D02*
X002843Y008284D01*
X002843Y007678D01*
X001687Y007678D01*
X001687Y008284D01*
X001687Y007937D02*
X002843Y007937D01*
X002843Y008196D02*
X001687Y008196D01*
D29*
X004451Y015615D03*
X005829Y015615D03*
X007451Y015615D03*
X008829Y015615D03*
X010451Y015615D03*
X011829Y015615D03*
X013451Y015615D03*
X014829Y015615D03*
X016762Y015615D03*
X018140Y015615D03*
X019518Y015615D03*
X021451Y015615D03*
X022829Y015615D03*
D30*
X025640Y013516D02*
X026080Y013516D01*
X026140Y013576D01*
X025640Y012886D02*
X025015Y012886D01*
X021112Y011648D02*
X021112Y011266D01*
X020797Y011266D02*
X020797Y010733D01*
X020765Y010701D02*
X020390Y010701D01*
X020168Y010923D01*
X020168Y011266D01*
X020168Y011898D01*
X020345Y012076D01*
X020515Y011701D02*
X020810Y011701D01*
X020935Y012076D01*
X021112Y011648D01*
X020515Y011701D02*
X020483Y011543D01*
X020483Y011266D01*
X020265Y008576D02*
X020015Y008576D01*
X019853Y008413D01*
X019853Y007886D01*
X019853Y007238D01*
X020015Y007076D01*
X020345Y007076D01*
X020345Y006470D01*
X020325Y006451D01*
X020935Y007076D02*
X021390Y007076D01*
X020935Y007076D02*
X020797Y007213D01*
X020797Y007886D01*
X020483Y007886D02*
X020483Y008358D01*
X020265Y008576D01*
D31*
X019515Y008576D03*
X019515Y009076D03*
X018390Y008076D03*
X018390Y007576D03*
X021390Y007076D03*
X022890Y007451D03*
X024265Y007201D03*
X024640Y007576D03*
X024015Y006451D03*
X023515Y005701D03*
X024640Y009201D03*
X025015Y010076D03*
X025640Y009701D03*
X025015Y011326D03*
X025390Y011701D03*
X024390Y011326D03*
X023140Y012451D03*
X023140Y013451D03*
X020890Y012451D03*
X019265Y011951D03*
X019015Y012201D03*
X016015Y011701D03*
X015140Y010826D03*
X013765Y013076D03*
X010765Y013076D03*
X007765Y013076D03*
X005640Y013326D03*
X005640Y013826D03*
X004890Y013826D03*
X004890Y013326D03*
X003640Y011576D03*
X001515Y012076D03*
X003140Y009201D03*
X006140Y010701D03*
X013015Y008326D03*
X013515Y008326D03*
X012640Y006076D03*
X011515Y004951D03*
X026140Y013576D03*
D32*
X024390Y011826D02*
X024140Y012076D01*
X023265Y012951D01*
X020345Y012951D01*
X020345Y012996D01*
X019890Y013451D01*
X018765Y013451D01*
X017515Y012201D01*
X017015Y011701D01*
X016015Y011701D01*
X015140Y010826D02*
X014856Y010541D01*
X013890Y010541D01*
X013265Y010041D01*
X012856Y010576D01*
X011765Y010576D01*
X011765Y005951D01*
X012640Y005076D01*
X012640Y003701D01*
X013265Y003076D01*
X017640Y003076D01*
X018140Y003576D01*
X018140Y004076D01*
X020955Y006451D02*
X022015Y006451D01*
X022515Y006951D01*
X023515Y006951D01*
X024015Y006451D01*
X023515Y005701D02*
X023140Y005326D01*
X024640Y007576D02*
X024640Y009201D01*
X024390Y011326D02*
X024390Y011826D01*
X020935Y012076D02*
X020935Y012405D01*
X020890Y012451D01*
X020345Y012076D02*
X020345Y012951D01*
X019140Y012076D02*
X019015Y012201D01*
X020640Y014451D02*
X021451Y015262D01*
X021451Y015615D01*
X022829Y015615D02*
X022829Y015262D01*
X023640Y014451D01*
X015073Y014450D02*
X015073Y013451D01*
X014207Y013825D02*
X013581Y013825D01*
X013455Y013826D01*
X013455Y013076D02*
X013581Y013077D01*
X014207Y013077D01*
X015073Y014450D02*
X014947Y014576D01*
X014829Y014694D01*
X013451Y014694D02*
X013333Y014576D01*
X012073Y014450D02*
X011947Y014576D01*
X011829Y014694D01*
X012073Y014450D02*
X012073Y013451D01*
X011207Y013825D02*
X010581Y013825D01*
X010455Y013826D01*
X010455Y013076D02*
X010581Y013077D01*
X011207Y013077D01*
X011207Y013018D01*
X010765Y013076D01*
X009073Y013451D02*
X009073Y014450D01*
X008947Y014576D01*
X008829Y014694D01*
X008207Y013825D02*
X007581Y013825D01*
X007455Y013826D01*
X007455Y013076D02*
X007581Y013077D01*
X008207Y013077D01*
X008082Y013018D01*
X007765Y013076D01*
X007333Y014576D02*
X007451Y014694D01*
X010333Y014576D02*
X010451Y014694D01*
X007140Y010576D02*
X005515Y012201D01*
X002890Y012201D01*
X002470Y011780D01*
X002470Y011576D01*
X002255Y011361D01*
X002265Y011351D01*
X002265Y010421D01*
X002265Y007981D01*
X007140Y010576D02*
X011765Y010576D01*
X001515Y012076D02*
X001515Y012405D01*
D33*
X007265Y012826D02*
X007265Y013201D01*
X008390Y013201D01*
X008390Y012826D01*
X007265Y012826D01*
X007265Y012878D02*
X008390Y012878D01*
X008390Y013037D02*
X007265Y013037D01*
X007265Y013195D02*
X008390Y013195D01*
X010265Y013195D02*
X011390Y013195D01*
X011390Y013201D02*
X010265Y013201D01*
X010265Y012826D01*
X011390Y012826D01*
X011390Y013201D01*
X011390Y013037D02*
X010265Y013037D01*
X010265Y012878D02*
X011390Y012878D01*
X013265Y012878D02*
X014390Y012878D01*
X014390Y012826D02*
X013265Y012826D01*
X013265Y013201D01*
X014390Y013201D01*
X014390Y012826D01*
X014390Y013037D02*
X013265Y013037D01*
X013265Y013195D02*
X014390Y013195D01*
X017455Y014576D02*
X018140Y014576D01*
X018825Y014576D01*
X019474Y012410D02*
X019853Y012008D01*
X019853Y011266D01*
X019538Y011266D02*
X019305Y011266D01*
X018806Y011742D01*
X020765Y010701D02*
X020797Y010733D01*
X014640Y009076D02*
X014640Y008076D01*
X012640Y006076D01*
X012640Y005076D02*
X013640Y005076D01*
X014640Y006076D01*
X011515Y004951D02*
X011515Y004241D01*
X011495Y003596D01*
D34*
X011829Y014694D02*
X011829Y015615D01*
X010451Y015615D02*
X010451Y014694D01*
X008829Y014694D02*
X008829Y015615D01*
X007451Y015615D02*
X007451Y014694D01*
X013451Y014694D02*
X013451Y015615D01*
X014829Y015615D02*
X014829Y014694D01*
M02*
