G75*
G70*
%OFA0B0*%
%FSLAX24Y24*%
%IPPOS*%
%LPD*%
%AMOC8*
5,1,8,0,0,1.08239X$1,22.5*
%
%ADD10C,0.0120*%
%ADD11R,0.4560X0.0020*%
%ADD12R,0.4540X0.0020*%
%ADD13R,0.0060X0.0020*%
%ADD14R,0.0020X0.0020*%
%ADD15R,0.0040X0.0020*%
%ADD16R,0.0100X0.0020*%
%ADD17R,0.0120X0.0020*%
%ADD18R,0.0160X0.0020*%
%ADD19R,0.0140X0.0020*%
%ADD20R,0.0220X0.0020*%
%ADD21R,0.1620X0.0020*%
%ADD22R,0.1660X0.0020*%
%ADD23R,0.1640X0.0020*%
%ADD24R,0.0180X0.0020*%
%ADD25R,0.0280X0.0020*%
%ADD26R,0.0300X0.0020*%
%ADD27R,0.0360X0.0020*%
%ADD28R,0.0380X0.0020*%
%ADD29R,0.0420X0.0020*%
%ADD30R,0.0460X0.0020*%
%ADD31R,0.0480X0.0020*%
%ADD32R,0.0500X0.0020*%
%ADD33R,0.1700X0.0020*%
%ADD34R,0.0340X0.0020*%
%ADD35R,0.0200X0.0020*%
%ADD36R,0.0260X0.0020*%
%ADD37R,0.0320X0.0020*%
%ADD38R,0.0580X0.0020*%
%ADD39R,0.0400X0.0020*%
%ADD40R,0.0440X0.0020*%
%ADD41R,0.0520X0.0020*%
%ADD42R,0.0540X0.0020*%
%ADD43R,0.0560X0.0020*%
%ADD44R,0.0620X0.0020*%
%ADD45R,0.0660X0.0020*%
%ADD46R,0.0680X0.0020*%
%ADD47R,0.0700X0.0020*%
%ADD48R,0.0780X0.0020*%
%ADD49R,0.0800X0.0020*%
%ADD50R,0.0840X0.0020*%
%ADD51R,0.0880X0.0020*%
%ADD52R,0.0980X0.0020*%
%ADD53R,0.0600X0.0020*%
%ADD54R,0.0940X0.0020*%
%ADD55R,0.0920X0.0020*%
%ADD56R,0.0900X0.0020*%
%ADD57R,0.0080X0.0020*%
%ADD58R,0.0860X0.0020*%
%ADD59R,0.0820X0.0020*%
%ADD60R,0.0740X0.0020*%
%ADD61R,0.0640X0.0020*%
%ADD62R,0.1000X0.0020*%
%ADD63R,0.0720X0.0020*%
%ADD64R,0.1020X0.0020*%
%ADD65R,0.1040X0.0020*%
%ADD66R,0.1080X0.0020*%
%ADD67R,0.0240X0.0020*%
%ADD68R,0.0760X0.0020*%
%ADD69R,0.1060X0.0020*%
%ADD70R,0.1100X0.0020*%
%ADD71R,0.1140X0.0020*%
%ADD72R,0.1180X0.0020*%
%ADD73R,0.1220X0.0020*%
%ADD74R,0.1280X0.0020*%
%ADD75R,0.1440X0.0020*%
%ADD76R,0.0960X0.0020*%
%ADD77R,0.1240X0.0020*%
%ADD78R,0.1160X0.0020*%
%ADD79R,0.1120X0.0020*%
%ADD80R,0.1800X0.0020*%
%ADD81R,0.1780X0.0020*%
%ADD82R,0.1680X0.0020*%
%ADD83R,0.1580X0.0020*%
%ADD84R,0.1560X0.0020*%
%ADD85R,0.1600X0.0020*%
%ADD86R,0.1540X0.0020*%
%ADD87R,0.1500X0.0020*%
%ADD88R,0.1260X0.0020*%
%ADD89R,0.4580X0.0020*%
D10*
X018412Y006318D02*
X018635Y006095D01*
X019080Y006095D01*
X018746Y006095D02*
X018746Y006540D01*
X018635Y006540D02*
X018412Y006318D01*
X018635Y006540D02*
X019080Y006540D01*
X019412Y006559D02*
X019635Y006337D01*
X020080Y006337D01*
X019746Y006337D02*
X019746Y006782D01*
X019635Y006782D02*
X019412Y006559D01*
X019635Y006782D02*
X020080Y006782D01*
X019969Y007062D02*
X019523Y007062D01*
X019412Y007173D01*
X019412Y007507D01*
X020080Y007507D01*
X020080Y007173D01*
X019969Y007062D01*
X019080Y007265D02*
X018412Y007265D01*
X019080Y006820D01*
X018412Y006820D01*
X018635Y007545D02*
X019080Y007545D01*
X018746Y007545D02*
X018746Y007990D01*
X018635Y007990D02*
X018412Y007768D01*
X018635Y007545D01*
X018635Y007990D02*
X019080Y007990D01*
X019412Y008009D02*
X019635Y007787D01*
X020080Y007787D01*
X019746Y007787D02*
X019746Y008232D01*
X019635Y008232D02*
X019412Y008009D01*
X019635Y008232D02*
X020080Y008232D01*
X020080Y008512D02*
X020080Y008957D01*
X019969Y008957D01*
X019523Y008512D01*
X019412Y008512D01*
X019412Y008957D01*
X019080Y008995D02*
X018857Y009218D01*
X018857Y009106D02*
X018857Y009440D01*
X019080Y009440D02*
X018412Y009440D01*
X018412Y009106D01*
X018523Y008995D01*
X018746Y008995D01*
X018857Y009106D01*
X018746Y008715D02*
X018746Y008381D01*
X018857Y008270D01*
X018969Y008270D01*
X019080Y008381D01*
X019080Y008715D01*
X018412Y008715D01*
X018412Y008381D01*
X018523Y008270D01*
X018635Y008270D01*
X018746Y008381D01*
X019412Y009218D02*
X019412Y009440D01*
X019412Y009329D02*
X020080Y009329D01*
X020080Y009440D02*
X020080Y009218D01*
X019412Y009720D02*
X019412Y010165D01*
X019412Y009943D02*
X020080Y009943D01*
X020080Y010445D02*
X019635Y010445D01*
X019412Y010668D01*
X019635Y010890D01*
X020080Y010890D01*
X020080Y011170D02*
X019412Y011170D01*
X019635Y011393D01*
X019412Y011615D01*
X020080Y011615D01*
X019969Y011895D02*
X019523Y011895D01*
X019412Y012007D01*
X019412Y012229D01*
X019523Y012340D01*
X019969Y012340D01*
X020080Y012229D01*
X020080Y012007D01*
X019969Y011895D01*
X019080Y012118D02*
X018412Y012118D01*
X018412Y012340D02*
X018412Y011895D01*
X018635Y011615D02*
X018412Y011393D01*
X018635Y011170D01*
X019080Y011170D01*
X018746Y011170D02*
X018746Y011615D01*
X018635Y011615D02*
X019080Y011615D01*
X019746Y010890D02*
X019746Y010445D01*
X019080Y010054D02*
X019080Y009831D01*
X018969Y009720D01*
X018412Y009720D01*
X018412Y010165D02*
X018969Y010165D01*
X019080Y010054D01*
X021412Y010798D02*
X021523Y010687D01*
X021746Y010687D01*
X021857Y010798D01*
X021857Y011132D01*
X021857Y010909D02*
X022080Y010687D01*
X022412Y010890D02*
X022635Y010668D01*
X022412Y010445D01*
X023080Y010445D01*
X023080Y010165D02*
X022635Y010165D01*
X022412Y009943D01*
X022635Y009720D01*
X023080Y009720D01*
X023080Y009440D02*
X022412Y009440D01*
X023080Y008995D01*
X022412Y008995D01*
X022412Y008715D02*
X023080Y008270D01*
X022412Y008270D01*
X022412Y008715D02*
X023080Y008715D01*
X022746Y009720D02*
X022746Y010165D01*
X023080Y010890D02*
X022412Y010890D01*
X022523Y011170D02*
X022412Y011281D01*
X022412Y011504D01*
X022523Y011615D01*
X022635Y011615D01*
X022746Y011504D01*
X022746Y011281D01*
X022857Y011170D01*
X022969Y011170D01*
X023080Y011281D01*
X023080Y011504D01*
X022969Y011615D01*
X022969Y011895D02*
X023080Y012007D01*
X023080Y012229D01*
X022969Y012340D01*
X022746Y012229D02*
X022746Y012007D01*
X022857Y011895D01*
X022969Y011895D01*
X022746Y012229D02*
X022635Y012340D01*
X022523Y012340D01*
X022412Y012229D01*
X022412Y012007D01*
X022523Y011895D01*
X022080Y011857D02*
X022080Y011412D01*
X022080Y011132D02*
X021412Y011132D01*
X021412Y010798D01*
X021412Y011412D02*
X021412Y011857D01*
X022080Y011857D01*
X022080Y012137D02*
X021412Y012137D01*
X021746Y011857D02*
X021746Y011634D01*
X022080Y012137D02*
X021412Y012582D01*
X022080Y012582D01*
X022080Y012843D02*
X022080Y013066D01*
X022080Y012954D02*
X021412Y012954D01*
X021412Y012843D02*
X021412Y013066D01*
X021635Y013345D02*
X022080Y013345D01*
X022412Y013457D02*
X022523Y013345D01*
X022746Y013345D01*
X022857Y013457D01*
X022857Y013791D01*
X023080Y013791D02*
X022412Y013791D01*
X022412Y013457D01*
X022635Y013066D02*
X022412Y012843D01*
X022635Y012620D01*
X023080Y012620D01*
X022746Y012620D02*
X022746Y013066D01*
X022635Y013066D02*
X023080Y013066D01*
X023080Y013345D02*
X022857Y013568D01*
X022746Y014070D02*
X022746Y014293D01*
X022746Y014070D02*
X022969Y014070D01*
X023080Y014182D01*
X023080Y014404D01*
X022969Y014516D01*
X022523Y014516D01*
X022412Y014404D01*
X022412Y014182D01*
X022523Y014070D01*
X022080Y014070D02*
X021857Y014293D01*
X021857Y014182D02*
X021746Y014070D01*
X021523Y014070D01*
X021412Y014182D01*
X021412Y014516D01*
X022080Y014516D01*
X021857Y014516D02*
X021857Y014182D01*
X021746Y013791D02*
X021746Y013345D01*
X021635Y013345D02*
X021412Y013568D01*
X021635Y013791D01*
X022080Y013791D01*
X020080Y013679D02*
X020080Y013457D01*
X019969Y013345D01*
X019412Y013345D01*
X019080Y013457D02*
X018969Y013345D01*
X018523Y013345D01*
X018412Y013457D01*
X018412Y013679D01*
X018523Y013791D01*
X018969Y013791D01*
X019080Y013679D01*
X019080Y013457D01*
X019080Y013066D02*
X018412Y013066D01*
X018412Y012732D01*
X018523Y012620D01*
X018746Y012620D01*
X018857Y012732D01*
X018857Y013066D01*
X018857Y012843D02*
X019080Y012620D01*
X019412Y012620D02*
X019412Y013066D01*
X019412Y012843D02*
X020080Y012843D01*
X020080Y013679D02*
X019969Y013791D01*
X019412Y013791D01*
X019635Y014070D02*
X020080Y014070D01*
X019746Y014070D02*
X019746Y014516D01*
X019635Y014516D02*
X019412Y014293D01*
X019635Y014070D01*
X019635Y014516D02*
X020080Y014516D01*
X019080Y014516D02*
X018412Y014516D01*
X018746Y014516D02*
X018746Y014070D01*
X018412Y014070D02*
X019080Y014070D01*
D11*
X010610Y015516D03*
D12*
X010620Y015496D03*
D13*
X012860Y015456D03*
X012860Y015416D03*
X012860Y015376D03*
X012860Y015336D03*
X012860Y015296D03*
X012860Y015256D03*
X013600Y013556D03*
X011420Y012376D03*
X008940Y012736D03*
X008860Y012776D03*
X008780Y012736D03*
X008720Y012636D03*
X008860Y012456D03*
X008740Y012216D03*
X008740Y012176D03*
X008740Y012136D03*
X008700Y011416D03*
X008820Y010856D03*
X008800Y010836D03*
X008600Y010636D03*
X009060Y010456D03*
X009080Y010436D03*
X009100Y010416D03*
X009140Y010336D03*
X009160Y010316D03*
X009180Y010296D03*
X009180Y010256D03*
X009200Y010236D03*
X009220Y010216D03*
X009220Y010176D03*
X009240Y010156D03*
X009240Y010136D03*
X009240Y010116D03*
X009260Y010096D03*
X009260Y010056D03*
X009280Y010036D03*
X009280Y010016D03*
X009280Y009996D03*
X009300Y009976D03*
X009300Y009936D03*
X009300Y009916D03*
X009300Y009896D03*
X009300Y009856D03*
X009320Y009836D03*
X009320Y009796D03*
X009320Y009756D03*
X009320Y009716D03*
X009320Y009676D03*
X009320Y009636D03*
X009320Y009596D03*
X009300Y009576D03*
X009300Y009536D03*
X009300Y009516D03*
X009300Y009496D03*
X009300Y009456D03*
X009280Y009436D03*
X009280Y009396D03*
X009260Y009376D03*
X009260Y009356D03*
X009260Y009336D03*
X009240Y009316D03*
X009240Y009296D03*
X009240Y009276D03*
X009220Y009256D03*
X009200Y009196D03*
X009180Y009176D03*
X009160Y009116D03*
X009140Y009096D03*
X009080Y008996D03*
X009060Y008976D03*
X009040Y008956D03*
X009020Y008936D03*
X008860Y008776D03*
X008780Y008616D03*
X008640Y008796D03*
X008500Y008576D03*
X008500Y008216D03*
X008720Y008116D03*
X008760Y007396D03*
X008760Y007376D03*
X008760Y007356D03*
X008760Y007316D03*
X008720Y006836D03*
X008860Y006696D03*
X007460Y006776D03*
X008360Y005436D03*
X008360Y005396D03*
X008360Y005356D03*
X008360Y005316D03*
X008360Y005276D03*
X008360Y005236D03*
X008360Y005196D03*
X008360Y005156D03*
X008360Y005116D03*
X008360Y005076D03*
X008360Y005036D03*
X008360Y004996D03*
X008360Y004956D03*
X008360Y004916D03*
X008360Y004876D03*
X008360Y004836D03*
X008360Y004796D03*
X008360Y004756D03*
X008360Y004716D03*
X008360Y004676D03*
X008360Y004636D03*
X008360Y004596D03*
X008360Y004556D03*
X008360Y004516D03*
X008360Y004476D03*
X008360Y004436D03*
X008360Y004396D03*
X008360Y004356D03*
X008360Y004316D03*
X008360Y004276D03*
X008360Y004236D03*
X008360Y004196D03*
X008380Y004176D03*
X012120Y006316D03*
X012880Y004396D03*
X012880Y004356D03*
X012880Y004316D03*
X012880Y004276D03*
X012880Y004236D03*
X012880Y004196D03*
X007300Y008816D03*
X007260Y008856D03*
X007240Y008876D03*
X007220Y008896D03*
X007180Y008936D03*
X007100Y009056D03*
X007080Y009076D03*
X007060Y009096D03*
X007060Y009136D03*
X007040Y009156D03*
X007020Y009176D03*
X007020Y009216D03*
X007000Y009236D03*
X006980Y009256D03*
X006980Y009276D03*
X006980Y009296D03*
X006960Y009316D03*
X006960Y009336D03*
X006960Y009356D03*
X006940Y009376D03*
X006940Y009416D03*
X006920Y009436D03*
X006920Y009476D03*
X006920Y009516D03*
X006900Y009536D03*
X006900Y009576D03*
X006900Y009596D03*
X006900Y009616D03*
X006900Y009636D03*
X006900Y009656D03*
X006900Y009696D03*
X006900Y009736D03*
X006900Y009776D03*
X006900Y009816D03*
X006900Y009836D03*
X006900Y009856D03*
X006900Y009896D03*
X006920Y009916D03*
X006920Y009956D03*
X006920Y009976D03*
X006920Y009996D03*
X006940Y010016D03*
X006940Y010056D03*
X006960Y010076D03*
X006960Y010116D03*
X006980Y010136D03*
X006980Y010176D03*
X007000Y010216D03*
X007020Y010256D03*
X007040Y010296D03*
X007060Y010336D03*
X007100Y010376D03*
X007140Y010456D03*
X007160Y010476D03*
X007180Y010496D03*
X007300Y010616D03*
X008480Y010876D03*
X008500Y010856D03*
X008780Y009936D03*
X008800Y009916D03*
X008700Y009856D03*
X008720Y009596D03*
X008700Y009576D03*
X008780Y009496D03*
X008800Y009516D03*
X008700Y009096D03*
X013180Y009416D03*
X008940Y012856D03*
X008360Y013996D03*
X008360Y014156D03*
X008360Y014196D03*
X008360Y014236D03*
X008360Y014276D03*
X008360Y014316D03*
X008360Y014356D03*
X008360Y014396D03*
X008360Y014436D03*
X008360Y014476D03*
X008360Y014516D03*
X008360Y014556D03*
X008360Y014596D03*
X008360Y014636D03*
X008360Y014676D03*
X008360Y014716D03*
X008360Y014756D03*
X008360Y014796D03*
X008360Y014836D03*
X008360Y014876D03*
X008360Y014916D03*
X008360Y014956D03*
X008360Y014996D03*
X008360Y015036D03*
X008360Y015076D03*
X008360Y015116D03*
X008360Y015156D03*
X008360Y015196D03*
X008360Y015236D03*
X008360Y015276D03*
X008360Y015316D03*
X008360Y015356D03*
X008360Y015396D03*
X008360Y015436D03*
X008360Y015476D03*
D14*
X008360Y004136D03*
X008400Y004136D03*
X008440Y004136D03*
X008440Y004176D03*
X008480Y004176D03*
X008520Y004176D03*
X008560Y004176D03*
X008600Y004176D03*
X008640Y004176D03*
X008680Y004176D03*
X008720Y004176D03*
X008760Y004176D03*
X008800Y004176D03*
X008840Y004176D03*
X008880Y004176D03*
X008920Y004176D03*
X008960Y004176D03*
X009000Y004176D03*
X009040Y004176D03*
X009080Y004176D03*
X009120Y004176D03*
X009160Y004176D03*
X009200Y004176D03*
X009240Y004176D03*
X009280Y004176D03*
X009320Y004176D03*
X009360Y004176D03*
X009400Y004176D03*
X009440Y004176D03*
X009480Y004176D03*
X009520Y004176D03*
X009560Y004176D03*
X009600Y004176D03*
X009640Y004176D03*
X009680Y004176D03*
X009720Y004176D03*
X009760Y004176D03*
X009800Y004176D03*
X009840Y004176D03*
X009880Y004176D03*
X009920Y004176D03*
X009960Y004176D03*
X010000Y004176D03*
X010040Y004176D03*
X010080Y004176D03*
X010120Y004176D03*
X010160Y004176D03*
X010200Y004176D03*
X010240Y004176D03*
X010240Y004136D03*
X010200Y004136D03*
X010160Y004136D03*
X010120Y004136D03*
X010080Y004136D03*
X010040Y004136D03*
X010000Y004136D03*
X009960Y004136D03*
X009920Y004136D03*
X009880Y004136D03*
X009840Y004136D03*
X009800Y004136D03*
X009760Y004136D03*
X009720Y004136D03*
X009680Y004136D03*
X009640Y004136D03*
X009600Y004136D03*
X009560Y004136D03*
X009520Y004136D03*
X009480Y004136D03*
X009440Y004136D03*
X009400Y004136D03*
X009360Y004136D03*
X009320Y004136D03*
X009280Y004136D03*
X009240Y004136D03*
X009200Y004136D03*
X009160Y004136D03*
X009120Y004136D03*
X009080Y004136D03*
X009040Y004136D03*
X009000Y004136D03*
X008960Y004136D03*
X008920Y004136D03*
X008880Y004136D03*
X008840Y004136D03*
X008800Y004136D03*
X008760Y004136D03*
X008720Y004136D03*
X008680Y004136D03*
X008640Y004136D03*
X008600Y004136D03*
X008560Y004136D03*
X008520Y004136D03*
X008480Y004136D03*
X008380Y005596D03*
X008340Y005596D03*
X008920Y006616D03*
X008960Y006616D03*
X008920Y006696D03*
X008920Y006736D03*
X008860Y006756D03*
X008860Y006716D03*
X008780Y006716D03*
X008660Y006956D03*
X008400Y007136D03*
X008020Y006876D03*
X008040Y006776D03*
X008000Y006776D03*
X007960Y006776D03*
X007680Y007096D03*
X007620Y007116D03*
X007580Y007116D03*
X007520Y006776D03*
X007400Y006776D03*
X008300Y007636D03*
X008360Y007656D03*
X008400Y007656D03*
X008440Y007656D03*
X008360Y007616D03*
X008660Y007636D03*
X008540Y008236D03*
X008700Y008436D03*
X008740Y008436D03*
X008720Y008616D03*
X008680Y008616D03*
X008640Y008776D03*
X008440Y008656D03*
X008500Y008556D03*
X008280Y008656D03*
X008240Y008656D03*
X008180Y008716D03*
X008140Y009356D03*
X008420Y009436D03*
X008640Y009416D03*
X008800Y009536D03*
X008740Y009636D03*
X008700Y009796D03*
X008720Y009816D03*
X008800Y009896D03*
X008300Y010156D03*
X008100Y010116D03*
X008060Y010116D03*
X008280Y010776D03*
X008440Y010776D03*
X008520Y010776D03*
X008540Y010756D03*
X008660Y010836D03*
X008700Y010836D03*
X008760Y010856D03*
X008660Y011196D03*
X008480Y011256D03*
X008440Y011256D03*
X008700Y011436D03*
X008560Y011776D03*
X008440Y011776D03*
X008400Y011776D03*
X008360Y011776D03*
X008320Y011776D03*
X007640Y012336D03*
X007600Y012336D03*
X007980Y012596D03*
X008740Y012756D03*
X008780Y012756D03*
X008860Y012756D03*
X008980Y012756D03*
X008940Y012876D03*
X010100Y013236D03*
X010140Y013236D03*
X010180Y013236D03*
X010220Y013236D03*
X010260Y013236D03*
X010300Y013236D03*
X010340Y013236D03*
X010380Y013236D03*
X010420Y013236D03*
X010460Y013236D03*
X010500Y013236D03*
X010540Y013236D03*
X010580Y013236D03*
X010620Y013236D03*
X010660Y013236D03*
X010700Y013236D03*
X010740Y013236D03*
X010780Y013236D03*
X010820Y013236D03*
X010860Y013236D03*
X010900Y013236D03*
X010940Y013236D03*
X010980Y013236D03*
X011020Y013236D03*
X011060Y013236D03*
X011100Y013236D03*
X011140Y013236D03*
X011180Y013236D03*
X011220Y013236D03*
X011260Y013236D03*
X011300Y013236D03*
X011340Y013236D03*
X011380Y013236D03*
X011420Y013236D03*
X012280Y013176D03*
X012400Y013216D03*
X012440Y013096D03*
X012320Y013056D03*
X012260Y013036D03*
X012320Y012896D03*
X012440Y012856D03*
X012560Y012816D03*
X012680Y012776D03*
X012520Y012696D03*
X012400Y012736D03*
X012820Y012596D03*
X012940Y012556D03*
X013140Y012636D03*
X013260Y012596D03*
X013380Y012556D03*
X013280Y012456D03*
X013280Y012256D03*
X013320Y012256D03*
X013360Y012256D03*
X013400Y012256D03*
X013440Y012256D03*
X013480Y012256D03*
X013520Y012256D03*
X013560Y012256D03*
X013600Y012256D03*
X013640Y012256D03*
X013680Y012256D03*
X013640Y012336D03*
X013520Y012136D03*
X013480Y012136D03*
X013440Y012136D03*
X013400Y012136D03*
X013360Y012136D03*
X013320Y012136D03*
X013280Y012136D03*
X013240Y012136D03*
X013200Y012136D03*
X013200Y012256D03*
X013240Y012256D03*
X012420Y012116D03*
X012380Y012116D03*
X012340Y012116D03*
X012300Y012116D03*
X012260Y012116D03*
X012220Y012116D03*
X011040Y012376D03*
X010980Y012396D03*
X010940Y012396D03*
X010900Y012396D03*
X010860Y012396D03*
X010700Y012356D03*
X010160Y012456D03*
X010200Y012816D03*
X010800Y011296D03*
X010840Y011296D03*
X010880Y011296D03*
X010920Y011296D03*
X010960Y011296D03*
X010960Y011136D03*
X010920Y011136D03*
X010880Y011136D03*
X010680Y011096D03*
X010600Y011056D03*
X010820Y010756D03*
X010880Y010776D03*
X010960Y010776D03*
X011120Y011096D03*
X011220Y011316D03*
X011200Y011336D03*
X012080Y011056D03*
X012120Y011056D03*
X012160Y011056D03*
X012200Y011056D03*
X012240Y011056D03*
X012280Y011056D03*
X012320Y011056D03*
X012360Y011056D03*
X012400Y011056D03*
X012440Y011056D03*
X012480Y011056D03*
X012520Y011056D03*
X012560Y011056D03*
X012600Y011056D03*
X012640Y011056D03*
X012680Y011056D03*
X012720Y011056D03*
X012760Y011056D03*
X012800Y011056D03*
X012840Y011056D03*
X012880Y011056D03*
X012920Y011056D03*
X012960Y011056D03*
X013000Y011056D03*
X013040Y011056D03*
X013080Y011056D03*
X013120Y011056D03*
X013160Y011056D03*
X013200Y011056D03*
X013240Y011056D03*
X013280Y011056D03*
X013320Y011056D03*
X013360Y011056D03*
X013400Y011056D03*
X013440Y011056D03*
X013480Y011056D03*
X013520Y011056D03*
X013560Y011056D03*
X013600Y011056D03*
X013640Y011056D03*
X013680Y011056D03*
X013660Y011196D03*
X013620Y011196D03*
X013580Y011196D03*
X013540Y011196D03*
X013500Y011196D03*
X013460Y011196D03*
X013420Y011196D03*
X013380Y011196D03*
X013340Y011196D03*
X013300Y011196D03*
X013260Y011196D03*
X013280Y010936D03*
X013320Y010936D03*
X013360Y010936D03*
X013400Y010936D03*
X013440Y010936D03*
X013480Y010936D03*
X013520Y010936D03*
X013240Y010936D03*
X013200Y010936D03*
X013160Y010936D03*
X013120Y010936D03*
X013080Y010936D03*
X013040Y010936D03*
X013000Y010936D03*
X012800Y010936D03*
X012760Y010936D03*
X012720Y010936D03*
X012680Y010936D03*
X012640Y010936D03*
X012600Y010936D03*
X012560Y010936D03*
X012520Y010936D03*
X012480Y010936D03*
X012440Y010936D03*
X012400Y010936D03*
X012360Y010936D03*
X012320Y010936D03*
X012280Y010936D03*
X012240Y010936D03*
X012180Y010036D03*
X012140Y010036D03*
X012100Y010036D03*
X012060Y010036D03*
X012420Y009796D03*
X012460Y009796D03*
X012500Y009796D03*
X012540Y009796D03*
X012580Y009796D03*
X012620Y009796D03*
X012660Y009796D03*
X012700Y009796D03*
X012740Y009796D03*
X012780Y009796D03*
X012820Y009796D03*
X012860Y009796D03*
X012900Y009796D03*
X012940Y009796D03*
X012980Y009796D03*
X013020Y009796D03*
X013060Y009796D03*
X013100Y009796D03*
X013140Y009796D03*
X013180Y009796D03*
X013220Y009796D03*
X013260Y009796D03*
X013300Y009796D03*
X013340Y009796D03*
X013380Y009796D03*
X013420Y009796D03*
X013460Y009796D03*
X012940Y010036D03*
X012900Y010036D03*
X012860Y010036D03*
X012660Y009396D03*
X012660Y008676D03*
X012620Y008676D03*
X012580Y008676D03*
X012540Y008676D03*
X012500Y008676D03*
X012460Y008676D03*
X012420Y008676D03*
X012700Y008676D03*
X012740Y008676D03*
X012780Y008676D03*
X012820Y008676D03*
X012860Y008676D03*
X012900Y008676D03*
X012940Y008676D03*
X012980Y008676D03*
X013020Y008676D03*
X013060Y008676D03*
X013100Y008676D03*
X013140Y008676D03*
X013180Y008676D03*
X013220Y008676D03*
X013260Y008676D03*
X013300Y008676D03*
X013340Y008676D03*
X013380Y008676D03*
X013420Y008676D03*
X013460Y008676D03*
X013500Y008676D03*
X013540Y008676D03*
X013580Y008676D03*
X013620Y008676D03*
X013660Y008676D03*
X013680Y007416D03*
X013640Y007416D03*
X013600Y007416D03*
X013620Y007156D03*
X013660Y007156D03*
X013580Y007156D03*
X013540Y007156D03*
X013500Y007156D03*
X013460Y007156D03*
X013420Y007156D03*
X013380Y007156D03*
X013340Y007156D03*
X013300Y007156D03*
X013260Y007156D03*
X013220Y007156D03*
X013180Y007156D03*
X013140Y007156D03*
X013100Y007156D03*
X013060Y007156D03*
X013020Y007156D03*
X012980Y007156D03*
X012940Y007156D03*
X012900Y007156D03*
X012860Y007156D03*
X012820Y007156D03*
X012780Y007156D03*
X012740Y007156D03*
X012700Y007156D03*
X012660Y007156D03*
X012620Y007156D03*
X012580Y007156D03*
X012540Y007156D03*
X012500Y007156D03*
X012460Y007156D03*
X012420Y007156D03*
X012160Y007416D03*
X012120Y007416D03*
X012080Y007416D03*
X012840Y007416D03*
X012880Y007416D03*
X012920Y007416D03*
X012940Y006276D03*
X012900Y006276D03*
X012860Y006276D03*
X012820Y006276D03*
X012780Y006276D03*
X012740Y006276D03*
X012700Y006276D03*
X012660Y006276D03*
X012620Y006276D03*
X012580Y006276D03*
X012540Y006276D03*
X012500Y006276D03*
X012460Y006276D03*
X012420Y006276D03*
X012380Y006276D03*
X012340Y006276D03*
X012300Y006276D03*
X012260Y006276D03*
X012060Y006316D03*
X012040Y006296D03*
X012980Y006276D03*
X013020Y006276D03*
X013060Y006276D03*
X013100Y006276D03*
X013140Y006276D03*
X013180Y006276D03*
X013220Y006276D03*
X013260Y006276D03*
X013300Y006276D03*
X013600Y005736D03*
X013640Y005736D03*
X013680Y005736D03*
X013700Y005076D03*
X013740Y005076D03*
X013780Y005076D03*
X013820Y005076D03*
X013660Y005076D03*
X013620Y005076D03*
X013580Y005076D03*
X013540Y005076D03*
X013500Y005076D03*
X013460Y005076D03*
X012900Y004556D03*
X012860Y004556D03*
X012840Y004176D03*
X012800Y004176D03*
X012760Y004176D03*
X012720Y004176D03*
X012680Y004176D03*
X012640Y004176D03*
X012600Y004176D03*
X012560Y004176D03*
X012520Y004176D03*
X012480Y004176D03*
X012440Y004176D03*
X012400Y004176D03*
X012360Y004176D03*
X012320Y004176D03*
X012280Y004176D03*
X012240Y004176D03*
X012200Y004176D03*
X012160Y004176D03*
X012120Y004176D03*
X012080Y004176D03*
X012040Y004176D03*
X012000Y004176D03*
X011960Y004176D03*
X011920Y004176D03*
X011880Y004176D03*
X011840Y004176D03*
X011800Y004176D03*
X011760Y004176D03*
X011720Y004176D03*
X011680Y004176D03*
X011640Y004176D03*
X011600Y004176D03*
X011560Y004176D03*
X011520Y004176D03*
X011480Y004176D03*
X011440Y004176D03*
X011400Y004176D03*
X011360Y004176D03*
X011320Y004176D03*
X011280Y004176D03*
X011240Y004176D03*
X011200Y004176D03*
X011160Y004176D03*
X011120Y004176D03*
X011080Y004176D03*
X011040Y004176D03*
X011040Y004136D03*
X011080Y004136D03*
X011120Y004136D03*
X011160Y004136D03*
X011200Y004136D03*
X011240Y004136D03*
X011280Y004136D03*
X011320Y004136D03*
X011360Y004136D03*
X011400Y004136D03*
X011440Y004136D03*
X011480Y004136D03*
X011520Y004136D03*
X011560Y004136D03*
X011600Y004136D03*
X011640Y004136D03*
X011680Y004136D03*
X011720Y004136D03*
X011760Y004136D03*
X011800Y004136D03*
X011840Y004136D03*
X011880Y004136D03*
X011920Y004136D03*
X011960Y004136D03*
X012000Y004136D03*
X012040Y004136D03*
X012080Y004136D03*
X012120Y004136D03*
X012160Y004136D03*
X012200Y004136D03*
X012240Y004136D03*
X012280Y004136D03*
X012320Y004136D03*
X012360Y004136D03*
X012400Y004136D03*
X012440Y004136D03*
X012480Y004136D03*
X012520Y004136D03*
X012560Y004136D03*
X012600Y004136D03*
X012640Y004136D03*
X012680Y004136D03*
X012720Y004136D03*
X012760Y004136D03*
X012800Y004136D03*
X012840Y004136D03*
X012880Y004136D03*
X011000Y004136D03*
X011140Y007076D03*
X011180Y007076D03*
X011180Y008116D03*
X011080Y008256D03*
X011020Y008236D03*
X010980Y008236D03*
X010940Y008236D03*
X010900Y008236D03*
X010800Y008256D03*
X010740Y008276D03*
X010360Y008416D03*
X010240Y008736D03*
X010420Y009036D03*
X010460Y009036D03*
X010500Y009036D03*
X010540Y009036D03*
X010580Y009036D03*
X010620Y009036D03*
X010660Y009036D03*
X010700Y009036D03*
X010720Y009136D03*
X010680Y009136D03*
X010640Y009136D03*
X010600Y009136D03*
X010560Y009136D03*
X010520Y009136D03*
X010480Y009136D03*
X010440Y009136D03*
X010400Y009136D03*
X010360Y009136D03*
X010320Y009136D03*
X010280Y009136D03*
X010240Y009136D03*
X010200Y009136D03*
X010160Y009136D03*
X010120Y009136D03*
X010080Y009136D03*
X010080Y009496D03*
X010120Y009496D03*
X010160Y009496D03*
X010200Y009496D03*
X010240Y009496D03*
X010280Y009496D03*
X010320Y009496D03*
X010360Y009496D03*
X010400Y009496D03*
X010440Y009496D03*
X010480Y009496D03*
X010520Y009496D03*
X010560Y009496D03*
X010600Y009496D03*
X010640Y009496D03*
X010680Y009496D03*
X010720Y009496D03*
X010760Y009496D03*
X010800Y009496D03*
X010840Y009496D03*
X010880Y009496D03*
X010920Y009496D03*
X010960Y009496D03*
X011000Y009496D03*
X011040Y009496D03*
X011080Y009496D03*
X011120Y009496D03*
X011160Y009496D03*
X011200Y009496D03*
X011240Y009496D03*
X011280Y009496D03*
X011320Y009496D03*
X011360Y009496D03*
X011400Y009496D03*
X011440Y009496D03*
X011120Y009136D03*
X011080Y009136D03*
X011040Y009136D03*
X011000Y009136D03*
X010960Y009136D03*
X010920Y009136D03*
X010880Y009136D03*
X010840Y009136D03*
X010800Y009136D03*
X010760Y009136D03*
X010040Y009496D03*
X010000Y009496D03*
X009960Y009496D03*
X009920Y009496D03*
X009880Y009496D03*
X009840Y009496D03*
X009800Y009496D03*
X009820Y009956D03*
X009860Y009956D03*
X009900Y009956D03*
X009940Y009956D03*
X009980Y009956D03*
X010020Y009956D03*
X010060Y009956D03*
X010100Y009956D03*
X010140Y009956D03*
X010180Y009956D03*
X010220Y009956D03*
X010260Y009956D03*
X010300Y009956D03*
X010340Y009956D03*
X010380Y009956D03*
X010420Y009956D03*
X010460Y009956D03*
X010500Y009956D03*
X010540Y009956D03*
X010580Y009956D03*
X010620Y009956D03*
X010660Y009956D03*
X010700Y009956D03*
X010740Y009956D03*
X010780Y009956D03*
X010820Y009956D03*
X010860Y009956D03*
X010900Y009956D03*
X010940Y009956D03*
X010980Y009956D03*
X011020Y009956D03*
X011060Y009956D03*
X011100Y009956D03*
X011140Y009956D03*
X011180Y009956D03*
X011220Y009956D03*
X011260Y009956D03*
X011300Y009956D03*
X011340Y009956D03*
X011380Y009956D03*
X011420Y009956D03*
X010440Y010296D03*
X010400Y010296D03*
X010360Y010296D03*
X010320Y010296D03*
X010280Y010296D03*
X010240Y010296D03*
X010200Y010296D03*
X010160Y010296D03*
X010120Y010296D03*
X010080Y010296D03*
X010040Y010296D03*
X010000Y010296D03*
X009960Y010296D03*
X009920Y010296D03*
X009880Y010296D03*
X009840Y010296D03*
X009800Y010296D03*
X009760Y010296D03*
X009720Y010296D03*
X009680Y010296D03*
X009700Y009956D03*
X009740Y009956D03*
X009780Y009956D03*
X009660Y009956D03*
X007240Y010616D03*
X012600Y013136D03*
X012560Y013256D03*
X012680Y013296D03*
X012720Y013176D03*
X012960Y013376D03*
X013140Y013436D03*
X013220Y013316D03*
X013400Y013376D03*
X013420Y013516D03*
X012900Y013796D03*
X012860Y013796D03*
X012820Y013796D03*
X012820Y014716D03*
X012860Y014716D03*
X012900Y014716D03*
X012940Y014716D03*
X012980Y014716D03*
X013020Y014716D03*
X013060Y014716D03*
X013100Y014716D03*
X013140Y014716D03*
X013180Y014716D03*
X013220Y014716D03*
X013260Y014716D03*
X013300Y014716D03*
X013340Y014716D03*
X013380Y014716D03*
X013420Y014716D03*
X013460Y014716D03*
X012780Y014716D03*
X012740Y014716D03*
X012700Y014716D03*
X012660Y014716D03*
X012620Y014716D03*
X012580Y014716D03*
X012540Y014716D03*
X012500Y014716D03*
X012460Y014716D03*
X012420Y014716D03*
X012380Y014716D03*
X012340Y014716D03*
X012300Y014716D03*
X012260Y014716D03*
X012220Y014716D03*
X012180Y014716D03*
X012140Y014716D03*
X012100Y014716D03*
X012060Y014716D03*
X012060Y015476D03*
X012100Y015476D03*
X012140Y015476D03*
X012180Y015476D03*
X012220Y015476D03*
X012260Y015476D03*
X012300Y015476D03*
X012340Y015476D03*
X012380Y015476D03*
X012420Y015476D03*
X012460Y015476D03*
X012500Y015476D03*
X012540Y015476D03*
X012580Y015476D03*
X012620Y015476D03*
X012660Y015476D03*
X012700Y015476D03*
X012740Y015476D03*
X012780Y015476D03*
X012820Y015476D03*
X012020Y015476D03*
X011980Y015476D03*
X011940Y015476D03*
X011900Y015476D03*
X011860Y015476D03*
X011820Y015476D03*
X011780Y015476D03*
X011740Y015476D03*
X011700Y015476D03*
X011660Y015476D03*
X011620Y015476D03*
X011580Y015476D03*
X011540Y015476D03*
X011500Y015476D03*
X011460Y015476D03*
X011420Y015476D03*
X011380Y015476D03*
X011340Y015476D03*
X011300Y015476D03*
X011260Y015476D03*
X011220Y015476D03*
X011180Y015476D03*
X011140Y015476D03*
X011100Y015476D03*
X011060Y015476D03*
X011020Y015476D03*
X010980Y015476D03*
X010940Y015476D03*
X010900Y015476D03*
X010860Y015476D03*
X010820Y015476D03*
X010780Y015476D03*
X010740Y015476D03*
X010700Y015476D03*
X010660Y015476D03*
X010620Y015476D03*
X010580Y015476D03*
X010540Y015476D03*
X010500Y015476D03*
X010460Y015476D03*
X010420Y015476D03*
X010380Y015476D03*
X010340Y015476D03*
X010300Y015476D03*
X010260Y015476D03*
X010220Y015476D03*
X010180Y015476D03*
X010140Y015476D03*
X010100Y015476D03*
X010060Y015476D03*
X010020Y015476D03*
X009980Y015476D03*
X009940Y015476D03*
X009900Y015476D03*
X009860Y015476D03*
X009820Y015476D03*
X009780Y015476D03*
X009740Y015476D03*
X009700Y015476D03*
X009660Y015476D03*
X009620Y015476D03*
X009580Y015476D03*
X009540Y015476D03*
X009500Y015476D03*
X009460Y015476D03*
X009420Y015476D03*
X009380Y015476D03*
X009340Y015476D03*
X009300Y015476D03*
X009260Y015476D03*
X009220Y015476D03*
X009180Y015476D03*
X009140Y015476D03*
X009100Y015476D03*
X009060Y015476D03*
X009020Y015476D03*
X008980Y015476D03*
X008940Y015476D03*
X008900Y015476D03*
X008860Y015476D03*
X008820Y015476D03*
X008780Y015476D03*
X008740Y015476D03*
X008700Y015476D03*
X008660Y015476D03*
X008620Y015476D03*
X008580Y015476D03*
X008540Y015476D03*
X008500Y015476D03*
X008460Y015476D03*
X008420Y015476D03*
D15*
X008370Y015456D03*
X008370Y015416D03*
X008370Y015376D03*
X008370Y015336D03*
X008370Y015296D03*
X008370Y015256D03*
X008370Y015216D03*
X008370Y015176D03*
X008370Y015136D03*
X008370Y015096D03*
X008370Y015056D03*
X008370Y015016D03*
X008370Y014976D03*
X008370Y014936D03*
X008370Y014896D03*
X008370Y014856D03*
X008370Y014816D03*
X008370Y014776D03*
X008370Y014736D03*
X008370Y014696D03*
X008370Y014656D03*
X008370Y014616D03*
X008370Y014576D03*
X008370Y014536D03*
X008370Y014496D03*
X008370Y014456D03*
X008370Y014416D03*
X008370Y014376D03*
X008370Y014336D03*
X008370Y014296D03*
X008370Y014256D03*
X008370Y014216D03*
X008370Y014176D03*
X008370Y014136D03*
X011430Y012356D03*
X008730Y011056D03*
X008670Y011176D03*
X006910Y009936D03*
X006910Y009496D03*
X006930Y009456D03*
X008730Y009616D03*
X008710Y009836D03*
X009310Y009816D03*
X009310Y009776D03*
X009310Y009736D03*
X009310Y009696D03*
X009310Y009656D03*
X009310Y009616D03*
X009270Y009416D03*
X008710Y008096D03*
X008970Y006736D03*
X008370Y005416D03*
X008370Y005376D03*
X008370Y005336D03*
X008370Y005296D03*
X008370Y005256D03*
X008370Y005216D03*
X008370Y005176D03*
X008370Y005136D03*
X008370Y005096D03*
X008370Y005056D03*
X008370Y005016D03*
X008370Y004976D03*
X008370Y004936D03*
X008370Y004896D03*
X008370Y004856D03*
X008370Y004816D03*
X008370Y004776D03*
X008370Y004736D03*
X008370Y004696D03*
X008370Y004656D03*
X008370Y004616D03*
X008370Y004576D03*
X008370Y004536D03*
X008370Y004496D03*
X008370Y004456D03*
X008370Y004416D03*
X008370Y004376D03*
X008370Y004336D03*
X008370Y004296D03*
X008370Y004256D03*
X008370Y004216D03*
X012890Y004216D03*
X012890Y004256D03*
X012890Y004296D03*
X012890Y004336D03*
X012890Y004376D03*
X012890Y004176D03*
X013170Y009036D03*
X012870Y015276D03*
X012870Y015316D03*
X012870Y015356D03*
X012870Y015396D03*
X012870Y015436D03*
X012870Y015476D03*
D16*
X012860Y015236D03*
X012860Y015116D03*
X012120Y014576D03*
X012120Y014536D03*
X012120Y014496D03*
X012120Y014456D03*
X012120Y014416D03*
X012120Y014376D03*
X012120Y014336D03*
X012120Y014296D03*
X012120Y014256D03*
X012120Y014216D03*
X012120Y014176D03*
X012120Y014136D03*
X012120Y014096D03*
X012120Y014056D03*
X012120Y014016D03*
X012120Y013976D03*
X012120Y013936D03*
X012120Y013896D03*
X012960Y013216D03*
X012960Y013176D03*
X012960Y013136D03*
X012960Y013096D03*
X012960Y013056D03*
X012960Y013016D03*
X012960Y012976D03*
X012960Y012936D03*
X012960Y012896D03*
X012960Y012856D03*
X012960Y012816D03*
X012960Y012776D03*
X012960Y012736D03*
X013600Y012376D03*
X013620Y012356D03*
X012120Y010896D03*
X012120Y010856D03*
X012120Y010816D03*
X012120Y010776D03*
X012120Y010736D03*
X012120Y010696D03*
X012120Y010656D03*
X012120Y010616D03*
X012120Y010576D03*
X012120Y010536D03*
X012120Y010496D03*
X012120Y010456D03*
X012120Y010416D03*
X012120Y010376D03*
X012120Y010336D03*
X012120Y010296D03*
X012120Y010256D03*
X012120Y010216D03*
X012120Y010176D03*
X012120Y010136D03*
X012120Y010096D03*
X012120Y010056D03*
X013160Y009056D03*
X013620Y009756D03*
X012120Y008296D03*
X012120Y008256D03*
X012120Y008216D03*
X012120Y008176D03*
X012120Y008136D03*
X012120Y008096D03*
X012120Y008056D03*
X012120Y008016D03*
X012120Y007976D03*
X012120Y007936D03*
X012120Y007896D03*
X012120Y007856D03*
X012120Y007816D03*
X012120Y007776D03*
X012120Y007736D03*
X012120Y007696D03*
X012120Y007656D03*
X012120Y007616D03*
X012120Y007576D03*
X012120Y007536D03*
X012120Y007496D03*
X012120Y007456D03*
X008940Y006756D03*
X008760Y006776D03*
X008740Y006796D03*
X008860Y007036D03*
X008800Y007136D03*
X008780Y007176D03*
X008780Y007196D03*
X008760Y007216D03*
X008760Y007236D03*
X008760Y007256D03*
X008760Y007456D03*
X008740Y007476D03*
X008720Y007536D03*
X008700Y007556D03*
X008680Y007576D03*
X008580Y007636D03*
X008320Y007136D03*
X008160Y007096D03*
X008160Y007056D03*
X008160Y007016D03*
X008160Y006976D03*
X008160Y006936D03*
X007800Y006936D03*
X007760Y006976D03*
X007600Y007096D03*
X008700Y008316D03*
X008720Y008336D03*
X008720Y008376D03*
X008720Y008416D03*
X008860Y008396D03*
X008800Y008736D03*
X008940Y008836D03*
X008960Y008856D03*
X008980Y008876D03*
X009020Y008916D03*
X008700Y009076D03*
X008700Y009116D03*
X008680Y009136D03*
X008620Y008816D03*
X008520Y008616D03*
X008760Y009456D03*
X008780Y009476D03*
X008700Y009556D03*
X008680Y009536D03*
X008660Y009516D03*
X008640Y009496D03*
X008660Y009916D03*
X008640Y009936D03*
X008740Y009996D03*
X008740Y010016D03*
X008520Y010016D03*
X009060Y010476D03*
X009020Y010516D03*
X009000Y010536D03*
X008980Y010556D03*
X008960Y010576D03*
X008940Y010596D03*
X008920Y010616D03*
X008900Y010636D03*
X008880Y010656D03*
X008860Y010676D03*
X008740Y010636D03*
X008660Y010716D03*
X008600Y010616D03*
X008680Y010856D03*
X008840Y011016D03*
X008860Y011076D03*
X008880Y011136D03*
X008700Y011156D03*
X008580Y011796D03*
X008600Y011816D03*
X008660Y011876D03*
X008700Y011916D03*
X008740Y011996D03*
X008740Y012036D03*
X008740Y012076D03*
X008740Y012116D03*
X008740Y012156D03*
X008740Y012196D03*
X008760Y012276D03*
X008780Y012316D03*
X008800Y012336D03*
X008820Y012376D03*
X008820Y012396D03*
X008840Y012416D03*
X008740Y012676D03*
X008760Y012696D03*
X008180Y012476D03*
X008180Y012456D03*
X008180Y012436D03*
X008180Y012416D03*
X008180Y012396D03*
X008160Y012376D03*
X008160Y012336D03*
X008160Y012296D03*
X008160Y012496D03*
X008160Y012536D03*
X007800Y012536D03*
X007760Y012496D03*
X007740Y012476D03*
X007720Y012456D03*
X007460Y012716D03*
X008360Y014016D03*
X011240Y011376D03*
X007300Y010636D03*
X007260Y010596D03*
X007180Y010516D03*
X007100Y010396D03*
X006940Y009396D03*
X007060Y009116D03*
X007140Y008996D03*
X007360Y008776D03*
X007380Y008756D03*
X007400Y008736D03*
X008360Y005576D03*
X012880Y004536D03*
D17*
X012890Y004456D03*
X012110Y004836D03*
X012110Y004856D03*
X012110Y004876D03*
X012110Y004896D03*
X012110Y004916D03*
X012110Y004936D03*
X012110Y004956D03*
X012110Y004976D03*
X012110Y004996D03*
X012110Y005016D03*
X012110Y005036D03*
X012110Y005056D03*
X012110Y005076D03*
X012110Y005096D03*
X012110Y005116D03*
X012110Y005136D03*
X012110Y005156D03*
X012110Y005176D03*
X012110Y005196D03*
X012110Y005216D03*
X012110Y005236D03*
X012110Y005256D03*
X012110Y005276D03*
X012110Y005296D03*
X012110Y005316D03*
X012110Y005336D03*
X012110Y005356D03*
X012110Y005376D03*
X012110Y005516D03*
X012110Y005536D03*
X012110Y005556D03*
X012110Y005576D03*
X012110Y005596D03*
X012110Y005616D03*
X012110Y005636D03*
X012110Y005656D03*
X012110Y005676D03*
X012110Y005696D03*
X012110Y005716D03*
X012110Y005736D03*
X012110Y005756D03*
X012110Y005776D03*
X012110Y005796D03*
X012110Y005816D03*
X012110Y005836D03*
X012110Y005856D03*
X012110Y005876D03*
X012110Y005896D03*
X012110Y005916D03*
X012110Y005936D03*
X012110Y005956D03*
X012110Y005976D03*
X012110Y005996D03*
X012110Y006016D03*
X012110Y006036D03*
X012110Y006056D03*
X012110Y006076D03*
X013630Y005716D03*
X013630Y005676D03*
X013630Y005636D03*
X013630Y005596D03*
X013630Y005556D03*
X013630Y005516D03*
X013630Y005356D03*
X013630Y005316D03*
X013630Y005276D03*
X013630Y005236D03*
X013630Y007436D03*
X013630Y007456D03*
X013630Y007476D03*
X013630Y007496D03*
X013630Y007516D03*
X013630Y007536D03*
X013630Y007556D03*
X013630Y007576D03*
X013630Y007596D03*
X013630Y007616D03*
X013630Y007636D03*
X013630Y007656D03*
X013630Y007676D03*
X013630Y007696D03*
X013630Y007716D03*
X013630Y007736D03*
X013630Y007756D03*
X013630Y007776D03*
X013630Y007796D03*
X013630Y007816D03*
X013630Y007836D03*
X013630Y007856D03*
X013630Y007876D03*
X013630Y007896D03*
X013630Y007916D03*
X013630Y007936D03*
X013630Y007956D03*
X013630Y007976D03*
X013630Y007996D03*
X013630Y008016D03*
X013630Y008036D03*
X013630Y008056D03*
X013630Y008076D03*
X013630Y008096D03*
X013630Y008116D03*
X013630Y008136D03*
X013630Y008156D03*
X013630Y008176D03*
X013630Y008196D03*
X013630Y008216D03*
X013630Y008236D03*
X013630Y008256D03*
X013630Y008276D03*
X013630Y008296D03*
X012890Y008276D03*
X012890Y008256D03*
X012890Y008236D03*
X012890Y008216D03*
X012890Y008196D03*
X012890Y008176D03*
X012890Y008156D03*
X012890Y008136D03*
X012890Y008116D03*
X012890Y008096D03*
X012890Y008076D03*
X012890Y008056D03*
X012890Y008036D03*
X012890Y008016D03*
X012890Y007996D03*
X012890Y007976D03*
X012890Y007956D03*
X012890Y007936D03*
X012890Y007916D03*
X012890Y007896D03*
X012890Y007876D03*
X012890Y007856D03*
X012890Y007836D03*
X012890Y007816D03*
X012890Y007796D03*
X012890Y007776D03*
X012890Y007756D03*
X012890Y007736D03*
X012890Y007716D03*
X012890Y007696D03*
X012890Y007676D03*
X012890Y007656D03*
X012890Y007636D03*
X012890Y007616D03*
X012890Y007596D03*
X012890Y007576D03*
X012890Y007556D03*
X012890Y007536D03*
X012890Y007516D03*
X012890Y007496D03*
X012890Y007476D03*
X012890Y007456D03*
X012890Y007436D03*
X012890Y010056D03*
X012890Y010076D03*
X012890Y010096D03*
X012890Y010116D03*
X012890Y010136D03*
X012890Y010156D03*
X012890Y010176D03*
X012890Y010196D03*
X012890Y010216D03*
X012890Y010236D03*
X012890Y010256D03*
X012890Y010276D03*
X012890Y010296D03*
X012890Y010316D03*
X012890Y010336D03*
X012890Y010356D03*
X012890Y010376D03*
X012890Y010396D03*
X012890Y010416D03*
X012890Y010436D03*
X012890Y010456D03*
X012890Y010476D03*
X012890Y010496D03*
X012890Y010516D03*
X012890Y010536D03*
X012890Y010556D03*
X012890Y010576D03*
X012890Y010596D03*
X012890Y010616D03*
X012890Y010636D03*
X012890Y010656D03*
X012890Y010676D03*
X012890Y010696D03*
X012890Y010716D03*
X012890Y010736D03*
X012890Y010756D03*
X012890Y010776D03*
X012890Y010796D03*
X012890Y010816D03*
X012890Y010836D03*
X012890Y010856D03*
X012890Y010876D03*
X012890Y010896D03*
X012890Y010916D03*
X013630Y010916D03*
X013630Y010896D03*
X013630Y010876D03*
X013630Y010856D03*
X013630Y010836D03*
X013630Y010816D03*
X013630Y010796D03*
X013630Y010776D03*
X013630Y010756D03*
X013630Y010736D03*
X013630Y010716D03*
X013630Y010696D03*
X013630Y010676D03*
X013630Y010656D03*
X013630Y010636D03*
X013630Y010616D03*
X013630Y010596D03*
X013630Y010576D03*
X013630Y010556D03*
X013630Y010536D03*
X013630Y010516D03*
X013630Y010496D03*
X013630Y010476D03*
X013630Y010456D03*
X013630Y010436D03*
X013630Y010416D03*
X013630Y010396D03*
X013630Y010376D03*
X013630Y010356D03*
X013630Y010336D03*
X013630Y010316D03*
X013630Y010296D03*
X013630Y010276D03*
X013630Y010256D03*
X013630Y010236D03*
X013630Y010216D03*
X013630Y010196D03*
X013630Y010176D03*
X013630Y010156D03*
X013630Y010136D03*
X013630Y010116D03*
X013630Y010096D03*
X013630Y010076D03*
X013630Y010056D03*
X013630Y010036D03*
X013630Y010016D03*
X013630Y009996D03*
X013630Y009976D03*
X013630Y011356D03*
X013630Y011396D03*
X013630Y011436D03*
X013630Y011476D03*
X013630Y011516D03*
X013630Y011556D03*
X013630Y011596D03*
X013630Y011636D03*
X013630Y011676D03*
X013630Y011716D03*
X013630Y011756D03*
X013630Y011796D03*
X013630Y011836D03*
X013630Y011876D03*
X013630Y011916D03*
X013630Y011956D03*
X013630Y011996D03*
X013630Y012036D03*
X013630Y012076D03*
X013630Y012116D03*
X012170Y012936D03*
X012170Y012956D03*
X012170Y012976D03*
X012170Y012996D03*
X012170Y013016D03*
X012170Y013036D03*
X011390Y012416D03*
X012110Y012096D03*
X012110Y012076D03*
X012110Y012056D03*
X012110Y012036D03*
X012110Y012016D03*
X012110Y011996D03*
X012110Y011976D03*
X012110Y011956D03*
X012110Y011936D03*
X012110Y011916D03*
X012110Y011896D03*
X012110Y011876D03*
X012110Y011856D03*
X012110Y011836D03*
X012110Y011816D03*
X012110Y011796D03*
X012110Y011776D03*
X012110Y011756D03*
X012110Y011736D03*
X012110Y011716D03*
X012110Y011696D03*
X012110Y011676D03*
X012110Y011656D03*
X012110Y011636D03*
X012110Y011616D03*
X012110Y011596D03*
X012110Y011576D03*
X012110Y011556D03*
X012110Y011536D03*
X012110Y011516D03*
X012110Y011496D03*
X012110Y011476D03*
X012110Y011456D03*
X012110Y011436D03*
X012110Y011416D03*
X012110Y011396D03*
X012110Y011376D03*
X012110Y011356D03*
X012110Y011336D03*
X008870Y011116D03*
X008870Y011096D03*
X008850Y011056D03*
X008850Y011036D03*
X008830Y010996D03*
X008710Y011076D03*
X008710Y011136D03*
X008790Y010716D03*
X008710Y010316D03*
X008750Y009436D03*
X008730Y009416D03*
X008770Y008636D03*
X008830Y008456D03*
X008850Y008416D03*
X008870Y008376D03*
X008870Y008336D03*
X008710Y008356D03*
X008710Y008396D03*
X008750Y008176D03*
X008750Y008156D03*
X008790Y007156D03*
X008810Y007116D03*
X008830Y007096D03*
X008850Y007056D03*
X008930Y006776D03*
X008170Y006996D03*
X008170Y007036D03*
X008150Y007116D03*
X007770Y006956D03*
X007830Y006896D03*
X008130Y006896D03*
X008150Y006916D03*
X007330Y008796D03*
X007290Y008836D03*
X008630Y011836D03*
X008650Y011856D03*
X008610Y012296D03*
X008810Y012356D03*
X008170Y012356D03*
X008150Y012316D03*
X008170Y012516D03*
X008150Y012556D03*
X008130Y012576D03*
X007830Y012576D03*
X007810Y012556D03*
X007770Y012516D03*
X008370Y014096D03*
X012870Y014096D03*
X012870Y014116D03*
X012870Y014136D03*
X012870Y014156D03*
X012870Y014176D03*
X012870Y014196D03*
X012870Y014216D03*
X012870Y014236D03*
X012870Y014256D03*
X012870Y014276D03*
X012870Y014296D03*
X012870Y014316D03*
X012870Y014336D03*
X012870Y014356D03*
X012870Y014376D03*
X012870Y014396D03*
X012870Y014416D03*
X012870Y014436D03*
X012870Y014456D03*
X012870Y014476D03*
X012870Y014496D03*
X012870Y014516D03*
X012870Y014536D03*
X012870Y014556D03*
X012870Y014576D03*
X012870Y014076D03*
X012870Y014056D03*
X012870Y014036D03*
X012870Y014016D03*
X012870Y013996D03*
X012870Y013976D03*
X012870Y013956D03*
X012870Y013936D03*
X013610Y013956D03*
X013610Y013996D03*
X013610Y014036D03*
X013610Y014076D03*
X013610Y014116D03*
X013610Y014156D03*
X013610Y014196D03*
X013610Y014236D03*
X013610Y014276D03*
X013610Y014316D03*
X013610Y014356D03*
X013610Y014396D03*
X013610Y014436D03*
X013610Y014476D03*
X013610Y014516D03*
X013610Y014756D03*
X012870Y015216D03*
X013610Y013916D03*
D18*
X013590Y013856D03*
X013550Y013796D03*
X013530Y013776D03*
X013490Y013716D03*
X013470Y013696D03*
X013050Y013776D03*
X012250Y013716D03*
X012210Y013756D03*
X012130Y013876D03*
X012190Y012916D03*
X011370Y012436D03*
X012590Y012056D03*
X012690Y011936D03*
X012730Y011896D03*
X012830Y011776D03*
X012890Y011716D03*
X012910Y011676D03*
X012930Y011656D03*
X013070Y011496D03*
X013110Y011456D03*
X013130Y011436D03*
X013150Y011396D03*
X013170Y011376D03*
X013190Y011356D03*
X013210Y011336D03*
X013610Y009956D03*
X013610Y009936D03*
X008850Y011196D03*
X008690Y010276D03*
X008490Y010036D03*
X008550Y008636D03*
X008750Y008656D03*
X008870Y008316D03*
X008770Y008216D03*
X008610Y007136D03*
X008910Y006816D03*
X008910Y006656D03*
X008910Y006636D03*
X008370Y005536D03*
X012890Y004496D03*
X008590Y012256D03*
X008610Y012316D03*
X008650Y012396D03*
X008650Y012416D03*
X008810Y012536D03*
X008890Y012816D03*
X008910Y012836D03*
X007530Y012576D03*
X008370Y014056D03*
X012870Y015156D03*
X012870Y015196D03*
D19*
X012860Y015176D03*
X012860Y015136D03*
X013600Y014736D03*
X013600Y014556D03*
X013620Y014536D03*
X013620Y014496D03*
X013620Y014456D03*
X013620Y014416D03*
X013620Y014376D03*
X013620Y014336D03*
X013620Y014296D03*
X013620Y014256D03*
X013620Y014216D03*
X013620Y014176D03*
X013620Y014136D03*
X013620Y014096D03*
X013620Y014056D03*
X013620Y014016D03*
X013620Y013976D03*
X013620Y013936D03*
X013620Y013896D03*
X013600Y013876D03*
X013520Y013756D03*
X013500Y013736D03*
X013580Y013536D03*
X012960Y013196D03*
X012960Y013156D03*
X012960Y013116D03*
X012960Y013076D03*
X012960Y013036D03*
X012960Y012996D03*
X012960Y012956D03*
X012960Y012916D03*
X012960Y012876D03*
X012960Y012836D03*
X012960Y012796D03*
X012960Y012756D03*
X012960Y012716D03*
X012620Y012016D03*
X012660Y011976D03*
X012860Y011736D03*
X012900Y011696D03*
X013140Y011416D03*
X013620Y011416D03*
X013620Y011456D03*
X013620Y011496D03*
X013620Y011536D03*
X013620Y011576D03*
X013620Y011616D03*
X013620Y011656D03*
X013620Y011696D03*
X013620Y011736D03*
X013620Y011776D03*
X013620Y011816D03*
X013620Y011856D03*
X013620Y011896D03*
X013620Y011936D03*
X013620Y011976D03*
X013620Y012016D03*
X013620Y012056D03*
X013620Y012096D03*
X013620Y012136D03*
X013620Y011376D03*
X013620Y011336D03*
X013620Y010936D03*
X012900Y010936D03*
X012140Y010936D03*
X012120Y010916D03*
X012120Y010876D03*
X012120Y010836D03*
X012120Y010796D03*
X012120Y010756D03*
X012120Y010716D03*
X012120Y010676D03*
X012120Y010636D03*
X012120Y010596D03*
X012120Y010556D03*
X012120Y010516D03*
X012120Y010476D03*
X012120Y010436D03*
X012120Y010396D03*
X012120Y010356D03*
X012120Y010316D03*
X012120Y010276D03*
X012120Y010236D03*
X012120Y010196D03*
X012120Y010156D03*
X012120Y010116D03*
X012120Y010076D03*
X013160Y009396D03*
X013160Y009076D03*
X012900Y008296D03*
X012120Y008276D03*
X012120Y008236D03*
X012120Y008196D03*
X012120Y008156D03*
X012120Y008116D03*
X012120Y008076D03*
X012120Y008036D03*
X012120Y007996D03*
X012120Y007956D03*
X012120Y007916D03*
X012120Y007876D03*
X012120Y007836D03*
X012120Y007796D03*
X012120Y007756D03*
X012120Y007716D03*
X012120Y007676D03*
X012120Y007636D03*
X012120Y007596D03*
X012120Y007556D03*
X012120Y007516D03*
X012120Y007476D03*
X012120Y007436D03*
X012140Y006296D03*
X012100Y006096D03*
X013620Y005696D03*
X013620Y005656D03*
X013620Y005616D03*
X013620Y005576D03*
X013620Y005536D03*
X013620Y005376D03*
X013620Y005336D03*
X013620Y005296D03*
X013620Y005256D03*
X013620Y005216D03*
X012880Y004516D03*
X012880Y004476D03*
X012880Y004436D03*
X008920Y006796D03*
X008840Y007076D03*
X008640Y007596D03*
X008620Y007616D03*
X008140Y007136D03*
X008160Y007076D03*
X008160Y006956D03*
X008120Y006876D03*
X007800Y006916D03*
X008360Y005556D03*
X008360Y005516D03*
X008380Y005496D03*
X008360Y005476D03*
X008760Y008196D03*
X008860Y008296D03*
X008880Y008356D03*
X008840Y008436D03*
X008840Y008476D03*
X008840Y008756D03*
X008580Y008656D03*
X008380Y008696D03*
X008580Y009456D03*
X008600Y009476D03*
X008600Y009956D03*
X008580Y009976D03*
X008560Y009996D03*
X008460Y010056D03*
X008700Y010296D03*
X008700Y010336D03*
X008740Y010616D03*
X008760Y010796D03*
X008820Y010976D03*
X008700Y011096D03*
X008720Y011116D03*
X008860Y011176D03*
X008880Y011156D03*
X008740Y011296D03*
X008740Y011336D03*
X008740Y011376D03*
X008720Y011396D03*
X008520Y010836D03*
X008540Y010816D03*
X008380Y010736D03*
X007360Y010676D03*
X008600Y012276D03*
X008620Y012336D03*
X008640Y012356D03*
X008640Y012376D03*
X008920Y012676D03*
X008920Y012696D03*
X008920Y012716D03*
X010260Y012456D03*
X011240Y011396D03*
X012120Y012116D03*
X012260Y013696D03*
X012220Y013736D03*
X012180Y013816D03*
X012160Y013836D03*
X012140Y013856D03*
X012120Y013916D03*
X012120Y013956D03*
X012120Y013996D03*
X012120Y014036D03*
X012120Y014076D03*
X012120Y014116D03*
X012120Y014156D03*
X012120Y014196D03*
X012120Y014236D03*
X012120Y014276D03*
X012120Y014316D03*
X012120Y014356D03*
X012120Y014396D03*
X012120Y014436D03*
X012120Y014476D03*
X012120Y014516D03*
X012120Y014556D03*
X008360Y014116D03*
X008360Y014076D03*
X008360Y014036D03*
X007460Y012696D03*
X007540Y012536D03*
X007540Y012496D03*
X007600Y012356D03*
X013620Y009776D03*
D20*
X013600Y009796D03*
X013160Y009356D03*
X013000Y009236D03*
X012860Y009336D03*
X012840Y009356D03*
X012800Y009396D03*
X012720Y009436D03*
X012700Y009456D03*
X012680Y009476D03*
X012560Y009556D03*
X012540Y009576D03*
X012520Y009596D03*
X012500Y009616D03*
X012480Y009636D03*
X012400Y009676D03*
X012360Y009716D03*
X012340Y009736D03*
X012320Y009756D03*
X012860Y009136D03*
X012840Y009116D03*
X012800Y009076D03*
X012720Y009036D03*
X012700Y009016D03*
X012680Y008996D03*
X012660Y008976D03*
X012640Y008956D03*
X012560Y008916D03*
X012540Y008896D03*
X012520Y008876D03*
X012500Y008856D03*
X012480Y008836D03*
X012360Y008756D03*
X012340Y008736D03*
X012320Y008716D03*
X013160Y009116D03*
X010940Y008256D03*
X010200Y008396D03*
X008800Y008236D03*
X008720Y008596D03*
X008700Y008696D03*
X008720Y008716D03*
X008600Y007156D03*
X008640Y007076D03*
X008660Y007056D03*
X008840Y006916D03*
X008000Y006796D03*
X007620Y007056D03*
X012120Y006276D03*
X012820Y006736D03*
X012800Y006756D03*
X012780Y006776D03*
X012760Y006796D03*
X012680Y006836D03*
X012660Y006856D03*
X012640Y006876D03*
X012520Y006956D03*
X012500Y006976D03*
X012480Y006996D03*
X012420Y007036D03*
X012380Y007056D03*
X012360Y007076D03*
X012340Y007096D03*
X012320Y007116D03*
X012840Y006716D03*
X012920Y006676D03*
X012940Y006656D03*
X012960Y006636D03*
X013000Y006596D03*
X013080Y006556D03*
X013100Y006536D03*
X013120Y006516D03*
X013140Y006496D03*
X013240Y006436D03*
X013260Y006416D03*
X013280Y006396D03*
X013400Y006316D03*
X013420Y006296D03*
X013440Y006276D03*
X008700Y010736D03*
X008680Y010756D03*
X008800Y011236D03*
X008780Y011256D03*
X008700Y012456D03*
X008780Y012496D03*
X008840Y012556D03*
X008860Y012576D03*
X008880Y012596D03*
X010900Y012376D03*
X011340Y012496D03*
X010880Y011636D03*
X011260Y011456D03*
X013560Y012396D03*
X013600Y014716D03*
D21*
X012880Y014696D03*
X012880Y011016D03*
X012880Y010976D03*
X012880Y008616D03*
X012880Y008416D03*
X012880Y008376D03*
X012880Y008336D03*
X012860Y007236D03*
X012880Y007216D03*
X012820Y006236D03*
D22*
X012860Y007256D03*
X012860Y008576D03*
X012900Y009856D03*
X012880Y014596D03*
X012880Y014636D03*
X012880Y014676D03*
D23*
X012890Y014656D03*
X012890Y014616D03*
X012870Y011036D03*
X012870Y010996D03*
X012870Y010956D03*
X012910Y009836D03*
X012870Y008596D03*
X012870Y008396D03*
X012870Y008356D03*
X012870Y008316D03*
X012810Y006216D03*
X012870Y005496D03*
X012870Y005476D03*
X012870Y005456D03*
X012870Y005436D03*
X012870Y005416D03*
X012870Y005396D03*
D24*
X012120Y006136D03*
X012880Y006696D03*
X012560Y006936D03*
X013320Y006376D03*
X012280Y008696D03*
X012440Y008816D03*
X012600Y008936D03*
X012760Y009056D03*
X012800Y009096D03*
X013160Y009096D03*
X013120Y009336D03*
X013160Y009376D03*
X012760Y009416D03*
X012600Y009536D03*
X012440Y009656D03*
X012280Y009776D03*
X011240Y011416D03*
X012540Y012116D03*
X012560Y012096D03*
X012580Y012076D03*
X012620Y012036D03*
X012640Y011996D03*
X012660Y011956D03*
X012700Y011916D03*
X012740Y011876D03*
X012760Y011856D03*
X012780Y011836D03*
X012800Y011816D03*
X012820Y011796D03*
X012860Y011756D03*
X012940Y011636D03*
X012960Y011616D03*
X012980Y011596D03*
X013000Y011576D03*
X013020Y011556D03*
X013040Y011536D03*
X013060Y011516D03*
X013100Y011476D03*
X011360Y012456D03*
X012200Y012896D03*
X012200Y013056D03*
X012200Y013776D03*
X012180Y013796D03*
X012600Y013696D03*
X012620Y013716D03*
X012640Y013736D03*
X012660Y013756D03*
X012680Y013776D03*
X012700Y013796D03*
X013020Y013796D03*
X013060Y013756D03*
X013080Y013736D03*
X013100Y013716D03*
X013120Y013696D03*
X013560Y013816D03*
X013580Y013836D03*
X013600Y014576D03*
X008900Y012796D03*
X008920Y012656D03*
X008900Y012636D03*
X008100Y012596D03*
X007980Y012676D03*
X007860Y012596D03*
X007540Y012556D03*
X007540Y012516D03*
X007540Y012476D03*
X007560Y012456D03*
X007600Y012376D03*
X007520Y012616D03*
X007500Y012636D03*
X007480Y012656D03*
X007480Y012676D03*
X008740Y011356D03*
X008740Y011316D03*
X008840Y011216D03*
X008580Y010796D03*
X008640Y010096D03*
X008660Y010076D03*
X008680Y010056D03*
X008700Y010036D03*
X008540Y009436D03*
X008480Y009416D03*
X008680Y009376D03*
X008700Y009396D03*
X008620Y007116D03*
X008640Y007096D03*
X008800Y006936D03*
X008840Y006896D03*
X008880Y006856D03*
X008900Y006836D03*
X008900Y006676D03*
X007860Y006876D03*
X007620Y007076D03*
X007560Y006976D03*
X007540Y006916D03*
X007540Y006896D03*
X007540Y006876D03*
X007520Y006856D03*
X007520Y006836D03*
X007500Y006816D03*
X007480Y006796D03*
D25*
X007630Y007016D03*
X007510Y008636D03*
X007550Y008676D03*
X007550Y008696D03*
X008630Y008856D03*
X009910Y008896D03*
X009910Y008936D03*
X009910Y008976D03*
X009910Y009016D03*
X009910Y009056D03*
X009910Y009096D03*
X009910Y009136D03*
X010570Y010376D03*
X010550Y010416D03*
X010530Y010436D03*
X010510Y010496D03*
X010510Y010516D03*
X010510Y010536D03*
X010510Y010556D03*
X011210Y010336D03*
X011290Y010436D03*
X011310Y010516D03*
X011310Y010556D03*
X011310Y010616D03*
X011330Y011696D03*
X011330Y011736D03*
X011350Y011776D03*
X011350Y011816D03*
X011350Y011836D03*
X011350Y011856D03*
X011350Y011876D03*
X011310Y012516D03*
X010510Y011976D03*
X010510Y011696D03*
X012250Y012876D03*
X012250Y013076D03*
X012870Y013916D03*
X013530Y012416D03*
X008670Y010596D03*
X007630Y012436D03*
D26*
X008700Y010896D03*
X008660Y010576D03*
X008120Y010156D03*
X008100Y010176D03*
X008020Y010216D03*
X008000Y010236D03*
X007980Y010256D03*
X008380Y010096D03*
X008440Y009396D03*
X008680Y008676D03*
X008720Y008556D03*
X007620Y008736D03*
X007640Y006996D03*
X008740Y006976D03*
X010180Y008416D03*
X009940Y008816D03*
X009920Y008836D03*
X009920Y008856D03*
X009920Y008876D03*
X009920Y008916D03*
X009920Y008956D03*
X009920Y008996D03*
X009920Y009036D03*
X009920Y009076D03*
X009920Y009116D03*
X010560Y008996D03*
X010580Y009016D03*
X010580Y008976D03*
X010560Y008956D03*
X010580Y008936D03*
X010560Y008916D03*
X010560Y008876D03*
X011300Y008876D03*
X011300Y008896D03*
X011300Y008916D03*
X011300Y008936D03*
X011300Y008956D03*
X011300Y008976D03*
X011300Y008996D03*
X011300Y009016D03*
X011300Y009036D03*
X011300Y009056D03*
X011300Y009076D03*
X011300Y009096D03*
X011300Y009116D03*
X011300Y009136D03*
X011300Y008856D03*
X011300Y008836D03*
X011300Y008816D03*
X011300Y008776D03*
X011340Y007696D03*
X011340Y007656D03*
X011340Y007616D03*
X011360Y007596D03*
X011340Y007576D03*
X011340Y007536D03*
X013000Y009276D03*
X011240Y010356D03*
X011320Y010596D03*
X011300Y010656D03*
X010600Y010356D03*
X010560Y010396D03*
X010520Y010476D03*
X010500Y010576D03*
X010500Y010616D03*
X010840Y011316D03*
X011260Y011516D03*
X011260Y011536D03*
X011300Y011656D03*
X011320Y011676D03*
X011320Y011716D03*
X011340Y011896D03*
X011320Y011916D03*
X011320Y011936D03*
X011300Y011976D03*
X011300Y012536D03*
X010540Y012016D03*
X010520Y011996D03*
X010520Y011676D03*
X010540Y011656D03*
X012260Y012856D03*
X012260Y013096D03*
X012420Y013576D03*
X012860Y013896D03*
X013300Y013576D03*
X009920Y012916D03*
X009900Y012976D03*
X009900Y013016D03*
X009900Y013036D03*
X009900Y013056D03*
X009900Y013076D03*
X009900Y013096D03*
X009900Y013116D03*
X009900Y013136D03*
X009900Y013156D03*
X009900Y013176D03*
X009900Y013196D03*
X009900Y013216D03*
D27*
X009950Y012856D03*
X011290Y011996D03*
X011270Y010716D03*
X010530Y010676D03*
X008690Y010916D03*
X008630Y010556D03*
X008530Y010176D03*
X007970Y008716D03*
X007670Y008776D03*
X010550Y008796D03*
X011250Y008656D03*
X012990Y009296D03*
X007990Y012616D03*
X012870Y013876D03*
D28*
X012860Y013856D03*
X012420Y013616D03*
X012500Y013176D03*
X012340Y012816D03*
X012460Y012776D03*
X012620Y012736D03*
X012860Y012656D03*
X012980Y012616D03*
X013040Y012596D03*
X013100Y012576D03*
X013160Y012556D03*
X013220Y012536D03*
X013500Y012456D03*
X013180Y013376D03*
X013300Y013616D03*
X013480Y013476D03*
X011260Y012616D03*
X010920Y012356D03*
X011260Y012016D03*
X010560Y011636D03*
X010800Y011356D03*
X010900Y011096D03*
X011260Y010736D03*
X010560Y010716D03*
X010540Y010696D03*
X010660Y010296D03*
X008620Y010536D03*
X008400Y010276D03*
X008520Y010156D03*
X007980Y010296D03*
X007560Y010716D03*
X008660Y010936D03*
X008060Y011776D03*
X009960Y012836D03*
X009980Y012816D03*
X010540Y012816D03*
X008540Y009216D03*
X008440Y009076D03*
X008600Y008916D03*
X008620Y008896D03*
X007560Y008716D03*
X010540Y008776D03*
X010960Y008276D03*
X011240Y008636D03*
X011280Y007436D03*
X013620Y005176D03*
X013620Y005136D03*
X013620Y005096D03*
D29*
X013620Y005116D03*
X013620Y005156D03*
X013620Y005196D03*
X011200Y008616D03*
X010000Y008736D03*
X009980Y008756D03*
X008540Y009196D03*
X008000Y010736D03*
X007560Y010696D03*
X008060Y011796D03*
X010240Y012496D03*
X010700Y013116D03*
X012360Y013136D03*
X012640Y013216D03*
X012800Y013256D03*
X012920Y013296D03*
X013040Y013336D03*
X013320Y013416D03*
X013440Y013456D03*
X013300Y013636D03*
X012860Y013836D03*
X012440Y013656D03*
X012420Y013636D03*
X012420Y012796D03*
X012540Y012756D03*
X012660Y012716D03*
X012900Y012636D03*
X013300Y012516D03*
X013360Y012496D03*
X013420Y012476D03*
X011220Y010756D03*
X010580Y010756D03*
X010560Y010736D03*
X012980Y009316D03*
X012980Y009156D03*
X008060Y007636D03*
X008040Y007656D03*
D30*
X007980Y008656D03*
X008000Y009156D03*
X008020Y009176D03*
X008040Y009196D03*
X008140Y009256D03*
X008520Y009156D03*
X008520Y009036D03*
X008520Y010196D03*
X008500Y010216D03*
X008000Y010756D03*
X008100Y011816D03*
X010620Y010776D03*
X010760Y011396D03*
X012280Y011316D03*
X012280Y011276D03*
X012280Y011236D03*
X013460Y011216D03*
X012280Y012236D03*
X012780Y012696D03*
X012800Y012676D03*
X012560Y013196D03*
X012440Y013156D03*
X012840Y013276D03*
X012960Y013316D03*
X013120Y013356D03*
X013240Y013396D03*
X013400Y013436D03*
X013300Y013656D03*
X012860Y013816D03*
X011220Y012656D03*
X010520Y008756D03*
X010500Y008736D03*
X010200Y008436D03*
X010180Y008456D03*
X010940Y008296D03*
D31*
X008090Y007616D03*
X007990Y010316D03*
X010750Y011436D03*
X012290Y012216D03*
X011210Y012676D03*
X012430Y013676D03*
X013450Y011236D03*
D32*
X013440Y011256D03*
X013440Y012176D03*
X013440Y012216D03*
X012300Y012196D03*
X011200Y012696D03*
X010920Y012336D03*
X010260Y012516D03*
X010740Y013076D03*
X010740Y011456D03*
X013300Y013676D03*
X008100Y009236D03*
D33*
X012860Y009916D03*
X012880Y009896D03*
X012820Y007276D03*
X012840Y006176D03*
X012860Y006156D03*
X010600Y013256D03*
X010600Y013276D03*
X010600Y013296D03*
X010600Y013316D03*
X010600Y013336D03*
X010600Y013356D03*
X010600Y013376D03*
X010600Y013396D03*
X010600Y013416D03*
X010600Y013436D03*
X010600Y013456D03*
X010600Y013476D03*
X010600Y013496D03*
X010600Y013516D03*
X010600Y013536D03*
X010600Y013556D03*
X010600Y013576D03*
X010600Y013596D03*
D34*
X009920Y012896D03*
X009940Y012876D03*
X010260Y012476D03*
X011280Y012576D03*
X011300Y011636D03*
X011280Y011616D03*
X011260Y011596D03*
X011260Y011576D03*
X011260Y011556D03*
X010900Y011116D03*
X011280Y010696D03*
X011300Y010676D03*
X011180Y010316D03*
X011160Y010296D03*
X010520Y010656D03*
X008580Y009236D03*
X008440Y009136D03*
X008420Y009116D03*
X008620Y008876D03*
X007960Y008696D03*
X007620Y008756D03*
X008060Y010196D03*
X007980Y010276D03*
X008400Y010296D03*
X008420Y010316D03*
X007560Y010736D03*
X008240Y012256D03*
X012420Y013596D03*
X013300Y013596D03*
X013500Y012436D03*
X013000Y009176D03*
X011280Y008696D03*
X011260Y008676D03*
X010560Y008816D03*
X009960Y008776D03*
X009940Y008796D03*
X011300Y007756D03*
X011320Y007736D03*
X011340Y007676D03*
X011320Y007456D03*
X008740Y006996D03*
X008000Y006856D03*
D35*
X007550Y006936D03*
X007550Y006956D03*
X008390Y007676D03*
X008810Y008256D03*
X008830Y008276D03*
X008790Y006956D03*
X008870Y006876D03*
X012130Y006116D03*
X012990Y006616D03*
X013050Y006576D03*
X013170Y006476D03*
X013210Y006456D03*
X013370Y006336D03*
X012710Y006816D03*
X012610Y006896D03*
X012450Y007016D03*
X012290Y007136D03*
X012390Y008776D03*
X012410Y008796D03*
X013130Y009136D03*
X012810Y009376D03*
X012650Y009496D03*
X012630Y009516D03*
X012390Y009696D03*
X011250Y011436D03*
X010890Y011656D03*
X010890Y011676D03*
X010890Y011696D03*
X010890Y011716D03*
X010890Y011736D03*
X010890Y011756D03*
X010890Y011776D03*
X010890Y011796D03*
X010890Y011816D03*
X010890Y011836D03*
X010890Y011856D03*
X010890Y011876D03*
X010890Y011896D03*
X010890Y011916D03*
X010890Y011936D03*
X010890Y011956D03*
X010890Y011976D03*
X010890Y011996D03*
X010890Y012016D03*
X011350Y012476D03*
X013550Y013516D03*
X008890Y012616D03*
X008790Y012516D03*
X008670Y012436D03*
X007530Y012596D03*
X008770Y011276D03*
D36*
X008700Y010876D03*
X008680Y010776D03*
X010520Y010456D03*
X011240Y010376D03*
X011260Y010396D03*
X011280Y010416D03*
X011300Y010476D03*
X011320Y010496D03*
X011320Y010536D03*
X011320Y010576D03*
X012260Y009796D03*
X013000Y009256D03*
X013000Y009216D03*
X012260Y008676D03*
X012260Y007156D03*
X012580Y006916D03*
X013340Y006356D03*
X008680Y007016D03*
X008000Y006816D03*
X007620Y007036D03*
X008720Y008576D03*
X007520Y008616D03*
X007520Y008656D03*
X011260Y011476D03*
X011260Y011496D03*
X011340Y011756D03*
X011340Y011796D03*
X010500Y011716D03*
X010480Y011736D03*
X010480Y011756D03*
X010480Y011776D03*
X010480Y011896D03*
X010500Y011916D03*
X010480Y011936D03*
X010500Y011956D03*
X008740Y012476D03*
X008000Y012656D03*
X007620Y012416D03*
X007620Y012396D03*
X013520Y013496D03*
D37*
X011290Y012556D03*
X011310Y011956D03*
X010830Y011336D03*
X010510Y010636D03*
X010510Y010596D03*
X010610Y010336D03*
X010630Y010316D03*
X011310Y010636D03*
X012990Y009196D03*
X011290Y008796D03*
X011290Y008756D03*
X011290Y008736D03*
X011290Y008716D03*
X010570Y008856D03*
X010550Y008836D03*
X010570Y008896D03*
X011330Y007716D03*
X011350Y007636D03*
X011350Y007556D03*
X011330Y007516D03*
X011330Y007496D03*
X011330Y007476D03*
X008710Y008536D03*
X008430Y009096D03*
X008550Y009256D03*
X008390Y009376D03*
X007570Y010756D03*
X008230Y012276D03*
X007990Y012636D03*
X009910Y012936D03*
X009910Y012956D03*
X009910Y012996D03*
X009910Y013236D03*
X007990Y006836D03*
D38*
X010200Y008496D03*
X010960Y008336D03*
X008460Y009356D03*
X007980Y009036D03*
X008160Y008776D03*
X008140Y008756D03*
X008420Y010116D03*
X010700Y011556D03*
X010700Y011576D03*
X010700Y011596D03*
X010920Y011056D03*
X011160Y012736D03*
X011120Y012776D03*
X012740Y013236D03*
X008180Y011836D03*
D39*
X010790Y011376D03*
X011250Y012596D03*
X012310Y012836D03*
X012310Y013116D03*
X008590Y008936D03*
X007930Y008676D03*
X008270Y007156D03*
X011270Y007416D03*
X011270Y007776D03*
D40*
X008530Y009056D03*
X008530Y009176D03*
X008070Y009216D03*
X007990Y009136D03*
X007970Y009116D03*
X007950Y009096D03*
X008050Y007676D03*
X011210Y010776D03*
X010770Y011416D03*
X012270Y011296D03*
X012270Y011256D03*
X012270Y011216D03*
X011230Y012636D03*
X010710Y013096D03*
D41*
X010750Y013056D03*
X012310Y012176D03*
X013430Y012196D03*
X013430Y012236D03*
X013430Y012156D03*
X013430Y011276D03*
X010730Y011476D03*
X010730Y011496D03*
X008490Y010236D03*
X008170Y010696D03*
X007950Y009076D03*
D42*
X007980Y009056D03*
X008500Y010256D03*
X010720Y011516D03*
X010920Y011076D03*
X012320Y012156D03*
X013420Y011296D03*
X010760Y013036D03*
X010260Y012536D03*
X010200Y008476D03*
X010960Y008316D03*
D43*
X013410Y011316D03*
X012330Y012136D03*
X011170Y012716D03*
X010770Y013016D03*
X010710Y011536D03*
D44*
X010900Y012296D03*
X010920Y012316D03*
X011060Y012816D03*
X010800Y012996D03*
X008360Y012236D03*
X008420Y009336D03*
X008140Y008736D03*
X008160Y007596D03*
X008360Y007196D03*
X008380Y007176D03*
X010200Y008516D03*
X010960Y008356D03*
D45*
X010960Y008376D03*
X008360Y007216D03*
X008340Y007236D03*
X008340Y007256D03*
X008200Y007576D03*
X008160Y007696D03*
X008040Y008616D03*
X008360Y010136D03*
X008180Y011756D03*
X008220Y011876D03*
X008320Y012136D03*
X010800Y012976D03*
X010900Y011036D03*
D46*
X010250Y012576D03*
X010810Y012956D03*
X008330Y012156D03*
X008230Y011896D03*
X008170Y011736D03*
X008330Y007296D03*
X008330Y007276D03*
D47*
X008320Y007316D03*
X008220Y007536D03*
X008200Y007556D03*
X008160Y007716D03*
X008340Y009296D03*
X008360Y009316D03*
X010960Y008396D03*
X010760Y007076D03*
X010620Y004256D03*
X010620Y004216D03*
X010620Y004136D03*
X010620Y004096D03*
X010620Y004056D03*
X010900Y011016D03*
X010920Y012276D03*
X010820Y012936D03*
X008320Y012116D03*
X008300Y012096D03*
X008280Y012036D03*
X008260Y011976D03*
X008240Y011936D03*
X008240Y011916D03*
D48*
X008140Y011656D03*
X008140Y011616D03*
X008120Y011596D03*
X010900Y010976D03*
X010920Y010996D03*
X010920Y012236D03*
X010840Y012916D03*
X007980Y008916D03*
X008140Y007816D03*
X008140Y007796D03*
X008280Y007436D03*
X010820Y007096D03*
X010960Y008436D03*
X010960Y008456D03*
D49*
X010810Y008096D03*
X008130Y007836D03*
X007990Y008896D03*
X008110Y011456D03*
X008110Y011496D03*
X008110Y011536D03*
X008110Y011556D03*
X008110Y011576D03*
X008130Y011636D03*
X010250Y012636D03*
X010250Y012656D03*
X010850Y012896D03*
D50*
X010850Y012876D03*
X010910Y010956D03*
X008090Y011376D03*
X007990Y011256D03*
X008110Y007996D03*
X008110Y007976D03*
X008110Y007956D03*
X008110Y007916D03*
D51*
X008090Y008036D03*
X010850Y008056D03*
X008170Y010336D03*
X007970Y010556D03*
X007990Y011236D03*
X008070Y011336D03*
X008070Y011356D03*
X010850Y012856D03*
D52*
X010860Y012836D03*
X010260Y012796D03*
X010920Y012096D03*
X010900Y010876D03*
X010920Y010856D03*
X008040Y011176D03*
X008020Y011196D03*
X007940Y010676D03*
X010280Y008696D03*
X010900Y007956D03*
X010920Y007296D03*
X010920Y007256D03*
X010900Y007236D03*
X008060Y008156D03*
X008060Y008196D03*
X008020Y008276D03*
X008040Y008296D03*
D53*
X008150Y010716D03*
X008350Y012216D03*
X010690Y011616D03*
X011150Y012756D03*
X011090Y012796D03*
D54*
X010260Y012776D03*
X010920Y012156D03*
X010920Y012136D03*
X010900Y010896D03*
X008040Y011276D03*
X007940Y010656D03*
X007940Y010616D03*
X007960Y010596D03*
X007960Y008796D03*
X008020Y008256D03*
X008060Y008136D03*
X008080Y008076D03*
X010880Y007996D03*
X010900Y007216D03*
X010880Y007196D03*
D55*
X010870Y008016D03*
X008070Y008096D03*
X008010Y008236D03*
X007970Y008816D03*
X008050Y011296D03*
X008050Y011316D03*
X010250Y012756D03*
D56*
X010260Y012736D03*
X010260Y012716D03*
X010920Y012176D03*
X010900Y010916D03*
X008000Y011216D03*
X007960Y010576D03*
X007980Y008836D03*
X008000Y008216D03*
X008080Y008056D03*
X010860Y008036D03*
X010880Y007176D03*
X010860Y007156D03*
D57*
X008870Y007016D03*
X008730Y006816D03*
X008770Y006756D03*
X008770Y006736D03*
X008750Y007276D03*
X008750Y007296D03*
X008750Y007336D03*
X008750Y007416D03*
X008750Y007436D03*
X008730Y007496D03*
X008730Y007516D03*
X008730Y008136D03*
X008510Y008596D03*
X008410Y008676D03*
X008890Y008796D03*
X008910Y008816D03*
X008990Y008896D03*
X009090Y009016D03*
X009110Y009036D03*
X009110Y009056D03*
X009130Y009076D03*
X009170Y009136D03*
X009170Y009156D03*
X009210Y009216D03*
X009210Y009236D03*
X009290Y009476D03*
X009310Y009556D03*
X009310Y009876D03*
X009290Y009956D03*
X009270Y010076D03*
X009210Y010196D03*
X009190Y010276D03*
X009130Y010356D03*
X009130Y010376D03*
X009110Y010396D03*
X009030Y010496D03*
X008830Y010696D03*
X008790Y010816D03*
X008410Y010756D03*
X008770Y009976D03*
X008770Y009956D03*
X008690Y009876D03*
X008670Y009896D03*
X007330Y010656D03*
X007250Y010576D03*
X007230Y010556D03*
X007210Y010536D03*
X007130Y010436D03*
X007110Y010416D03*
X007070Y010356D03*
X007050Y010316D03*
X007030Y010276D03*
X007010Y010236D03*
X006990Y010196D03*
X006970Y010156D03*
X006950Y010096D03*
X006930Y010036D03*
X006910Y009876D03*
X006890Y009796D03*
X006890Y009756D03*
X006890Y009716D03*
X006890Y009676D03*
X006910Y009556D03*
X007010Y009196D03*
X007110Y009036D03*
X007130Y009016D03*
X007150Y008976D03*
X007170Y008956D03*
X007210Y008916D03*
X011230Y011356D03*
X011410Y012396D03*
X008850Y012436D03*
X008770Y012296D03*
X008750Y012256D03*
X008750Y012236D03*
X008750Y012096D03*
X008750Y012056D03*
X008750Y012016D03*
X008730Y011976D03*
X008730Y011956D03*
X008710Y011936D03*
X008690Y011896D03*
X008730Y012656D03*
X008770Y012716D03*
X013170Y009436D03*
X008370Y005456D03*
X012890Y004416D03*
D58*
X010840Y007116D03*
X010860Y007136D03*
X010840Y008076D03*
X010960Y008516D03*
X008100Y008016D03*
X007980Y008856D03*
X007980Y010536D03*
X007820Y010776D03*
X008080Y011396D03*
X010260Y012696D03*
X010920Y012196D03*
X010900Y010936D03*
D59*
X010920Y012216D03*
X010260Y012676D03*
X008100Y011516D03*
X008100Y011476D03*
X008100Y011436D03*
X008100Y011416D03*
X007980Y008876D03*
X008120Y007936D03*
X008120Y007896D03*
X008120Y007876D03*
X008120Y007856D03*
X010960Y008476D03*
X010960Y008496D03*
D60*
X010960Y008416D03*
X010780Y008116D03*
X008320Y007336D03*
X008300Y007356D03*
X008300Y007396D03*
X008240Y007496D03*
X008240Y007516D03*
X008160Y007736D03*
X007980Y008936D03*
X008160Y011696D03*
X008260Y011996D03*
X010260Y012596D03*
X010260Y012616D03*
X010920Y012256D03*
X010640Y004176D03*
D61*
X008030Y008636D03*
X008190Y011856D03*
X008330Y012176D03*
X008350Y012196D03*
X010250Y012556D03*
D62*
X010910Y012116D03*
X010910Y010836D03*
X010290Y008676D03*
X010910Y007936D03*
X010910Y007896D03*
X007890Y010816D03*
X007910Y010896D03*
D63*
X008170Y011716D03*
X008250Y011956D03*
X008270Y012016D03*
X008290Y012056D03*
X008290Y012076D03*
X010630Y004236D03*
X010630Y004196D03*
X010630Y004116D03*
X010630Y004076D03*
D64*
X010920Y007276D03*
X010920Y007316D03*
X010940Y007336D03*
X010940Y007376D03*
X010920Y007876D03*
X010920Y007916D03*
X010320Y008636D03*
X010300Y008656D03*
X007900Y008576D03*
X007900Y010836D03*
X007900Y010856D03*
X007920Y010876D03*
X007920Y010916D03*
X007940Y010936D03*
X008040Y011156D03*
X010900Y010816D03*
X010920Y012076D03*
D65*
X010910Y012056D03*
X008050Y011136D03*
X008050Y011116D03*
X007890Y008596D03*
X008050Y008336D03*
X008050Y008316D03*
X010930Y007856D03*
X010930Y007816D03*
D66*
X010910Y012036D03*
D67*
X010470Y011876D03*
X010470Y011856D03*
X010470Y011836D03*
X010470Y011816D03*
X010470Y011796D03*
X011290Y010456D03*
X008650Y008836D03*
X008330Y008716D03*
X008410Y010076D03*
X008670Y007036D03*
D68*
X008310Y007376D03*
X008290Y007416D03*
X008270Y007456D03*
X008270Y007476D03*
X008150Y007756D03*
X008150Y007776D03*
X008310Y009276D03*
X008150Y011676D03*
D69*
X008040Y011096D03*
X008220Y010356D03*
X010360Y008616D03*
X010940Y007836D03*
X010940Y007796D03*
X010940Y007396D03*
X010940Y007356D03*
X007920Y008536D03*
X007900Y008556D03*
X010900Y010796D03*
D70*
X008220Y010396D03*
X008220Y010376D03*
X008060Y011056D03*
X008040Y011076D03*
X008220Y009016D03*
X008060Y008376D03*
X008040Y008356D03*
D71*
X008040Y008396D03*
X008200Y008976D03*
X008220Y008996D03*
X008200Y010456D03*
X008060Y011036D03*
D72*
X008060Y011016D03*
X008200Y010476D03*
X008200Y008956D03*
D73*
X008040Y008456D03*
X008040Y008436D03*
X008200Y010496D03*
X008060Y010996D03*
D74*
X008090Y010976D03*
D75*
X008150Y010956D03*
D76*
X007870Y010796D03*
X007950Y010636D03*
X010270Y008716D03*
X010890Y007976D03*
X008070Y008116D03*
X008050Y008176D03*
D77*
X008190Y010516D03*
D78*
X008210Y010436D03*
X008030Y008416D03*
D79*
X008210Y010416D03*
D80*
X010550Y010276D03*
X010550Y010236D03*
X010550Y010196D03*
X010550Y010156D03*
X010550Y010116D03*
X010550Y010076D03*
X010550Y010036D03*
X010550Y009996D03*
D81*
X010560Y010016D03*
X010560Y010056D03*
X010560Y010096D03*
X010560Y010136D03*
X010560Y010176D03*
X010560Y010216D03*
X010560Y010256D03*
X010560Y009976D03*
X010560Y006876D03*
X010560Y006856D03*
X010560Y006836D03*
X010560Y006816D03*
X010560Y006796D03*
X010560Y006776D03*
X010560Y006756D03*
X010560Y006736D03*
X010560Y006716D03*
X010560Y006696D03*
X010560Y006676D03*
X010560Y006656D03*
X010560Y006636D03*
X010560Y006616D03*
X010560Y006596D03*
X010560Y006576D03*
X010560Y006556D03*
X010560Y006316D03*
X010560Y006296D03*
X010560Y006276D03*
X010560Y006256D03*
X010560Y006236D03*
X010560Y006216D03*
X010560Y006196D03*
X010560Y006176D03*
X010560Y006156D03*
X010560Y006136D03*
X010560Y006116D03*
X010560Y006096D03*
X010560Y006076D03*
X010560Y006056D03*
X010560Y006036D03*
X010560Y006016D03*
X010560Y005996D03*
D82*
X012830Y006196D03*
X012850Y008556D03*
X012890Y009876D03*
X010610Y009476D03*
X010610Y009456D03*
X010610Y009436D03*
X010610Y009416D03*
X010610Y009396D03*
X010610Y009376D03*
X010610Y009356D03*
X010610Y009336D03*
X010610Y009316D03*
X010610Y009296D03*
X010610Y009276D03*
X010610Y009256D03*
X010610Y009236D03*
X010610Y009216D03*
X010610Y009196D03*
X010610Y009176D03*
X010610Y009156D03*
D83*
X010620Y008576D03*
X012940Y009816D03*
X012880Y007196D03*
D84*
X012910Y007176D03*
X012790Y006256D03*
X010630Y008556D03*
X012910Y008656D03*
D85*
X012890Y008636D03*
X010630Y008596D03*
D86*
X010640Y008536D03*
D87*
X008140Y008516D03*
X008140Y008496D03*
D88*
X008040Y008476D03*
D89*
X010620Y004156D03*
M02*
