%
M48
M72
T01C0.0118
T02C0.0320
T03C0.0394
T04C0.0400
T05C0.0433
T06C0.0472
T07C0.1260
%
T01
X11515Y4951
X12640Y6076
X13015Y8326
X13515Y8326
X15140Y10826
X16015Y11701
X13765Y13076
X10765Y13076
X7765Y13076
X5640Y13326
X5640Y13826
X4890Y13826
X4890Y13326
X3640Y11576
X1515Y12076
X3140Y9201
X6140Y10701
X18390Y8076
X18390Y7576
X19515Y8576
X19515Y9076
X21390Y7076
X22890Y7451
X24265Y7201
X24640Y7576
X24015Y6451
X23515Y5701
X24640Y9201
X25015Y10076
X25640Y9701
X25015Y11326
X25390Y11701
X24390Y11326
X23140Y12451
X23140Y13451
X20890Y12451
X19265Y11951
X19015Y12201
X26140Y13576
T02
X23640Y14451
X20640Y14451
X17640Y9076
X16640Y9076
X15640Y9076
X14640Y9076
X14640Y6076
X15640Y6076
X16640Y6076
X17640Y6076
X14640Y4076
X13640Y4076
T03
X11495Y3596
X16140Y4076
X17140Y4076
X18140Y4076
X19140Y4076
X26515Y12576
X5649Y9442
T04
X26515Y9576
X26515Y10576
X26515Y11576
X26515Y8576
X26515Y7576
T05
X22829Y15615
X21451Y15615
X19518Y15615
X18140Y15615
X16762Y15615
X14829Y15615
X13451Y15615
X11829Y15615
X10451Y15615
X8829Y15615
X7451Y15615
X5829Y15615
X4451Y15615
T06
X23140Y6326
X23140Y3326
T07
X2018Y3954
X2018Y15568
X25837Y15568
X25837Y3954
M30
