G75*
G70*
%OFA0B0*%
%FSLAX24Y24*%
%IPPOS*%
%LPD*%
%AMOC8*
5,1,8,0,0,1.08239X$1,22.5*
%
%ADD10C,0.0080*%
%ADD11C,0.0060*%
%ADD12C,0.0050*%
%ADD13R,0.0110X0.0390*%
%ADD14C,0.0100*%
%ADD15R,0.0118X0.0827*%
%ADD16R,0.0125X0.0375*%
%ADD17R,0.0063X0.0625*%
%ADD18R,0.0390X0.0110*%
%ADD19R,0.0118X0.0059*%
%ADD20R,0.0118X0.0118*%
%ADD21R,0.0059X0.0118*%
%ADD22C,0.0010*%
%ADD23C,0.0040*%
%ADD24R,0.0625X0.0063*%
D10*
X001349Y003954D02*
X001351Y004005D01*
X001357Y004056D01*
X001367Y004106D01*
X001380Y004156D01*
X001398Y004204D01*
X001418Y004251D01*
X001443Y004296D01*
X001471Y004339D01*
X001502Y004380D01*
X001536Y004418D01*
X001573Y004453D01*
X001612Y004486D01*
X001654Y004516D01*
X001698Y004542D01*
X001744Y004564D01*
X001792Y004584D01*
X001841Y004599D01*
X001891Y004611D01*
X001941Y004619D01*
X001992Y004623D01*
X002044Y004623D01*
X002095Y004619D01*
X002145Y004611D01*
X002195Y004599D01*
X002244Y004584D01*
X002292Y004564D01*
X002338Y004542D01*
X002382Y004516D01*
X002424Y004486D01*
X002463Y004453D01*
X002500Y004418D01*
X002534Y004380D01*
X002565Y004339D01*
X002593Y004296D01*
X002618Y004251D01*
X002638Y004204D01*
X002656Y004156D01*
X002669Y004106D01*
X002679Y004056D01*
X002685Y004005D01*
X002687Y003954D01*
X002685Y003903D01*
X002679Y003852D01*
X002669Y003802D01*
X002656Y003752D01*
X002638Y003704D01*
X002618Y003657D01*
X002593Y003612D01*
X002565Y003569D01*
X002534Y003528D01*
X002500Y003490D01*
X002463Y003455D01*
X002424Y003422D01*
X002382Y003392D01*
X002338Y003366D01*
X002292Y003344D01*
X002244Y003324D01*
X002195Y003309D01*
X002145Y003297D01*
X002095Y003289D01*
X002044Y003285D01*
X001992Y003285D01*
X001941Y003289D01*
X001891Y003297D01*
X001841Y003309D01*
X001792Y003324D01*
X001744Y003344D01*
X001698Y003366D01*
X001654Y003392D01*
X001612Y003422D01*
X001573Y003455D01*
X001536Y003490D01*
X001502Y003528D01*
X001471Y003569D01*
X001443Y003612D01*
X001418Y003657D01*
X001398Y003704D01*
X001380Y003752D01*
X001367Y003802D01*
X001357Y003852D01*
X001351Y003903D01*
X001349Y003954D01*
X000975Y008551D02*
X003555Y008551D01*
X003555Y009851D01*
X000975Y009851D01*
X000975Y008551D01*
X001349Y015568D02*
X001351Y015619D01*
X001357Y015670D01*
X001367Y015720D01*
X001380Y015770D01*
X001398Y015818D01*
X001418Y015865D01*
X001443Y015910D01*
X001471Y015953D01*
X001502Y015994D01*
X001536Y016032D01*
X001573Y016067D01*
X001612Y016100D01*
X001654Y016130D01*
X001698Y016156D01*
X001744Y016178D01*
X001792Y016198D01*
X001841Y016213D01*
X001891Y016225D01*
X001941Y016233D01*
X001992Y016237D01*
X002044Y016237D01*
X002095Y016233D01*
X002145Y016225D01*
X002195Y016213D01*
X002244Y016198D01*
X002292Y016178D01*
X002338Y016156D01*
X002382Y016130D01*
X002424Y016100D01*
X002463Y016067D01*
X002500Y016032D01*
X002534Y015994D01*
X002565Y015953D01*
X002593Y015910D01*
X002618Y015865D01*
X002638Y015818D01*
X002656Y015770D01*
X002669Y015720D01*
X002679Y015670D01*
X002685Y015619D01*
X002687Y015568D01*
X002685Y015517D01*
X002679Y015466D01*
X002669Y015416D01*
X002656Y015366D01*
X002638Y015318D01*
X002618Y015271D01*
X002593Y015226D01*
X002565Y015183D01*
X002534Y015142D01*
X002500Y015104D01*
X002463Y015069D01*
X002424Y015036D01*
X002382Y015006D01*
X002338Y014980D01*
X002292Y014958D01*
X002244Y014938D01*
X002195Y014923D01*
X002145Y014911D01*
X002095Y014903D01*
X002044Y014899D01*
X001992Y014899D01*
X001941Y014903D01*
X001891Y014911D01*
X001841Y014923D01*
X001792Y014938D01*
X001744Y014958D01*
X001698Y014980D01*
X001654Y015006D01*
X001612Y015036D01*
X001573Y015069D01*
X001536Y015104D01*
X001502Y015142D01*
X001471Y015183D01*
X001443Y015226D01*
X001418Y015271D01*
X001398Y015318D01*
X001380Y015366D01*
X001367Y015416D01*
X001357Y015466D01*
X001351Y015517D01*
X001349Y015568D01*
X014015Y010076D02*
X014265Y010076D01*
X014140Y010201D02*
X014140Y009951D01*
X018458Y011755D02*
X018820Y011394D01*
X019822Y012396D02*
X019460Y012758D01*
X024825Y009469D02*
X025455Y009469D01*
X025471Y009464D01*
X025487Y009456D01*
X025501Y009446D01*
X025513Y009434D01*
X025523Y009419D01*
X025530Y009403D01*
X025534Y009386D01*
X025535Y009369D01*
X025533Y009351D01*
X024825Y009469D02*
X024809Y009464D01*
X024793Y009456D01*
X024779Y009446D01*
X024767Y009434D01*
X024757Y009419D01*
X024750Y009403D01*
X024746Y009386D01*
X024745Y009369D01*
X024747Y009351D01*
X024747Y008800D02*
X024745Y008782D01*
X024746Y008765D01*
X024750Y008748D01*
X024757Y008732D01*
X024767Y008717D01*
X024779Y008705D01*
X024793Y008695D01*
X024809Y008687D01*
X024825Y008682D01*
X025455Y008682D01*
X025471Y008687D01*
X025487Y008695D01*
X025501Y008705D01*
X025513Y008717D01*
X025523Y008732D01*
X025530Y008748D01*
X025534Y008765D01*
X025535Y008782D01*
X025533Y008800D01*
X025168Y003954D02*
X025170Y004005D01*
X025176Y004056D01*
X025186Y004106D01*
X025199Y004156D01*
X025217Y004204D01*
X025237Y004251D01*
X025262Y004296D01*
X025290Y004339D01*
X025321Y004380D01*
X025355Y004418D01*
X025392Y004453D01*
X025431Y004486D01*
X025473Y004516D01*
X025517Y004542D01*
X025563Y004564D01*
X025611Y004584D01*
X025660Y004599D01*
X025710Y004611D01*
X025760Y004619D01*
X025811Y004623D01*
X025863Y004623D01*
X025914Y004619D01*
X025964Y004611D01*
X026014Y004599D01*
X026063Y004584D01*
X026111Y004564D01*
X026157Y004542D01*
X026201Y004516D01*
X026243Y004486D01*
X026282Y004453D01*
X026319Y004418D01*
X026353Y004380D01*
X026384Y004339D01*
X026412Y004296D01*
X026437Y004251D01*
X026457Y004204D01*
X026475Y004156D01*
X026488Y004106D01*
X026498Y004056D01*
X026504Y004005D01*
X026506Y003954D01*
X026504Y003903D01*
X026498Y003852D01*
X026488Y003802D01*
X026475Y003752D01*
X026457Y003704D01*
X026437Y003657D01*
X026412Y003612D01*
X026384Y003569D01*
X026353Y003528D01*
X026319Y003490D01*
X026282Y003455D01*
X026243Y003422D01*
X026201Y003392D01*
X026157Y003366D01*
X026111Y003344D01*
X026063Y003324D01*
X026014Y003309D01*
X025964Y003297D01*
X025914Y003289D01*
X025863Y003285D01*
X025811Y003285D01*
X025760Y003289D01*
X025710Y003297D01*
X025660Y003309D01*
X025611Y003324D01*
X025563Y003344D01*
X025517Y003366D01*
X025473Y003392D01*
X025431Y003422D01*
X025392Y003455D01*
X025355Y003490D01*
X025321Y003528D01*
X025290Y003569D01*
X025262Y003612D01*
X025237Y003657D01*
X025217Y003704D01*
X025199Y003752D01*
X025186Y003802D01*
X025176Y003852D01*
X025170Y003903D01*
X025168Y003954D01*
X025168Y015568D02*
X025170Y015619D01*
X025176Y015670D01*
X025186Y015720D01*
X025199Y015770D01*
X025217Y015818D01*
X025237Y015865D01*
X025262Y015910D01*
X025290Y015953D01*
X025321Y015994D01*
X025355Y016032D01*
X025392Y016067D01*
X025431Y016100D01*
X025473Y016130D01*
X025517Y016156D01*
X025563Y016178D01*
X025611Y016198D01*
X025660Y016213D01*
X025710Y016225D01*
X025760Y016233D01*
X025811Y016237D01*
X025863Y016237D01*
X025914Y016233D01*
X025964Y016225D01*
X026014Y016213D01*
X026063Y016198D01*
X026111Y016178D01*
X026157Y016156D01*
X026201Y016130D01*
X026243Y016100D01*
X026282Y016067D01*
X026319Y016032D01*
X026353Y015994D01*
X026384Y015953D01*
X026412Y015910D01*
X026437Y015865D01*
X026457Y015818D01*
X026475Y015770D01*
X026488Y015720D01*
X026498Y015670D01*
X026504Y015619D01*
X026506Y015568D01*
X026504Y015517D01*
X026498Y015466D01*
X026488Y015416D01*
X026475Y015366D01*
X026457Y015318D01*
X026437Y015271D01*
X026412Y015226D01*
X026384Y015183D01*
X026353Y015142D01*
X026319Y015104D01*
X026282Y015069D01*
X026243Y015036D01*
X026201Y015006D01*
X026157Y014980D01*
X026111Y014958D01*
X026063Y014938D01*
X026014Y014923D01*
X025964Y014911D01*
X025914Y014903D01*
X025863Y014899D01*
X025811Y014899D01*
X025760Y014903D01*
X025710Y014911D01*
X025660Y014923D01*
X025611Y014938D01*
X025563Y014958D01*
X025517Y014980D01*
X025473Y015006D01*
X025431Y015036D01*
X025392Y015069D01*
X025355Y015104D01*
X025321Y015142D01*
X025290Y015183D01*
X025262Y015226D01*
X025237Y015271D01*
X025217Y015318D01*
X025199Y015366D01*
X025186Y015416D01*
X025176Y015466D01*
X025170Y015517D01*
X025168Y015568D01*
D11*
X024487Y015568D02*
X024489Y015641D01*
X024495Y015714D01*
X024505Y015786D01*
X024519Y015858D01*
X024536Y015929D01*
X024558Y015999D01*
X024583Y016068D01*
X024612Y016135D01*
X024644Y016200D01*
X024680Y016264D01*
X024720Y016326D01*
X024762Y016385D01*
X024808Y016442D01*
X024857Y016496D01*
X024909Y016548D01*
X024963Y016597D01*
X025020Y016643D01*
X025079Y016685D01*
X025141Y016725D01*
X025205Y016761D01*
X025270Y016793D01*
X025337Y016822D01*
X025406Y016847D01*
X025476Y016869D01*
X025547Y016886D01*
X025619Y016900D01*
X025691Y016910D01*
X025764Y016916D01*
X025837Y016918D01*
X025910Y016916D01*
X025983Y016910D01*
X026055Y016900D01*
X026127Y016886D01*
X026198Y016869D01*
X026268Y016847D01*
X026337Y016822D01*
X026404Y016793D01*
X026469Y016761D01*
X026533Y016725D01*
X026595Y016685D01*
X026654Y016643D01*
X026711Y016597D01*
X026765Y016548D01*
X026817Y016496D01*
X026866Y016442D01*
X026912Y016385D01*
X026954Y016326D01*
X026994Y016264D01*
X027030Y016200D01*
X027062Y016135D01*
X027091Y016068D01*
X027116Y015999D01*
X027138Y015929D01*
X027155Y015858D01*
X027169Y015786D01*
X027179Y015714D01*
X027185Y015641D01*
X027187Y015568D01*
X027185Y015495D01*
X027179Y015422D01*
X027169Y015350D01*
X027155Y015278D01*
X027138Y015207D01*
X027116Y015137D01*
X027091Y015068D01*
X027062Y015001D01*
X027030Y014936D01*
X026994Y014872D01*
X026954Y014810D01*
X026912Y014751D01*
X026866Y014694D01*
X026817Y014640D01*
X026765Y014588D01*
X026711Y014539D01*
X026654Y014493D01*
X026595Y014451D01*
X026533Y014411D01*
X026469Y014375D01*
X026404Y014343D01*
X026337Y014314D01*
X026268Y014289D01*
X026198Y014267D01*
X026127Y014250D01*
X026055Y014236D01*
X025983Y014226D01*
X025910Y014220D01*
X025837Y014218D01*
X025764Y014220D01*
X025691Y014226D01*
X025619Y014236D01*
X025547Y014250D01*
X025476Y014267D01*
X025406Y014289D01*
X025337Y014314D01*
X025270Y014343D01*
X025205Y014375D01*
X025141Y014411D01*
X025079Y014451D01*
X025020Y014493D01*
X024963Y014539D01*
X024909Y014588D01*
X024857Y014640D01*
X024808Y014694D01*
X024762Y014751D01*
X024720Y014810D01*
X024680Y014872D01*
X024644Y014936D01*
X024612Y015001D01*
X024583Y015068D01*
X024558Y015137D01*
X024536Y015207D01*
X024519Y015278D01*
X024505Y015350D01*
X024495Y015422D01*
X024489Y015495D01*
X024487Y015568D01*
X023290Y014901D02*
X023140Y014901D01*
X023090Y014851D01*
X021190Y014851D01*
X021140Y014901D01*
X020990Y014901D01*
X020973Y014899D01*
X020956Y014895D01*
X020940Y014888D01*
X020926Y014878D01*
X020913Y014865D01*
X020903Y014851D01*
X020896Y014835D01*
X020892Y014818D01*
X020890Y014801D01*
X020890Y014101D02*
X020892Y014084D01*
X020896Y014067D01*
X020903Y014051D01*
X020913Y014037D01*
X020926Y014024D01*
X020940Y014014D01*
X020956Y014007D01*
X020973Y014003D01*
X020990Y014001D01*
X021140Y014001D01*
X021190Y014051D01*
X023090Y014051D01*
X023140Y014001D01*
X023290Y014001D01*
X023307Y014003D01*
X023324Y014007D01*
X023340Y014014D01*
X023354Y014024D01*
X023367Y014037D01*
X023377Y014051D01*
X023384Y014067D01*
X023388Y014084D01*
X023390Y014101D01*
X023390Y014801D02*
X023388Y014818D01*
X023384Y014835D01*
X023377Y014851D01*
X023367Y014865D01*
X023354Y014878D01*
X023340Y014888D01*
X023324Y014895D01*
X023307Y014899D01*
X023290Y014901D01*
X020880Y012940D02*
X020769Y012884D01*
X020658Y012773D01*
X020825Y012773D01*
X020880Y012717D01*
X020880Y012661D01*
X020825Y012606D01*
X020713Y012606D01*
X020658Y012661D01*
X020658Y012773D01*
X020518Y012884D02*
X020462Y012940D01*
X020351Y012940D01*
X020295Y012884D01*
X020295Y012661D01*
X020351Y012606D01*
X020462Y012606D01*
X020518Y012661D01*
X019260Y010956D02*
X021880Y010956D01*
X022020Y010816D01*
X022020Y008196D01*
X019260Y008196D01*
X019260Y010956D01*
X021579Y010656D02*
X021581Y010679D01*
X021587Y010702D01*
X021596Y010723D01*
X021609Y010743D01*
X021625Y010760D01*
X021643Y010774D01*
X021663Y010785D01*
X021685Y010793D01*
X021708Y010797D01*
X021732Y010797D01*
X021755Y010793D01*
X021777Y010785D01*
X021797Y010774D01*
X021815Y010760D01*
X021831Y010743D01*
X021844Y010723D01*
X021853Y010702D01*
X021859Y010679D01*
X021861Y010656D01*
X021859Y010633D01*
X021853Y010610D01*
X021844Y010589D01*
X021831Y010569D01*
X021815Y010552D01*
X021797Y010538D01*
X021777Y010527D01*
X021755Y010519D01*
X021732Y010515D01*
X021708Y010515D01*
X021685Y010519D01*
X021663Y010527D01*
X021643Y010538D01*
X021625Y010552D01*
X021609Y010569D01*
X021596Y010589D01*
X021587Y010610D01*
X021581Y010633D01*
X021579Y010656D01*
X018140Y008476D02*
X018140Y006676D01*
X014140Y006676D01*
X014140Y007176D01*
X014179Y007178D01*
X014218Y007184D01*
X014256Y007193D01*
X014293Y007206D01*
X014329Y007223D01*
X014362Y007243D01*
X014394Y007267D01*
X014423Y007293D01*
X014449Y007322D01*
X014473Y007354D01*
X014493Y007387D01*
X014510Y007423D01*
X014523Y007460D01*
X014532Y007498D01*
X014538Y007537D01*
X014540Y007576D01*
X014538Y007615D01*
X014532Y007654D01*
X014523Y007692D01*
X014510Y007729D01*
X014493Y007765D01*
X014473Y007798D01*
X014449Y007830D01*
X014423Y007859D01*
X014394Y007885D01*
X014362Y007909D01*
X014329Y007929D01*
X014293Y007946D01*
X014256Y007959D01*
X014218Y007968D01*
X014179Y007974D01*
X014140Y007976D01*
X014140Y008476D01*
X018140Y008476D01*
X021670Y007259D02*
X021670Y007036D01*
X021726Y006981D01*
X021837Y006981D01*
X021893Y007036D01*
X022033Y007036D02*
X022255Y007259D01*
X022255Y007315D01*
X022033Y007315D01*
X021893Y007259D02*
X021837Y007315D01*
X021726Y007315D01*
X021670Y007259D01*
X022033Y007036D02*
X022033Y006981D01*
X024487Y003954D02*
X024489Y004027D01*
X024495Y004100D01*
X024505Y004172D01*
X024519Y004244D01*
X024536Y004315D01*
X024558Y004385D01*
X024583Y004454D01*
X024612Y004521D01*
X024644Y004586D01*
X024680Y004650D01*
X024720Y004712D01*
X024762Y004771D01*
X024808Y004828D01*
X024857Y004882D01*
X024909Y004934D01*
X024963Y004983D01*
X025020Y005029D01*
X025079Y005071D01*
X025141Y005111D01*
X025205Y005147D01*
X025270Y005179D01*
X025337Y005208D01*
X025406Y005233D01*
X025476Y005255D01*
X025547Y005272D01*
X025619Y005286D01*
X025691Y005296D01*
X025764Y005302D01*
X025837Y005304D01*
X025910Y005302D01*
X025983Y005296D01*
X026055Y005286D01*
X026127Y005272D01*
X026198Y005255D01*
X026268Y005233D01*
X026337Y005208D01*
X026404Y005179D01*
X026469Y005147D01*
X026533Y005111D01*
X026595Y005071D01*
X026654Y005029D01*
X026711Y004983D01*
X026765Y004934D01*
X026817Y004882D01*
X026866Y004828D01*
X026912Y004771D01*
X026954Y004712D01*
X026994Y004650D01*
X027030Y004586D01*
X027062Y004521D01*
X027091Y004454D01*
X027116Y004385D01*
X027138Y004315D01*
X027155Y004244D01*
X027169Y004172D01*
X027179Y004100D01*
X027185Y004027D01*
X027187Y003954D01*
X027185Y003881D01*
X027179Y003808D01*
X027169Y003736D01*
X027155Y003664D01*
X027138Y003593D01*
X027116Y003523D01*
X027091Y003454D01*
X027062Y003387D01*
X027030Y003322D01*
X026994Y003258D01*
X026954Y003196D01*
X026912Y003137D01*
X026866Y003080D01*
X026817Y003026D01*
X026765Y002974D01*
X026711Y002925D01*
X026654Y002879D01*
X026595Y002837D01*
X026533Y002797D01*
X026469Y002761D01*
X026404Y002729D01*
X026337Y002700D01*
X026268Y002675D01*
X026198Y002653D01*
X026127Y002636D01*
X026055Y002622D01*
X025983Y002612D01*
X025910Y002606D01*
X025837Y002604D01*
X025764Y002606D01*
X025691Y002612D01*
X025619Y002622D01*
X025547Y002636D01*
X025476Y002653D01*
X025406Y002675D01*
X025337Y002700D01*
X025270Y002729D01*
X025205Y002761D01*
X025141Y002797D01*
X025079Y002837D01*
X025020Y002879D01*
X024963Y002925D01*
X024909Y002974D01*
X024857Y003026D01*
X024808Y003080D01*
X024762Y003137D01*
X024720Y003196D01*
X024680Y003258D01*
X024644Y003322D01*
X024612Y003387D01*
X024583Y003454D01*
X024558Y003523D01*
X024536Y003593D01*
X024519Y003664D01*
X024505Y003736D01*
X024495Y003808D01*
X024489Y003881D01*
X024487Y003954D01*
X014890Y012888D02*
X014578Y012888D01*
X014890Y012888D02*
X014890Y013138D01*
X014390Y013388D02*
X014390Y013513D01*
X014578Y014013D02*
X014890Y014013D01*
X014890Y013763D01*
X011890Y013763D02*
X011890Y014013D01*
X011578Y014013D01*
X011390Y013513D02*
X011390Y013388D01*
X011890Y013138D02*
X011890Y012888D01*
X011578Y012888D01*
X008890Y012888D02*
X008890Y013138D01*
X008890Y012888D02*
X008578Y012888D01*
X008390Y013388D02*
X008390Y013513D01*
X008578Y014013D02*
X008890Y014013D01*
X008890Y013763D01*
X004515Y014856D02*
X004288Y014856D01*
X004515Y015082D01*
X004515Y015139D01*
X004458Y015196D01*
X004345Y015196D01*
X004288Y015139D01*
X004147Y015139D02*
X004090Y015196D01*
X003977Y015196D01*
X003920Y015139D01*
X003920Y014912D01*
X003977Y014856D01*
X004090Y014856D01*
X004147Y014912D01*
X000668Y015568D02*
X000670Y015641D01*
X000676Y015714D01*
X000686Y015786D01*
X000700Y015858D01*
X000717Y015929D01*
X000739Y015999D01*
X000764Y016068D01*
X000793Y016135D01*
X000825Y016200D01*
X000861Y016264D01*
X000901Y016326D01*
X000943Y016385D01*
X000989Y016442D01*
X001038Y016496D01*
X001090Y016548D01*
X001144Y016597D01*
X001201Y016643D01*
X001260Y016685D01*
X001322Y016725D01*
X001386Y016761D01*
X001451Y016793D01*
X001518Y016822D01*
X001587Y016847D01*
X001657Y016869D01*
X001728Y016886D01*
X001800Y016900D01*
X001872Y016910D01*
X001945Y016916D01*
X002018Y016918D01*
X002091Y016916D01*
X002164Y016910D01*
X002236Y016900D01*
X002308Y016886D01*
X002379Y016869D01*
X002449Y016847D01*
X002518Y016822D01*
X002585Y016793D01*
X002650Y016761D01*
X002714Y016725D01*
X002776Y016685D01*
X002835Y016643D01*
X002892Y016597D01*
X002946Y016548D01*
X002998Y016496D01*
X003047Y016442D01*
X003093Y016385D01*
X003135Y016326D01*
X003175Y016264D01*
X003211Y016200D01*
X003243Y016135D01*
X003272Y016068D01*
X003297Y015999D01*
X003319Y015929D01*
X003336Y015858D01*
X003350Y015786D01*
X003360Y015714D01*
X003366Y015641D01*
X003368Y015568D01*
X003366Y015495D01*
X003360Y015422D01*
X003350Y015350D01*
X003336Y015278D01*
X003319Y015207D01*
X003297Y015137D01*
X003272Y015068D01*
X003243Y015001D01*
X003211Y014936D01*
X003175Y014872D01*
X003135Y014810D01*
X003093Y014751D01*
X003047Y014694D01*
X002998Y014640D01*
X002946Y014588D01*
X002892Y014539D01*
X002835Y014493D01*
X002776Y014451D01*
X002714Y014411D01*
X002650Y014375D01*
X002585Y014343D01*
X002518Y014314D01*
X002449Y014289D01*
X002379Y014267D01*
X002308Y014250D01*
X002236Y014236D01*
X002164Y014226D01*
X002091Y014220D01*
X002018Y014218D01*
X001945Y014220D01*
X001872Y014226D01*
X001800Y014236D01*
X001728Y014250D01*
X001657Y014267D01*
X001587Y014289D01*
X001518Y014314D01*
X001451Y014343D01*
X001386Y014375D01*
X001322Y014411D01*
X001260Y014451D01*
X001201Y014493D01*
X001144Y014539D01*
X001090Y014588D01*
X001038Y014640D01*
X000989Y014694D01*
X000943Y014751D01*
X000901Y014810D01*
X000861Y014872D01*
X000825Y014936D01*
X000793Y015001D01*
X000764Y015068D01*
X000739Y015137D01*
X000717Y015207D01*
X000700Y015278D01*
X000686Y015350D01*
X000676Y015422D01*
X000670Y015495D01*
X000668Y015568D01*
X000668Y003954D02*
X000670Y004027D01*
X000676Y004100D01*
X000686Y004172D01*
X000700Y004244D01*
X000717Y004315D01*
X000739Y004385D01*
X000764Y004454D01*
X000793Y004521D01*
X000825Y004586D01*
X000861Y004650D01*
X000901Y004712D01*
X000943Y004771D01*
X000989Y004828D01*
X001038Y004882D01*
X001090Y004934D01*
X001144Y004983D01*
X001201Y005029D01*
X001260Y005071D01*
X001322Y005111D01*
X001386Y005147D01*
X001451Y005179D01*
X001518Y005208D01*
X001587Y005233D01*
X001657Y005255D01*
X001728Y005272D01*
X001800Y005286D01*
X001872Y005296D01*
X001945Y005302D01*
X002018Y005304D01*
X002091Y005302D01*
X002164Y005296D01*
X002236Y005286D01*
X002308Y005272D01*
X002379Y005255D01*
X002449Y005233D01*
X002518Y005208D01*
X002585Y005179D01*
X002650Y005147D01*
X002714Y005111D01*
X002776Y005071D01*
X002835Y005029D01*
X002892Y004983D01*
X002946Y004934D01*
X002998Y004882D01*
X003047Y004828D01*
X003093Y004771D01*
X003135Y004712D01*
X003175Y004650D01*
X003211Y004586D01*
X003243Y004521D01*
X003272Y004454D01*
X003297Y004385D01*
X003319Y004315D01*
X003336Y004244D01*
X003350Y004172D01*
X003360Y004100D01*
X003366Y004027D01*
X003368Y003954D01*
X003366Y003881D01*
X003360Y003808D01*
X003350Y003736D01*
X003336Y003664D01*
X003319Y003593D01*
X003297Y003523D01*
X003272Y003454D01*
X003243Y003387D01*
X003211Y003322D01*
X003175Y003258D01*
X003135Y003196D01*
X003093Y003137D01*
X003047Y003080D01*
X002998Y003026D01*
X002946Y002974D01*
X002892Y002925D01*
X002835Y002879D01*
X002776Y002837D01*
X002714Y002797D01*
X002650Y002761D01*
X002585Y002729D01*
X002518Y002700D01*
X002449Y002675D01*
X002379Y002653D01*
X002308Y002636D01*
X002236Y002622D01*
X002164Y002612D01*
X002091Y002606D01*
X002018Y002604D01*
X001945Y002606D01*
X001872Y002612D01*
X001800Y002622D01*
X001728Y002636D01*
X001657Y002653D01*
X001587Y002675D01*
X001518Y002700D01*
X001451Y002729D01*
X001386Y002761D01*
X001322Y002797D01*
X001260Y002837D01*
X001201Y002879D01*
X001144Y002925D01*
X001090Y002974D01*
X001038Y003026D01*
X000989Y003080D01*
X000943Y003137D01*
X000901Y003196D01*
X000861Y003258D01*
X000825Y003322D01*
X000793Y003387D01*
X000764Y003454D01*
X000739Y003523D01*
X000717Y003593D01*
X000700Y003664D01*
X000686Y003736D01*
X000676Y003808D01*
X000670Y003881D01*
X000668Y003954D01*
D12*
X003515Y007076D02*
X003517Y007210D01*
X003523Y007344D01*
X003533Y007477D01*
X003547Y007611D01*
X003565Y007744D01*
X003587Y007876D01*
X003612Y008007D01*
X003642Y008138D01*
X003676Y008268D01*
X003713Y008396D01*
X003754Y008524D01*
X003799Y008650D01*
X003848Y008775D01*
X003900Y008898D01*
X003956Y009020D01*
X004016Y009140D01*
X004079Y009258D01*
X004146Y009374D01*
X004216Y009488D01*
X004290Y009600D01*
X004367Y009710D01*
X004447Y009818D01*
X004530Y009923D01*
X004616Y010025D01*
X004705Y010125D01*
X004798Y010222D01*
X004893Y010317D01*
X004991Y010408D01*
X005091Y010497D01*
X005194Y010582D01*
X005300Y010665D01*
X005408Y010744D01*
X005518Y010820D01*
X005631Y010893D01*
X005746Y010962D01*
X005862Y011028D01*
X005981Y011090D01*
X006101Y011149D01*
X006224Y011204D01*
X006347Y011256D01*
X006472Y011303D01*
X006599Y011347D01*
X006727Y011388D01*
X006856Y011424D01*
X006986Y011457D01*
X007117Y011485D01*
X007248Y011510D01*
X007381Y011531D01*
X007514Y011548D01*
X007647Y011561D01*
X007781Y011570D01*
X007915Y011575D01*
X008049Y011576D01*
X008182Y011573D01*
X008316Y011566D01*
X008450Y011555D01*
X008583Y011540D01*
X008716Y011521D01*
X008848Y011498D01*
X008979Y011472D01*
X009109Y011441D01*
X009239Y011406D01*
X009367Y011368D01*
X009494Y011326D01*
X009620Y011280D01*
X009745Y011230D01*
X009868Y011177D01*
X009989Y011120D01*
X010109Y011059D01*
X010226Y010995D01*
X010342Y010928D01*
X010456Y010857D01*
X010567Y010782D01*
X010676Y010705D01*
X010783Y010624D01*
X010888Y010540D01*
X010989Y010453D01*
X011089Y010363D01*
X011185Y010270D01*
X011279Y010174D01*
X011370Y010075D01*
X011457Y009974D01*
X011542Y009870D01*
X011624Y009764D01*
X011702Y009656D01*
X011777Y009545D01*
X011849Y009432D01*
X011918Y009316D01*
X011983Y009199D01*
X012044Y009080D01*
X012102Y008959D01*
X012156Y008837D01*
X012207Y008713D01*
X012254Y008587D01*
X012297Y008460D01*
X012336Y008332D01*
X012372Y008203D01*
X012403Y008073D01*
X012431Y007942D01*
X012455Y007810D01*
X012475Y007677D01*
X012491Y007544D01*
X012503Y007411D01*
X012511Y007277D01*
X012515Y007143D01*
X012515Y007009D01*
X012511Y006875D01*
X012503Y006741D01*
X012491Y006608D01*
X012475Y006475D01*
X012455Y006342D01*
X012431Y006210D01*
X012403Y006079D01*
X012372Y005949D01*
X012336Y005820D01*
X012297Y005692D01*
X012254Y005565D01*
X012207Y005439D01*
X012156Y005315D01*
X012102Y005193D01*
X012044Y005072D01*
X011983Y004953D01*
X011918Y004836D01*
X011849Y004720D01*
X011777Y004607D01*
X011702Y004496D01*
X011624Y004388D01*
X011542Y004282D01*
X011457Y004178D01*
X011370Y004077D01*
X011279Y003978D01*
X011185Y003882D01*
X011089Y003789D01*
X010989Y003699D01*
X010888Y003612D01*
X010783Y003528D01*
X010676Y003447D01*
X010567Y003370D01*
X010456Y003295D01*
X010342Y003224D01*
X010226Y003157D01*
X010109Y003093D01*
X009989Y003032D01*
X009868Y002975D01*
X009745Y002922D01*
X009620Y002872D01*
X009494Y002826D01*
X009367Y002784D01*
X009239Y002746D01*
X009109Y002711D01*
X008979Y002680D01*
X008848Y002654D01*
X008716Y002631D01*
X008583Y002612D01*
X008450Y002597D01*
X008316Y002586D01*
X008182Y002579D01*
X008049Y002576D01*
X007915Y002577D01*
X007781Y002582D01*
X007647Y002591D01*
X007514Y002604D01*
X007381Y002621D01*
X007248Y002642D01*
X007117Y002667D01*
X006986Y002695D01*
X006856Y002728D01*
X006727Y002764D01*
X006599Y002805D01*
X006472Y002849D01*
X006347Y002896D01*
X006224Y002948D01*
X006101Y003003D01*
X005981Y003062D01*
X005862Y003124D01*
X005746Y003190D01*
X005631Y003259D01*
X005518Y003332D01*
X005408Y003408D01*
X005300Y003487D01*
X005194Y003570D01*
X005091Y003655D01*
X004991Y003744D01*
X004893Y003835D01*
X004798Y003930D01*
X004705Y004027D01*
X004616Y004127D01*
X004530Y004229D01*
X004447Y004334D01*
X004367Y004442D01*
X004290Y004552D01*
X004216Y004664D01*
X004146Y004778D01*
X004079Y004894D01*
X004016Y005012D01*
X003956Y005132D01*
X003900Y005254D01*
X003848Y005377D01*
X003799Y005502D01*
X003754Y005628D01*
X003713Y005756D01*
X003676Y005884D01*
X003642Y006014D01*
X003612Y006145D01*
X003587Y006276D01*
X003565Y006408D01*
X003547Y006541D01*
X003533Y006675D01*
X003523Y006808D01*
X003517Y006942D01*
X003515Y007076D01*
X009862Y003001D02*
X010660Y002204D01*
X012887Y004431D01*
X012089Y005228D01*
X013140Y004076D02*
X013142Y004139D01*
X013148Y004201D01*
X013158Y004263D01*
X013171Y004325D01*
X013189Y004385D01*
X013210Y004444D01*
X013235Y004502D01*
X013264Y004558D01*
X013296Y004612D01*
X013331Y004664D01*
X013369Y004713D01*
X013411Y004761D01*
X013455Y004805D01*
X013503Y004847D01*
X013552Y004885D01*
X013604Y004920D01*
X013658Y004952D01*
X013714Y004981D01*
X013772Y005006D01*
X013831Y005027D01*
X013891Y005045D01*
X013953Y005058D01*
X014015Y005068D01*
X014077Y005074D01*
X014140Y005076D01*
X014203Y005074D01*
X014265Y005068D01*
X014327Y005058D01*
X014389Y005045D01*
X014449Y005027D01*
X014508Y005006D01*
X014566Y004981D01*
X014622Y004952D01*
X014676Y004920D01*
X014728Y004885D01*
X014777Y004847D01*
X014825Y004805D01*
X014869Y004761D01*
X014911Y004713D01*
X014949Y004664D01*
X014984Y004612D01*
X015016Y004558D01*
X015045Y004502D01*
X015070Y004444D01*
X015091Y004385D01*
X015109Y004325D01*
X015122Y004263D01*
X015132Y004201D01*
X015138Y004139D01*
X015140Y004076D01*
X015138Y004013D01*
X015132Y003951D01*
X015122Y003889D01*
X015109Y003827D01*
X015091Y003767D01*
X015070Y003708D01*
X015045Y003650D01*
X015016Y003594D01*
X014984Y003540D01*
X014949Y003488D01*
X014911Y003439D01*
X014869Y003391D01*
X014825Y003347D01*
X014777Y003305D01*
X014728Y003267D01*
X014676Y003232D01*
X014622Y003200D01*
X014566Y003171D01*
X014508Y003146D01*
X014449Y003125D01*
X014389Y003107D01*
X014327Y003094D01*
X014265Y003084D01*
X014203Y003078D01*
X014140Y003076D01*
X014077Y003078D01*
X014015Y003084D01*
X013953Y003094D01*
X013891Y003107D01*
X013831Y003125D01*
X013772Y003146D01*
X013714Y003171D01*
X013658Y003200D01*
X013604Y003232D01*
X013552Y003267D01*
X013503Y003305D01*
X013455Y003347D01*
X013411Y003391D01*
X013369Y003439D01*
X013331Y003488D01*
X013296Y003540D01*
X013264Y003594D01*
X013235Y003650D01*
X013210Y003708D01*
X013189Y003767D01*
X013171Y003827D01*
X013158Y003889D01*
X013148Y003951D01*
X013142Y004013D01*
X013140Y004076D01*
X012446Y008976D02*
X012269Y008976D01*
X012225Y009020D01*
X012225Y009108D01*
X012269Y009152D01*
X012313Y009266D02*
X012225Y009354D01*
X012490Y009354D01*
X012490Y009266D02*
X012490Y009442D01*
X012446Y009152D02*
X012490Y009108D01*
X012490Y009020D01*
X012446Y008976D01*
X012540Y010726D02*
X012717Y010726D01*
X012830Y010814D02*
X012918Y010726D01*
X013007Y010814D01*
X013007Y010991D01*
X013007Y011101D02*
X012830Y011101D01*
X012918Y011101D02*
X012918Y011366D01*
X012830Y011277D01*
X012717Y011322D02*
X012717Y011145D01*
X012673Y011101D01*
X012584Y011101D01*
X012540Y011145D01*
X012540Y011322D01*
X012584Y011366D01*
X012673Y011366D01*
X012717Y011322D01*
X012628Y011189D02*
X012717Y011101D01*
X012830Y010991D02*
X012830Y010814D01*
X012540Y010726D02*
X012540Y010991D01*
X012212Y011101D02*
X012035Y011101D01*
X012123Y011101D02*
X012123Y011366D01*
X012035Y011277D01*
X011922Y011233D02*
X011878Y011189D01*
X011745Y011189D01*
X011745Y011101D02*
X011745Y011366D01*
X011878Y011366D01*
X011922Y011322D01*
X011922Y011233D01*
X011922Y011476D02*
X011745Y011476D01*
X011833Y011476D02*
X011833Y011741D01*
X011745Y011652D01*
X011632Y011608D02*
X011543Y011608D01*
X011632Y011608D02*
X011632Y011520D01*
X011588Y011476D01*
X011499Y011476D01*
X011455Y011520D01*
X011455Y011697D01*
X011499Y011741D01*
X011588Y011741D01*
X011632Y011697D01*
X011342Y011697D02*
X011342Y011608D01*
X011298Y011564D01*
X011165Y011564D01*
X011253Y011564D02*
X011342Y011476D01*
X011298Y011366D02*
X011165Y011366D01*
X011165Y011101D01*
X011165Y011189D02*
X011298Y011189D01*
X011342Y011233D01*
X011342Y011322D01*
X011298Y011366D01*
X011455Y011322D02*
X011455Y011145D01*
X011499Y011101D01*
X011588Y011101D01*
X011632Y011145D01*
X011632Y011233D01*
X011543Y011233D01*
X011455Y011322D02*
X011499Y011366D01*
X011588Y011366D01*
X011632Y011322D01*
X011342Y011101D02*
X011253Y011189D01*
X011298Y010991D02*
X011165Y010991D01*
X011165Y010726D01*
X011165Y010814D02*
X011298Y010814D01*
X011342Y010858D01*
X011342Y010947D01*
X011298Y010991D01*
X011455Y010991D02*
X011632Y010991D01*
X011745Y010991D02*
X011745Y010726D01*
X011922Y010726D01*
X012035Y010726D02*
X012212Y010726D01*
X012123Y010726D02*
X012123Y010991D01*
X012035Y010902D01*
X011543Y010858D02*
X011455Y010858D01*
X011455Y010726D02*
X011455Y010991D01*
X011253Y010814D02*
X011342Y010726D01*
X011165Y011476D02*
X011165Y011741D01*
X011298Y011741D01*
X011342Y011697D01*
X012540Y011741D02*
X012540Y011476D01*
X012673Y011476D01*
X012717Y011520D01*
X012717Y011697D01*
X012673Y011741D01*
X012540Y011741D01*
X012830Y011652D02*
X012918Y011741D01*
X012918Y011476D01*
X012830Y011476D02*
X013007Y011476D01*
X013540Y011476D02*
X013540Y011741D01*
X013673Y011741D01*
X013717Y011697D01*
X013717Y011608D01*
X013673Y011564D01*
X013540Y011564D01*
X013628Y011564D02*
X013717Y011476D01*
X013673Y011366D02*
X013717Y011322D01*
X013717Y011233D01*
X013673Y011189D01*
X013540Y011189D01*
X013628Y011189D02*
X013717Y011101D01*
X013673Y010991D02*
X013717Y010947D01*
X013717Y010858D01*
X013673Y010814D01*
X013540Y010814D01*
X013628Y010814D02*
X013717Y010726D01*
X013830Y010726D02*
X013830Y010991D01*
X014007Y010991D01*
X014120Y010991D02*
X014120Y010726D01*
X014297Y010726D01*
X014410Y010726D02*
X014587Y010902D01*
X014587Y010947D01*
X014543Y010991D01*
X014454Y010991D01*
X014410Y010947D01*
X014410Y011101D02*
X014587Y011277D01*
X014587Y011322D01*
X014543Y011366D01*
X014454Y011366D01*
X014410Y011322D01*
X014297Y011322D02*
X014297Y011233D01*
X014253Y011189D01*
X014120Y011189D01*
X014120Y011101D02*
X014120Y011366D01*
X014253Y011366D01*
X014297Y011322D01*
X014297Y011476D02*
X014120Y011476D01*
X014297Y011652D01*
X014297Y011697D01*
X014253Y011741D01*
X014164Y011741D01*
X014120Y011697D01*
X014007Y011697D02*
X013963Y011741D01*
X013874Y011741D01*
X013830Y011697D01*
X013830Y011520D01*
X013874Y011476D01*
X013963Y011476D01*
X014007Y011520D01*
X014007Y011608D01*
X013918Y011608D01*
X013874Y011366D02*
X013830Y011322D01*
X013830Y011145D01*
X013874Y011101D01*
X013963Y011101D01*
X014007Y011145D01*
X014007Y011233D01*
X013918Y011233D01*
X014007Y011322D02*
X013963Y011366D01*
X013874Y011366D01*
X013673Y011366D02*
X013540Y011366D01*
X013540Y011101D01*
X013540Y010991D02*
X013673Y010991D01*
X013540Y010991D02*
X013540Y010726D01*
X013297Y010726D02*
X013120Y010726D01*
X013208Y010726D02*
X013208Y010991D01*
X013120Y010902D01*
X013830Y010858D02*
X013918Y010858D01*
X014410Y010726D02*
X014587Y010726D01*
X014915Y010726D02*
X015092Y010726D01*
X015205Y010814D02*
X015205Y010991D01*
X015205Y011101D02*
X015382Y011277D01*
X015382Y011322D01*
X015338Y011366D01*
X015249Y011366D01*
X015205Y011322D01*
X015092Y011322D02*
X015092Y011145D01*
X015048Y011101D01*
X014959Y011101D01*
X014915Y011145D01*
X014915Y011322D01*
X014959Y011366D01*
X015048Y011366D01*
X015092Y011322D01*
X015003Y011189D02*
X015092Y011101D01*
X015205Y011101D02*
X015382Y011101D01*
X015382Y010991D02*
X015382Y010814D01*
X015293Y010726D01*
X015205Y010814D01*
X014915Y010726D02*
X014915Y010991D01*
X014587Y011101D02*
X014410Y011101D01*
X014915Y011476D02*
X015048Y011476D01*
X015092Y011520D01*
X015092Y011697D01*
X015048Y011741D01*
X014915Y011741D01*
X014915Y011476D01*
X015205Y011476D02*
X015382Y011652D01*
X015382Y011697D01*
X015338Y011741D01*
X015249Y011741D01*
X015205Y011697D01*
X015205Y011476D02*
X015382Y011476D01*
X015539Y010991D02*
X015495Y010947D01*
X015539Y010991D02*
X015628Y010991D01*
X015672Y010947D01*
X015672Y010902D01*
X015495Y010726D01*
X015672Y010726D01*
X016040Y010726D02*
X016040Y010991D01*
X016173Y010991D01*
X016217Y010947D01*
X016217Y010858D01*
X016173Y010814D01*
X016040Y010814D01*
X016128Y010814D02*
X016217Y010726D01*
X016330Y010726D02*
X016330Y010991D01*
X016507Y010991D01*
X016620Y010991D02*
X016620Y010726D01*
X016797Y010726D01*
X016910Y010770D02*
X016954Y010726D01*
X017043Y010726D01*
X017087Y010770D01*
X017087Y010814D01*
X017043Y010858D01*
X016998Y010858D01*
X017043Y010858D02*
X017087Y010902D01*
X017087Y010947D01*
X017043Y010991D01*
X016954Y010991D01*
X016910Y010947D01*
X016954Y011101D02*
X016910Y011145D01*
X016954Y011101D02*
X017043Y011101D01*
X017087Y011145D01*
X017087Y011189D01*
X017043Y011233D01*
X016998Y011233D01*
X017043Y011233D02*
X017087Y011277D01*
X017087Y011322D01*
X017043Y011366D01*
X016954Y011366D01*
X016910Y011322D01*
X016797Y011322D02*
X016797Y011233D01*
X016753Y011189D01*
X016620Y011189D01*
X016620Y011101D02*
X016620Y011366D01*
X016753Y011366D01*
X016797Y011322D01*
X016753Y011476D02*
X016664Y011476D01*
X016620Y011520D01*
X016507Y011520D02*
X016507Y011608D01*
X016418Y011608D01*
X016330Y011520D02*
X016330Y011697D01*
X016374Y011741D01*
X016463Y011741D01*
X016507Y011697D01*
X016620Y011697D02*
X016664Y011741D01*
X016753Y011741D01*
X016797Y011697D01*
X016797Y011652D01*
X016753Y011608D01*
X016797Y011564D01*
X016797Y011520D01*
X016753Y011476D01*
X016753Y011608D02*
X016708Y011608D01*
X016507Y011520D02*
X016463Y011476D01*
X016374Y011476D01*
X016330Y011520D01*
X016217Y011476D02*
X016128Y011564D01*
X016173Y011564D02*
X016040Y011564D01*
X016040Y011476D02*
X016040Y011741D01*
X016173Y011741D01*
X016217Y011697D01*
X016217Y011608D01*
X016173Y011564D01*
X016173Y011366D02*
X016217Y011322D01*
X016217Y011233D01*
X016173Y011189D01*
X016040Y011189D01*
X016128Y011189D02*
X016217Y011101D01*
X016330Y011145D02*
X016330Y011322D01*
X016374Y011366D01*
X016463Y011366D01*
X016507Y011322D01*
X016507Y011233D02*
X016418Y011233D01*
X016507Y011233D02*
X016507Y011145D01*
X016463Y011101D01*
X016374Y011101D01*
X016330Y011145D01*
X016173Y011366D02*
X016040Y011366D01*
X016040Y011101D01*
X016330Y010858D02*
X016418Y010858D01*
X017415Y010726D02*
X017592Y010726D01*
X017705Y010814D02*
X017705Y010991D01*
X017749Y011101D02*
X017705Y011145D01*
X017749Y011101D02*
X017838Y011101D01*
X017882Y011145D01*
X017882Y011189D01*
X017838Y011233D01*
X017793Y011233D01*
X017838Y011233D02*
X017882Y011277D01*
X017882Y011322D01*
X017838Y011366D01*
X017749Y011366D01*
X017705Y011322D01*
X017592Y011322D02*
X017592Y011145D01*
X017548Y011101D01*
X017459Y011101D01*
X017415Y011145D01*
X017415Y011322D01*
X017459Y011366D01*
X017548Y011366D01*
X017592Y011322D01*
X017503Y011189D02*
X017592Y011101D01*
X017415Y010991D02*
X017415Y010726D01*
X017705Y010814D02*
X017793Y010726D01*
X017882Y010814D01*
X017882Y010991D01*
X017995Y010947D02*
X018039Y010991D01*
X018128Y010991D01*
X018172Y010947D01*
X018172Y010902D01*
X018128Y010858D01*
X018172Y010814D01*
X018172Y010770D01*
X018128Y010726D01*
X018039Y010726D01*
X017995Y010770D01*
X018083Y010858D02*
X018128Y010858D01*
X017838Y011476D02*
X017749Y011476D01*
X017705Y011520D01*
X017592Y011520D02*
X017592Y011697D01*
X017548Y011741D01*
X017415Y011741D01*
X017415Y011476D01*
X017548Y011476D01*
X017592Y011520D01*
X017705Y011697D02*
X017749Y011741D01*
X017838Y011741D01*
X017882Y011697D01*
X017882Y011652D01*
X017838Y011608D01*
X017882Y011564D01*
X017882Y011520D01*
X017838Y011476D01*
X017838Y011608D02*
X017793Y011608D01*
X016962Y012476D02*
X016785Y012476D01*
X016785Y012741D01*
X016672Y012741D02*
X016495Y012741D01*
X016495Y012476D01*
X016495Y012366D02*
X016495Y012101D01*
X016672Y012101D01*
X016293Y012233D02*
X016205Y012233D01*
X016205Y012101D02*
X016205Y012366D01*
X016382Y012366D01*
X016382Y012476D02*
X016205Y012476D01*
X016205Y012741D01*
X016249Y012851D02*
X016205Y012895D01*
X016249Y012851D02*
X016338Y012851D01*
X016382Y012895D01*
X016382Y013072D01*
X016338Y013116D01*
X016249Y013116D01*
X016205Y013072D01*
X016205Y013027D01*
X016249Y012983D01*
X016382Y012983D01*
X016092Y012983D02*
X016048Y012939D01*
X015915Y012939D01*
X016003Y012939D02*
X016092Y012851D01*
X016048Y012741D02*
X016092Y012697D01*
X016092Y012608D01*
X016048Y012564D01*
X015915Y012564D01*
X016003Y012564D02*
X016092Y012476D01*
X015915Y012476D02*
X015915Y012741D01*
X016048Y012741D01*
X015915Y012851D02*
X015915Y013116D01*
X016048Y013116D01*
X016092Y013072D01*
X016092Y012983D01*
X016495Y012608D02*
X016583Y012608D01*
X016092Y012101D02*
X015915Y012101D01*
X015915Y012366D01*
X021665Y014276D02*
X021665Y014541D01*
X021753Y014452D01*
X021842Y014541D01*
X021842Y014276D01*
X021955Y014320D02*
X021999Y014276D01*
X022088Y014276D01*
X022132Y014320D01*
X022132Y014497D01*
X022088Y014541D01*
X021999Y014541D01*
X021955Y014497D01*
X021955Y014320D01*
X022245Y014364D02*
X022245Y014541D01*
X022422Y014541D02*
X022422Y014364D01*
X022333Y014276D01*
X022245Y014364D01*
X022490Y013727D02*
X022490Y013551D01*
X022490Y013639D02*
X022225Y013639D01*
X022313Y013551D01*
X022225Y013437D02*
X022490Y013437D01*
X022490Y013261D02*
X022225Y013261D01*
X022313Y013349D01*
X022225Y013437D01*
X022225Y013147D02*
X022446Y013147D01*
X022490Y013103D01*
X022490Y013015D01*
X022446Y012971D01*
X022225Y012971D01*
X022225Y012857D02*
X022490Y012857D01*
X022357Y012857D02*
X022357Y012681D01*
X022225Y012681D02*
X022490Y012681D01*
X022534Y012567D02*
X022534Y012391D01*
X022490Y012277D02*
X022402Y012189D01*
X022402Y012233D02*
X022402Y012101D01*
X022490Y012101D02*
X022225Y012101D01*
X022225Y012233D01*
X022269Y012277D01*
X022357Y012277D01*
X022402Y012233D01*
X022725Y012233D02*
X022725Y012101D01*
X022990Y012101D01*
X022902Y012101D02*
X022902Y012233D01*
X022857Y012277D01*
X022769Y012277D01*
X022725Y012233D01*
X022902Y012189D02*
X022990Y012277D01*
X023034Y012391D02*
X023034Y012567D01*
X022990Y012681D02*
X022725Y012681D01*
X022857Y012681D02*
X022857Y012857D01*
X022725Y012857D02*
X022990Y012857D01*
X022946Y012971D02*
X022725Y012971D01*
X022725Y013147D02*
X022946Y013147D01*
X022990Y013103D01*
X022990Y013015D01*
X022946Y012971D01*
X023225Y012971D02*
X023446Y012971D01*
X023490Y013015D01*
X023490Y013103D01*
X023446Y013147D01*
X023225Y013147D01*
X023225Y013261D02*
X023313Y013349D01*
X023225Y013437D01*
X023490Y013437D01*
X023490Y013261D02*
X023225Y013261D01*
X022990Y013261D02*
X022725Y013261D01*
X022813Y013349D01*
X022725Y013437D01*
X022990Y013437D01*
X022990Y013551D02*
X022813Y013727D01*
X022769Y013727D01*
X022725Y013683D01*
X022725Y013595D01*
X022769Y013551D01*
X022990Y013551D02*
X022990Y013727D01*
X023225Y012857D02*
X023490Y012857D01*
X023357Y012857D02*
X023357Y012681D01*
X023225Y012681D02*
X023490Y012681D01*
X023534Y012567D02*
X023534Y012391D01*
X023490Y012277D02*
X023402Y012189D01*
X023402Y012233D02*
X023402Y012101D01*
X023490Y012101D02*
X023225Y012101D01*
X023225Y012233D01*
X023269Y012277D01*
X023357Y012277D01*
X023402Y012233D01*
X023423Y011866D02*
X023290Y011866D01*
X023290Y011601D01*
X023290Y011689D02*
X023423Y011689D01*
X023467Y011733D01*
X023467Y011822D01*
X023423Y011866D01*
X023580Y011777D02*
X023668Y011866D01*
X023668Y011601D01*
X023580Y011601D02*
X023757Y011601D01*
X023870Y011601D02*
X024047Y011601D01*
X023958Y011601D02*
X023958Y011866D01*
X023870Y011777D01*
X023467Y011601D02*
X023378Y011689D01*
X024165Y010947D02*
X024165Y010770D01*
X024209Y010726D01*
X024298Y010726D01*
X024342Y010770D01*
X024455Y010681D02*
X024632Y010681D01*
X024745Y010726D02*
X024745Y010991D01*
X024878Y010991D01*
X024922Y010947D01*
X024922Y010858D01*
X024878Y010814D01*
X024745Y010814D01*
X024833Y010814D02*
X024922Y010726D01*
X025035Y010770D02*
X025079Y010726D01*
X025168Y010726D01*
X025212Y010770D01*
X025212Y010814D01*
X025168Y010858D01*
X025079Y010858D01*
X025035Y010902D01*
X025035Y010947D01*
X025079Y010991D01*
X025168Y010991D01*
X025212Y010947D01*
X025325Y010991D02*
X025502Y010991D01*
X025413Y010991D02*
X025413Y010726D01*
X025640Y010690D02*
X025910Y010509D01*
X025910Y010395D02*
X025820Y010305D01*
X025820Y010350D02*
X025820Y010215D01*
X025910Y010215D02*
X025640Y010215D01*
X025640Y010350D01*
X025685Y010395D01*
X025775Y010395D01*
X025820Y010350D01*
X025640Y010509D02*
X025910Y010690D01*
X025910Y010804D02*
X025910Y010894D01*
X025910Y010849D02*
X025640Y010849D01*
X025640Y010804D02*
X025640Y010894D01*
X025640Y011117D02*
X025640Y011297D01*
X025640Y011207D02*
X025910Y011207D01*
X025910Y011411D02*
X025640Y011591D01*
X025685Y011706D02*
X025865Y011706D01*
X025910Y011751D01*
X025910Y011841D01*
X025865Y011886D01*
X025685Y011886D01*
X025640Y011841D01*
X025640Y011751D01*
X025685Y011706D01*
X025910Y011591D02*
X025640Y011411D01*
X025212Y010491D02*
X025035Y010491D01*
X025123Y010491D02*
X025123Y010226D01*
X024922Y010270D02*
X024922Y010314D01*
X024878Y010358D01*
X024789Y010358D01*
X024745Y010402D01*
X024745Y010447D01*
X024789Y010491D01*
X024878Y010491D01*
X024922Y010447D01*
X024922Y010270D02*
X024878Y010226D01*
X024789Y010226D01*
X024745Y010270D01*
X024632Y010226D02*
X024543Y010314D01*
X024588Y010314D02*
X024455Y010314D01*
X024455Y010226D02*
X024455Y010491D01*
X024588Y010491D01*
X024632Y010447D01*
X024632Y010358D01*
X024588Y010314D01*
X024342Y010358D02*
X024298Y010314D01*
X024165Y010314D01*
X024253Y010314D02*
X024342Y010226D01*
X024342Y010358D02*
X024342Y010447D01*
X024298Y010491D01*
X024165Y010491D01*
X024165Y010226D01*
X024165Y010947D02*
X024209Y010991D01*
X024298Y010991D01*
X024342Y010947D01*
X025640Y009841D02*
X025640Y009751D01*
X025685Y009706D01*
X025865Y009706D01*
X025910Y009751D01*
X025910Y009841D01*
X025865Y009886D01*
X025685Y009886D02*
X025640Y009841D01*
X025685Y009591D02*
X025640Y009546D01*
X025640Y009456D01*
X025685Y009411D01*
X025865Y009411D01*
X025910Y009456D01*
X025910Y009546D01*
X025865Y009591D01*
X025820Y009297D02*
X025640Y009297D01*
X025820Y009297D02*
X025910Y009207D01*
X025820Y009117D01*
X025640Y009117D01*
X025685Y008886D02*
X025640Y008841D01*
X025640Y008751D01*
X025685Y008706D01*
X025730Y008706D01*
X025775Y008751D01*
X025775Y008841D01*
X025820Y008886D01*
X025865Y008886D01*
X025910Y008841D01*
X025910Y008751D01*
X025865Y008706D01*
X025910Y008501D02*
X025640Y008501D01*
X025640Y008411D02*
X025640Y008591D01*
X025685Y008297D02*
X025640Y008252D01*
X025640Y008162D01*
X025685Y008117D01*
X025865Y008117D01*
X025910Y008162D01*
X025910Y008252D01*
X025865Y008297D01*
X025865Y007886D02*
X025685Y007886D01*
X025640Y007841D01*
X025640Y007706D01*
X025910Y007706D01*
X025910Y007841D01*
X025865Y007886D01*
X025910Y007591D02*
X025640Y007591D01*
X025640Y007411D02*
X025910Y007591D01*
X025910Y007411D02*
X025640Y007411D01*
X025685Y007297D02*
X025640Y007252D01*
X025640Y007162D01*
X025685Y007117D01*
X025865Y007117D01*
X025910Y007162D01*
X025910Y007252D01*
X025865Y007297D01*
X025775Y007297D01*
X025775Y007207D01*
X026015Y007076D02*
X026015Y013076D01*
X027015Y013076D01*
X027015Y007076D01*
X026015Y007076D01*
X024534Y007641D02*
X024534Y007817D01*
X024490Y007931D02*
X024490Y008019D01*
X024490Y007975D02*
X024225Y007975D01*
X024225Y007931D02*
X024225Y008019D01*
X024269Y008124D02*
X024225Y008168D01*
X024225Y008257D01*
X024269Y008301D01*
X024313Y008301D01*
X024490Y008124D01*
X024490Y008301D01*
X024446Y008414D02*
X024490Y008458D01*
X024490Y008547D01*
X024446Y008591D01*
X024269Y008591D02*
X024225Y008547D01*
X024225Y008458D01*
X024269Y008414D01*
X024446Y008414D01*
X024490Y007527D02*
X024402Y007439D01*
X024402Y007483D02*
X024402Y007351D01*
X024490Y007351D02*
X024225Y007351D01*
X024225Y007483D01*
X024269Y007527D01*
X024357Y007527D01*
X024402Y007483D01*
X023640Y005826D02*
X023640Y003826D01*
X022515Y003826D01*
X022515Y003576D01*
X021765Y003576D01*
X021765Y003826D01*
X020640Y003826D01*
X020640Y005826D01*
X023640Y005826D01*
X022132Y006395D02*
X022088Y006351D01*
X021955Y006351D01*
X021955Y006616D01*
X022088Y006616D01*
X022132Y006572D01*
X022132Y006527D01*
X022088Y006483D01*
X021955Y006483D01*
X022088Y006483D02*
X022132Y006439D01*
X022132Y006395D01*
X021842Y006616D02*
X021665Y006616D01*
X021665Y006351D01*
X021665Y006483D02*
X021753Y006483D01*
X025056Y012181D02*
X025191Y012181D01*
X025236Y012226D01*
X025236Y012406D01*
X025191Y012451D01*
X025056Y012451D01*
X025056Y012181D01*
X025441Y012181D02*
X025441Y012451D01*
X025351Y012451D02*
X025531Y012451D01*
X025645Y012451D02*
X025645Y012181D01*
X025645Y012271D02*
X025780Y012271D01*
X025826Y012316D01*
X025826Y012406D01*
X025780Y012451D01*
X025645Y012451D01*
X025735Y012271D02*
X025826Y012181D01*
X004382Y011741D02*
X004205Y011741D01*
X004205Y011608D01*
X004293Y011652D01*
X004338Y011652D01*
X004382Y011608D01*
X004382Y011520D01*
X004338Y011476D01*
X004249Y011476D01*
X004205Y011520D01*
X004092Y011520D02*
X004048Y011476D01*
X003959Y011476D01*
X003915Y011520D01*
X003915Y011697D01*
X003959Y011741D01*
X004048Y011741D01*
X004092Y011697D01*
X002740Y012226D02*
X002475Y012226D01*
X002475Y012358D01*
X002519Y012402D01*
X002607Y012402D01*
X002652Y012358D01*
X002652Y012226D01*
X002652Y012314D02*
X002740Y012402D01*
X002740Y012516D02*
X002740Y012692D01*
X002696Y012806D02*
X002740Y012850D01*
X002740Y012938D01*
X002696Y012982D01*
X002519Y012982D01*
X002475Y012938D01*
X002475Y012850D01*
X002519Y012806D01*
X002696Y012806D01*
X002740Y013096D02*
X002475Y013096D01*
X002740Y013272D01*
X002475Y013272D01*
X002475Y012516D02*
X002740Y012516D01*
X001240Y012516D02*
X001240Y012692D01*
X001240Y012806D02*
X000975Y012806D01*
X000975Y012938D01*
X001019Y012982D01*
X001196Y012982D01*
X001240Y012938D01*
X001240Y012806D01*
X001107Y012604D02*
X001107Y012516D01*
X000975Y012516D02*
X001240Y012516D01*
X001240Y012402D02*
X001240Y012226D01*
X000975Y012226D01*
X000975Y012516D02*
X000975Y012692D01*
X001107Y013096D02*
X001107Y013272D01*
X001019Y013386D02*
X001196Y013386D01*
X001240Y013430D01*
X001240Y013518D01*
X001196Y013562D01*
X001019Y013562D01*
X000975Y013518D01*
X000975Y013430D01*
X001019Y013386D01*
X000975Y013676D02*
X001240Y013852D01*
X000975Y013852D01*
X000975Y013676D02*
X001240Y013676D01*
D13*
X007140Y013826D03*
X007140Y013076D03*
X007140Y012326D03*
X010140Y012326D03*
X010140Y013076D03*
X010140Y013826D03*
X013140Y013826D03*
X013140Y013076D03*
X013140Y012326D03*
X017140Y013888D03*
X017140Y014576D03*
X019140Y014576D03*
X023890Y009201D03*
X020640Y006451D03*
D14*
X014238Y014300D02*
X013825Y014576D01*
X014238Y014871D01*
X014238Y014300D01*
X011238Y014300D02*
X010825Y014576D01*
X011238Y014871D01*
X011238Y014300D01*
X008238Y014300D02*
X007825Y014576D01*
X008238Y014871D01*
X008238Y014300D01*
D15*
X007805Y014576D03*
X010805Y014576D03*
X013805Y014576D03*
D16*
X020640Y012076D03*
X023890Y009826D03*
X020640Y007076D03*
X002765Y011576D03*
D17*
X012796Y009451D03*
X013734Y009451D03*
D18*
X024390Y013201D03*
X025015Y013201D03*
X025640Y013201D03*
X002140Y012701D03*
D19*
X008449Y012473D03*
X008449Y012178D03*
X011449Y012178D03*
X011449Y012473D03*
X014449Y012473D03*
X014449Y012178D03*
X017199Y013115D03*
X017199Y013411D03*
D20*
X017199Y013263D03*
X014449Y012326D03*
X011449Y012326D03*
X008449Y012326D03*
X001515Y012642D03*
D21*
X001367Y012642D03*
X001663Y012642D03*
D22*
X002202Y007421D02*
X002252Y007421D01*
X002227Y007421D02*
X002227Y007271D01*
X002202Y007271D02*
X002252Y007271D01*
X002300Y007296D02*
X002325Y007271D01*
X002375Y007271D01*
X002400Y007296D01*
X002448Y007346D02*
X002548Y007346D01*
X002523Y007421D02*
X002448Y007346D01*
X002400Y007396D02*
X002375Y007421D01*
X002325Y007421D01*
X002300Y007396D01*
X002300Y007296D01*
X002523Y007271D02*
X002523Y007421D01*
D23*
X006256Y015201D02*
X006381Y015451D01*
X006506Y015201D01*
X006256Y015201D01*
X006258Y015204D02*
X006505Y015204D01*
X006485Y015242D02*
X006277Y015242D01*
X006296Y015281D02*
X006466Y015281D01*
X006447Y015319D02*
X006315Y015319D01*
X006335Y015358D02*
X006428Y015358D01*
X006408Y015396D02*
X006354Y015396D01*
X006373Y015435D02*
X006389Y015435D01*
X006616Y015402D02*
X006616Y018528D01*
X003664Y018528D01*
X003664Y015402D01*
X006664Y015402D02*
X006664Y018528D01*
X009616Y018528D01*
X009616Y015402D01*
X009664Y015402D02*
X009664Y018528D01*
X012616Y018528D01*
X012616Y015402D01*
X012664Y015402D02*
X012664Y018528D01*
X015616Y018528D01*
X015616Y015402D01*
X015699Y015402D02*
X015699Y018528D01*
X020581Y018528D01*
X020581Y015402D01*
X020664Y015402D02*
X020664Y018528D01*
X023616Y018528D01*
X023616Y015402D01*
X023447Y015319D02*
X023315Y015319D01*
X023296Y015281D02*
X023466Y015281D01*
X023485Y015242D02*
X023277Y015242D01*
X023258Y015204D02*
X023505Y015204D01*
X023506Y015201D02*
X023256Y015201D01*
X023381Y015451D01*
X023506Y015201D01*
X023428Y015358D02*
X023335Y015358D01*
X023354Y015396D02*
X023408Y015396D01*
X023389Y015435D02*
X023373Y015435D01*
X020506Y015201D02*
X020256Y015201D01*
X020381Y015451D01*
X020506Y015201D01*
X020505Y015204D02*
X020258Y015204D01*
X020277Y015242D02*
X020485Y015242D01*
X020466Y015281D02*
X020296Y015281D01*
X020315Y015319D02*
X020447Y015319D01*
X020428Y015358D02*
X020335Y015358D01*
X020354Y015396D02*
X020408Y015396D01*
X020389Y015435D02*
X020373Y015435D01*
X015506Y015201D02*
X015256Y015201D01*
X015381Y015451D01*
X015506Y015201D01*
X015505Y015204D02*
X015258Y015204D01*
X015277Y015242D02*
X015485Y015242D01*
X015466Y015281D02*
X015296Y015281D01*
X015315Y015319D02*
X015447Y015319D01*
X015428Y015358D02*
X015335Y015358D01*
X015354Y015396D02*
X015408Y015396D01*
X015389Y015435D02*
X015373Y015435D01*
X012506Y015201D02*
X012256Y015201D01*
X012381Y015451D01*
X012506Y015201D01*
X012505Y015204D02*
X012258Y015204D01*
X012277Y015242D02*
X012485Y015242D01*
X012466Y015281D02*
X012296Y015281D01*
X012315Y015319D02*
X012447Y015319D01*
X012428Y015358D02*
X012335Y015358D01*
X012354Y015396D02*
X012408Y015396D01*
X012389Y015435D02*
X012373Y015435D01*
X009506Y015201D02*
X009256Y015201D01*
X009381Y015451D01*
X009506Y015201D01*
X009505Y015204D02*
X009258Y015204D01*
X009277Y015242D02*
X009485Y015242D01*
X009466Y015281D02*
X009296Y015281D01*
X009315Y015319D02*
X009447Y015319D01*
X009428Y015358D02*
X009335Y015358D01*
X009354Y015396D02*
X009408Y015396D01*
X009389Y015435D02*
X009373Y015435D01*
D24*
X004640Y014044D03*
X004640Y013107D03*
M02*
